<svg width="360" height="360" viewBox="0 0 360 360" fill="none" xmlns="http://www.w3.org/2000/svg">
<path d="M207.692 80.2448C207.567 80.2448 207.447 80.2945 207.358 80.3829C207.27 80.4716 207.22 80.5915 207.22 80.7168V84.021C207.22 84.1462 207.27 84.2661 207.358 84.3549C207.447 84.4433 207.567 84.493 207.692 84.493C207.818 84.493 207.937 84.4433 208.026 84.3549C208.115 84.2661 208.164 84.1462 208.164 84.021V80.7168C208.164 80.5915 208.115 80.4716 208.026 80.3829C207.937 80.2945 207.818 80.2448 207.692 80.2448ZM207.692 60.8916C207.567 60.8916 207.447 60.9413 207.358 61.0297C207.27 61.1185 207.22 61.2384 207.22 61.3636V64.6678C207.22 64.7931 207.27 64.913 207.358 65.0017C207.447 65.0901 207.567 65.1399 207.692 65.1399C207.818 65.1399 207.937 65.0901 208.026 65.0017C208.115 64.913 208.164 64.7931 208.164 64.6678V61.3636C208.164 61.2384 208.115 61.1185 208.026 61.0297C207.937 60.9413 207.818 60.8916 207.692 60.8916ZM219.021 72.2203H215.717C215.591 72.2203 215.472 72.27 215.383 72.3584C215.294 72.4472 215.245 72.5671 215.245 72.6923C215.245 72.8176 215.294 72.9374 215.383 73.0262C215.472 73.1146 215.591 73.1643 215.717 73.1643H219.021C219.146 73.1643 219.266 73.1146 219.355 73.0262C219.443 72.9374 219.493 72.8176 219.493 72.6923C219.493 72.5671 219.443 72.4472 219.355 72.3584C219.266 72.27 219.146 72.2203 219.021 72.2203ZM200.14 72.6923C200.14 72.5671 200.09 72.4472 200.002 72.3584C199.913 72.27 199.793 72.2203 199.668 72.2203H196.364C196.238 72.2203 196.118 72.27 196.03 72.3584C195.941 72.4472 195.892 72.5671 195.892 72.6923C195.892 72.8176 195.941 72.9374 196.03 73.0262C196.118 73.1146 196.238 73.1643 196.364 73.1643H199.668C199.793 73.1643 199.913 73.1146 200.002 73.0262C200.09 72.9374 200.14 72.8176 200.14 72.6923ZM213.357 67.5C213.419 67.5003 213.48 67.4884 213.538 67.4651C213.595 67.4415 213.648 67.4069 213.692 67.3631L216.052 65.003C216.141 64.9142 216.191 64.7934 216.191 64.6678C216.191 64.5423 216.141 64.4214 216.052 64.3327C215.963 64.2439 215.842 64.1939 215.717 64.1939C215.591 64.1939 215.47 64.2439 215.382 64.3327L213.045 66.6692C213.001 66.713 212.966 66.7652 212.942 66.8228C212.918 66.8804 212.905 66.9421 212.905 67.0044C212.905 67.0667 212.918 67.1284 212.942 67.1859C212.966 67.2435 213.001 67.2958 213.045 67.3395C213.124 67.4311 213.236 67.4884 213.357 67.5ZM201.683 78.0309L199.347 80.3675C199.302 80.4112 199.268 80.4635 199.244 80.5211C199.22 80.5786 199.207 80.6403 199.207 80.7026C199.207 80.7649 199.22 80.8266 199.244 80.8842C199.268 80.9418 199.302 80.994 199.347 81.0378C199.391 81.0821 199.443 81.1171 199.5 81.141C199.558 81.1649 199.62 81.1775 199.682 81.1775C199.744 81.1775 199.806 81.1649 199.864 81.141C199.921 81.1171 199.973 81.0821 200.017 81.0378L202.377 78.6776C202.421 78.6336 202.456 78.5813 202.48 78.5237C202.504 78.4665 202.516 78.4048 202.516 78.3425C202.516 78.2802 202.504 78.2185 202.48 78.1612C202.456 78.1036 202.421 78.0514 202.377 78.0073C202.333 77.9633 202.281 77.9284 202.223 77.9048C202.166 77.8808 202.104 77.8686 202.042 77.8686C201.98 77.8686 201.918 77.8808 201.861 77.9048C201.803 77.9284 201.751 77.9633 201.707 78.0073L201.683 78.0309ZM213.701 78.0309C213.657 77.9869 213.605 77.952 213.547 77.9284C213.49 77.9044 213.428 77.8922 213.366 77.8922C213.304 77.8922 213.242 77.9044 213.185 77.9284C213.127 77.952 213.075 77.9869 213.031 78.0309C212.987 78.075 212.952 78.1272 212.928 78.1848C212.904 78.2421 212.892 78.3038 212.892 78.3661C212.892 78.4284 212.904 78.4901 212.928 78.5473C212.952 78.6049 212.987 78.6572 213.031 78.7012L215.367 81.0614C215.411 81.1057 215.463 81.1407 215.521 81.1646C215.579 81.1885 215.64 81.2011 215.703 81.2011C215.765 81.2011 215.827 81.1885 215.884 81.1646C215.942 81.1407 215.994 81.1057 216.038 81.0614C216.082 81.0176 216.117 80.9654 216.141 80.9078C216.165 80.8502 216.177 80.7885 216.177 80.7262C216.177 80.6639 216.165 80.6022 216.141 80.5447C216.117 80.4871 216.082 80.4348 216.038 80.3911L213.701 78.0309ZM200.017 64.3468C199.928 64.2581 199.808 64.2081 199.682 64.2081C199.556 64.2081 199.436 64.2581 199.347 64.3468C199.258 64.4356 199.208 64.5564 199.208 64.682C199.208 64.8075 199.258 64.9284 199.347 65.0171L201.683 67.3773C201.73 67.4198 201.784 67.4522 201.843 67.4732C201.902 67.4943 201.965 67.5035 202.028 67.5C202.09 67.5003 202.152 67.4884 202.209 67.4651C202.267 67.4415 202.319 67.4069 202.363 67.3631C202.407 67.3194 202.442 67.2671 202.466 67.2095C202.49 67.152 202.503 67.0903 202.503 67.028C202.503 66.9657 202.49 66.904 202.466 66.8464C202.442 66.7888 202.407 66.7366 202.363 66.6928L200.017 64.3468Z" fill="#2BAB9F"/>
<path d="M207.692 81.1888C212.385 81.1888 216.189 77.3849 216.189 72.6923C216.189 67.9997 212.385 64.1958 207.692 64.1958C203 64.1958 199.196 67.9997 199.196 72.6923C199.196 77.3849 203 81.1888 207.692 81.1888Z" fill="#1AB4A6"/>
<path d="M211.469 72.6923C212.251 72.6923 212.885 72.0582 212.885 71.2762C212.885 70.4942 212.251 69.8601 211.469 69.8601C210.687 69.8601 210.052 70.4942 210.052 71.2762C210.052 72.0582 210.687 72.6923 211.469 72.6923Z" fill="#159A8E"/>
<path d="M211.941 76.9406C212.723 76.9406 213.357 76.3065 213.357 75.5245C213.357 74.7425 212.723 74.1084 211.941 74.1084C211.159 74.1084 210.524 74.7425 210.524 75.5245C210.524 76.3065 211.159 76.9406 211.941 76.9406Z" fill="#159A8E"/>
<path d="M205.804 79.3007C206.586 79.3007 207.22 78.6666 207.22 77.8846C207.22 77.1026 206.586 76.4685 205.804 76.4685C205.022 76.4685 204.388 77.1026 204.388 77.8846C204.388 78.6666 205.022 79.3007 205.804 79.3007Z" fill="#159A8E"/>
<path d="M206.748 75.0524C207.53 75.0524 208.164 74.4184 208.164 73.6364C208.164 72.8544 207.53 72.2203 206.748 72.2203C205.966 72.2203 205.332 72.8544 205.332 73.6364C205.332 74.4184 205.966 75.0524 206.748 75.0524Z" fill="#159A8E"/>
<path d="M203.444 71.2762C204.226 71.2762 204.86 70.6422 204.86 69.8602C204.86 69.0782 204.226 68.4441 203.444 68.4441C202.662 68.4441 202.028 69.0782 202.028 69.8602C202.028 70.6422 202.662 71.2762 203.444 71.2762Z" fill="#159A8E"/>
<path d="M207.692 68.4441C208.474 68.4441 209.108 67.81 209.108 67.028C209.108 66.246 208.474 65.6119 207.692 65.6119C206.91 65.6119 206.276 66.246 206.276 67.028C206.276 67.81 206.91 68.4441 207.692 68.4441Z" fill="#159A8E"/>
<path d="M207.692 86.3811C208.474 86.3811 209.108 85.747 209.108 84.965C209.108 84.183 208.474 83.549 207.692 83.549C206.91 83.549 206.276 84.183 206.276 84.965C206.276 85.747 206.91 86.3811 207.692 86.3811Z" fill="#159A8E"/>
<path d="M207.692 61.8356C208.474 61.8356 209.108 61.2016 209.108 60.4196C209.108 59.6376 208.474 59.0035 207.692 59.0035C206.91 59.0035 206.276 59.6376 206.276 60.4196C206.276 61.2016 206.91 61.8356 207.692 61.8356Z" fill="#159A8E"/>
<path d="M219.965 74.1084C220.747 74.1084 221.381 73.4743 221.381 72.6923C221.381 71.9103 220.747 71.2762 219.965 71.2762C219.183 71.2762 218.549 71.9103 218.549 72.6923C218.549 73.4743 219.183 74.1084 219.965 74.1084Z" fill="#159A8E"/>
<path d="M195.42 74.1084C196.202 74.1084 196.836 73.4743 196.836 72.6923C196.836 71.9103 196.202 71.2762 195.42 71.2762C194.638 71.2762 194.003 71.9103 194.003 72.6923C194.003 73.4743 194.638 74.1084 195.42 74.1084Z" fill="#159A8E"/>
<path d="M215.367 63.011C215.17 63.2093 215.035 63.4616 214.981 63.736C214.927 64.0108 214.955 64.2952 215.063 64.5536C215.17 64.8119 215.351 65.0329 215.584 65.1883C215.817 65.3438 216.091 65.4265 216.37 65.4265C216.65 65.4265 216.924 65.3438 217.157 65.1883C217.39 65.0329 217.571 64.8119 217.678 64.5536C217.785 64.2952 217.814 64.0108 217.76 63.736C217.706 63.4616 217.571 63.2093 217.374 63.011C217.242 62.8788 217.086 62.7744 216.913 62.7026C216.741 62.6312 216.557 62.5944 216.37 62.5944C216.184 62.5944 216 62.6312 215.828 62.7026C215.655 62.7744 215.499 62.8788 215.367 63.011ZM198.011 80.3675C197.813 80.5657 197.679 80.8181 197.625 81.0925C197.57 81.3672 197.599 81.6517 197.706 81.9101C197.814 82.1684 197.995 82.3893 198.228 82.5448C198.461 82.7002 198.734 82.783 199.014 82.783C199.294 82.783 199.567 82.7002 199.8 82.5448C200.033 82.3893 200.214 82.1684 200.322 81.9101C200.429 81.6517 200.457 81.3672 200.403 81.0925C200.349 80.8181 200.215 80.5657 200.017 80.3675C199.746 80.1107 199.387 79.9678 199.014 79.9678C198.641 79.9678 198.282 80.1107 198.011 80.3675ZM198.011 63.011C197.879 63.1425 197.774 63.2989 197.703 63.4711C197.631 63.6432 197.594 63.8276 197.594 64.0139C197.594 64.2005 197.631 64.3849 197.703 64.5571C197.774 64.7292 197.879 64.8856 198.011 65.0171C198.277 65.283 198.638 65.4325 199.014 65.4325C199.39 65.4325 199.751 65.283 200.017 65.0171C200.283 64.7512 200.432 64.3903 200.432 64.0139C200.432 63.6379 200.283 63.2769 200.017 63.011C199.746 62.7542 199.387 62.6114 199.014 62.6114C198.641 62.6114 198.282 62.7542 198.011 63.011ZM215.367 80.3675C215.235 80.499 215.131 80.6554 215.059 80.8275C214.988 80.9997 214.951 81.1841 214.951 81.3704C214.951 81.557 214.988 81.7414 215.059 81.9135C215.131 82.0857 215.235 82.2421 215.367 82.3736C215.566 82.5712 215.818 82.7056 216.092 82.7597C216.367 82.8138 216.652 82.7855 216.91 82.6782C217.168 82.5709 217.389 82.3896 217.545 82.1568C217.7 81.9239 217.783 81.6505 217.783 81.3704C217.783 81.0906 217.7 80.8172 217.545 80.5843C217.389 80.3514 217.168 80.1702 216.91 80.0626C216.652 79.9552 216.367 79.9269 216.092 79.9814C215.818 80.0355 215.566 80.1699 215.367 80.3675Z" fill="#159A8E"/>
<path d="M208.027 69.997L207.957 69.9404C207.93 69.9224 207.902 69.9083 207.872 69.8979L207.787 69.8601C207.717 69.846 207.646 69.8475 207.577 69.8648C207.508 69.8821 207.444 69.9146 207.39 69.9599C207.336 70.0052 207.292 70.0621 207.263 70.1267C207.233 70.1912 207.219 70.2613 207.22 70.3321C207.218 70.3636 207.218 70.3951 207.22 70.4265C207.225 70.4561 207.235 70.4848 207.249 70.5115C207.259 70.5417 207.273 70.57 207.291 70.5965C207.308 70.6213 207.327 70.6449 207.348 70.6673C207.393 70.7104 207.446 70.7441 207.504 70.7664C207.562 70.7944 207.627 70.8073 207.692 70.8042H207.787L207.872 70.7758C207.902 70.7655 207.93 70.7513 207.957 70.7334L208.027 70.6767C208.116 70.5839 208.165 70.4605 208.164 70.3321C208.166 70.2701 208.153 70.2088 208.127 70.1528C208.105 70.0946 208.071 70.0414 208.027 69.997ZM209.916 73.7732L209.845 73.7166L209.76 73.6741C209.732 73.6596 209.701 73.6502 209.67 73.6458C209.609 73.6363 209.547 73.6363 209.486 73.6458C209.456 73.6508 209.428 73.6606 209.401 73.6741L209.316 73.7166L209.245 73.7732C209.204 73.8192 209.17 73.8717 209.146 73.929C209.122 73.9856 209.109 74.0467 209.108 74.1084C209.108 74.1704 209.12 74.232 209.143 74.2896C209.167 74.3472 209.202 74.3994 209.245 74.4435C209.336 74.5297 209.455 74.5788 209.58 74.5804H209.67C209.701 74.576 209.732 74.5665 209.76 74.5521L209.845 74.5096L209.916 74.4529C209.961 74.4076 209.996 74.3538 210.019 74.2947C210.043 74.2355 210.054 74.1719 210.052 74.1084C210.052 74.0467 210.039 73.9856 210.015 73.929C209.991 73.8717 209.957 73.8192 209.916 73.7732ZM204.35 73.929C204.34 73.8988 204.326 73.8705 204.308 73.844L204.251 73.7732C204.185 73.7078 204.1 73.6634 204.009 73.6458C203.917 73.6281 203.823 73.6379 203.737 73.6741C203.679 73.6964 203.626 73.7301 203.581 73.7732L203.524 73.844C203.506 73.8705 203.492 73.8988 203.482 73.929C203.468 73.9557 203.459 73.9844 203.454 74.014C203.451 74.0454 203.451 74.0769 203.454 74.1084C203.454 74.17 203.467 74.2311 203.491 74.2877C203.515 74.345 203.549 74.3976 203.59 74.4435C203.635 74.4866 203.688 74.5203 203.746 74.5426C203.803 74.5675 203.864 74.5804 203.926 74.5804C203.987 74.5804 204.048 74.5675 204.105 74.5426C204.162 74.5187 204.215 74.4854 204.261 74.4435C204.343 74.3516 204.389 74.232 204.388 74.1084C204.39 74.0769 204.39 74.0454 204.388 74.014C204.38 73.9837 204.367 73.9551 204.35 73.929ZM202.207 73.1265C202.265 73.1042 202.318 73.0705 202.363 73.0274C202.449 72.9371 202.498 72.8172 202.5 72.6923C202.499 72.6306 202.486 72.5695 202.462 72.5129C202.441 72.4544 202.407 72.4012 202.363 72.3571C202.319 72.3131 202.266 72.2791 202.207 72.258C202.093 72.2108 201.963 72.2108 201.849 72.258C201.791 72.2819 201.739 72.3156 201.693 72.3571C201.65 72.4021 201.616 72.455 201.594 72.5129C201.569 72.5695 201.557 72.6306 201.556 72.6923C201.558 72.8172 201.607 72.9371 201.693 73.0274C201.739 73.0693 201.791 73.1026 201.849 73.1265C201.905 73.1514 201.966 73.1643 202.028 73.1643C202.09 73.1643 202.151 73.1514 202.207 73.1265ZM202.835 75.6613C202.769 75.5959 202.684 75.5515 202.593 75.5339C202.501 75.5163 202.407 75.526 202.321 75.5622C202.262 75.5833 202.209 75.6173 202.165 75.6613C202.121 75.7054 202.087 75.7586 202.066 75.8171C202.042 75.8737 202.029 75.9348 202.028 75.9965C202.028 76.1217 202.078 76.2416 202.166 76.3303C202.255 76.4188 202.375 76.4685 202.5 76.4685C202.625 76.4685 202.745 76.4188 202.834 76.3303C202.922 76.2416 202.972 76.1217 202.972 75.9965C202.971 75.9348 202.959 75.8737 202.934 75.8171C202.91 75.7598 202.877 75.7073 202.835 75.6613ZM209.014 77.4125C208.984 77.4176 208.956 77.4273 208.929 77.4409L208.844 77.4834L208.773 77.54C208.73 77.585 208.696 77.6379 208.674 77.6958C208.649 77.7556 208.636 77.8198 208.636 77.8846C208.636 77.9466 208.648 78.0082 208.671 78.0658C208.695 78.1234 208.73 78.1757 208.773 78.2197C208.832 78.2751 208.904 78.3147 208.982 78.3346C209.06 78.3544 209.142 78.3538 209.22 78.333C209.298 78.3122 209.369 78.2716 209.427 78.2156C209.485 78.1593 209.527 78.0891 209.55 78.012C209.573 77.9346 209.576 77.8528 209.559 77.7741C209.541 77.6955 209.503 77.6224 209.45 77.5623C209.396 77.5022 209.328 77.4569 209.251 77.4308C209.175 77.4044 209.093 77.3981 209.014 77.4125ZM213.692 72.8292C213.648 72.7848 213.596 72.7499 213.538 72.7259C213.481 72.702 213.419 72.6894 213.357 72.6894C213.294 72.6894 213.233 72.702 213.175 72.7259C213.117 72.7499 213.065 72.7848 213.021 72.8292C212.978 72.8732 212.943 72.9255 212.92 72.983C212.896 73.0406 212.884 73.1023 212.885 73.1643C212.886 73.2892 212.935 73.4091 213.021 73.4994C213.066 73.5432 213.118 73.5778 213.175 73.6014C213.233 73.6247 213.295 73.6366 213.357 73.6363C213.482 73.6363 213.602 73.5866 213.69 73.4982C213.779 73.4094 213.829 73.2895 213.829 73.1643C213.829 73.1023 213.817 73.0406 213.794 72.983C213.77 72.9255 213.735 72.8732 213.692 72.8292ZM211.804 67.6369L211.733 67.5802C211.706 67.5623 211.678 67.5481 211.648 67.5377L211.563 67.5C211.486 67.4839 211.407 67.4874 211.332 67.5094C211.257 67.5318 211.189 67.5724 211.133 67.6274C211.064 67.6929 211.015 67.7782 210.995 67.8716C210.974 67.9651 210.983 68.0626 211.019 68.1514C211.055 68.2401 211.118 68.3153 211.198 68.3679C211.278 68.4201 211.373 68.4465 211.469 68.444H211.563L211.648 68.4157C211.678 68.4053 211.706 68.3912 211.733 68.3732L211.804 68.3166C211.849 68.2713 211.884 68.2175 211.907 68.1583C211.931 68.0991 211.942 68.0356 211.941 67.972C211.94 67.9103 211.927 67.8493 211.903 67.7926C211.879 67.7354 211.845 67.6828 211.804 67.6369ZM204.997 67.1648C204.954 67.2098 204.92 67.2627 204.898 67.3206C204.874 67.3772 204.861 67.4383 204.86 67.5C204.86 67.562 204.872 67.6236 204.895 67.6812C204.919 67.7388 204.953 67.7911 204.997 67.8351C205.043 67.877 205.096 67.9103 205.153 67.9342C205.209 67.9591 205.27 67.972 205.332 67.972C205.394 67.972 205.455 67.9591 205.512 67.9342C205.569 67.9103 205.621 67.877 205.667 67.8351C205.756 67.7464 205.806 67.6255 205.806 67.5C205.806 67.3744 205.756 67.2536 205.667 67.1648C205.579 67.0761 205.458 67.0261 205.332 67.0261C205.207 67.0261 205.086 67.0761 204.997 67.1648Z" fill="#2BAB9F"/>
<path d="M268.741 154.825C268.569 154.825 268.404 154.893 268.282 155.015C268.161 155.137 268.092 155.302 268.092 155.474V160.017C268.092 160.19 268.161 160.355 268.282 160.476C268.404 160.598 268.569 160.666 268.741 160.666C268.913 160.666 269.079 160.598 269.2 160.476C269.322 160.355 269.39 160.19 269.39 160.017V155.474C269.39 155.302 269.322 155.137 269.2 155.015C269.079 154.893 268.913 154.825 268.741 154.825ZM268.741 128.215C268.569 128.215 268.404 128.283 268.282 128.405C268.161 128.526 268.092 128.691 268.092 128.864V133.407C268.092 133.579 268.161 133.744 268.282 133.866C268.404 133.988 268.569 134.056 268.741 134.056C268.913 134.056 269.079 133.988 269.2 133.866C269.322 133.744 269.39 133.579 269.39 133.407V128.864C269.39 128.691 269.322 128.526 269.2 128.405C269.079 128.283 268.913 128.215 268.741 128.215ZM284.318 143.792H279.775C279.603 143.792 279.438 143.86 279.316 143.982C279.194 144.103 279.126 144.268 279.126 144.441C279.126 144.613 279.194 144.778 279.316 144.899C279.438 145.021 279.603 145.089 279.775 145.089H284.318C284.49 145.089 284.656 145.021 284.777 144.899C284.899 144.778 284.967 144.613 284.967 144.441C284.967 144.268 284.899 144.103 284.777 143.982C284.656 143.86 284.49 143.792 284.318 143.792ZM258.357 144.441C258.357 144.268 258.288 144.103 258.167 143.982C258.045 143.86 257.88 143.792 257.708 143.792H253.164C252.992 143.792 252.827 143.86 252.706 143.982C252.584 144.103 252.515 144.268 252.515 144.441C252.515 144.613 252.584 144.778 252.706 144.899C252.827 145.021 252.992 145.089 253.164 145.089H257.708C257.88 145.089 258.045 145.021 258.167 144.899C258.288 144.778 258.357 144.613 258.357 144.441ZM276.53 137.301C276.615 137.302 276.7 137.285 276.779 137.253C276.858 137.221 276.93 137.173 276.99 137.113L280.236 133.868C280.358 133.745 280.426 133.58 280.426 133.407C280.426 133.234 280.358 133.068 280.236 132.946C280.113 132.824 279.948 132.755 279.775 132.755C279.602 132.755 279.436 132.824 279.314 132.946L276.101 136.159C276.04 136.219 275.992 136.291 275.959 136.37C275.926 136.449 275.909 136.534 275.909 136.62C275.909 136.705 275.926 136.79 275.959 136.869C275.992 136.948 276.04 137.02 276.101 137.08C276.211 137.206 276.364 137.285 276.53 137.301ZM260.479 151.781L257.266 154.994C257.206 155.054 257.157 155.126 257.124 155.205C257.091 155.284 257.074 155.369 257.074 155.455C257.074 155.54 257.091 155.625 257.124 155.704C257.157 155.783 257.206 155.855 257.266 155.916C257.327 155.976 257.398 156.025 257.477 156.057C257.557 156.09 257.641 156.107 257.727 156.107C257.813 156.107 257.898 156.09 257.977 156.057C258.056 156.025 258.128 155.976 258.188 155.916L261.433 152.67C261.494 152.61 261.542 152.538 261.574 152.459C261.607 152.38 261.624 152.295 261.624 152.209C261.624 152.124 261.607 152.039 261.574 151.96C261.542 151.881 261.494 151.809 261.433 151.749C261.373 151.688 261.301 151.64 261.222 151.607C261.143 151.575 261.058 151.558 260.972 151.558C260.887 151.558 260.802 151.575 260.723 151.607C260.644 151.64 260.572 151.688 260.511 151.749L260.479 151.781ZM277.004 151.781C276.943 151.721 276.871 151.673 276.792 151.64C276.713 151.607 276.628 151.59 276.543 151.59C276.457 151.59 276.372 151.607 276.293 151.64C276.214 151.673 276.142 151.721 276.082 151.781C276.022 151.842 275.973 151.913 275.941 151.993C275.908 152.072 275.891 152.156 275.891 152.242C275.891 152.327 275.908 152.412 275.941 152.491C275.973 152.57 276.022 152.642 276.082 152.703L279.295 155.948C279.355 156.009 279.427 156.057 279.506 156.09C279.585 156.123 279.67 156.14 279.756 156.14C279.841 156.14 279.926 156.123 280.005 156.09C280.084 156.057 280.156 156.009 280.216 155.948C280.277 155.888 280.325 155.816 280.358 155.737C280.391 155.658 280.408 155.573 280.408 155.487C280.408 155.401 280.391 155.317 280.358 155.238C280.325 155.158 280.277 155.087 280.216 155.026L277.004 151.781ZM258.188 132.966C258.066 132.843 257.9 132.775 257.727 132.775C257.554 132.775 257.388 132.843 257.266 132.966C257.144 133.088 257.075 133.253 257.075 133.426C257.075 133.599 257.144 133.765 257.266 133.887L260.479 137.132C260.543 137.19 260.618 137.235 260.699 137.264C260.78 137.293 260.867 137.306 260.953 137.301C261.038 137.302 261.123 137.285 261.202 137.253C261.281 137.221 261.353 137.173 261.414 137.113C261.475 137.053 261.523 136.981 261.556 136.902C261.589 136.823 261.605 136.738 261.605 136.652C261.605 136.566 261.589 136.482 261.556 136.403C261.523 136.323 261.475 136.251 261.414 136.191L258.188 132.966Z" fill="#2BAB9F"/>
<path d="M268.741 156.123C275.194 156.123 280.424 150.893 280.424 144.441C280.424 137.988 275.194 132.758 268.741 132.758C262.289 132.758 257.059 137.988 257.059 144.441C257.059 150.893 262.289 156.123 268.741 156.123Z" fill="#1AB4A6"/>
<path d="M273.934 144.441C275.009 144.441 275.881 143.569 275.881 142.493C275.881 141.418 275.009 140.546 273.934 140.546C272.858 140.546 271.986 141.418 271.986 142.493C271.986 143.569 272.858 144.441 273.934 144.441Z" fill="#159A8E"/>
<path d="M274.582 150.282C275.658 150.282 276.53 149.41 276.53 148.335C276.53 147.259 275.658 146.388 274.582 146.388C273.507 146.388 272.635 147.259 272.635 148.335C272.635 149.41 273.507 150.282 274.582 150.282Z" fill="#159A8E"/>
<path d="M266.145 153.527C267.22 153.527 268.092 152.655 268.092 151.58C268.092 150.505 267.22 149.633 266.145 149.633C265.07 149.633 264.198 150.505 264.198 151.58C264.198 152.655 265.07 153.527 266.145 153.527Z" fill="#159A8E"/>
<path d="M267.443 147.686C268.518 147.686 269.39 146.814 269.39 145.739C269.39 144.663 268.518 143.792 267.443 143.792C266.368 143.792 265.496 144.663 265.496 145.739C265.496 146.814 266.368 147.686 267.443 147.686Z" fill="#159A8E"/>
<path d="M262.9 142.493C263.975 142.493 264.847 141.622 264.847 140.546C264.847 139.471 263.975 138.599 262.9 138.599C261.824 138.599 260.953 139.471 260.953 140.546C260.953 141.622 261.824 142.493 262.9 142.493Z" fill="#159A8E"/>
<path d="M268.741 138.599C269.817 138.599 270.689 137.727 270.689 136.652C270.689 135.577 269.817 134.705 268.741 134.705C267.666 134.705 266.794 135.577 266.794 136.652C266.794 137.727 267.666 138.599 268.741 138.599Z" fill="#159A8E"/>
<path d="M268.741 163.262C269.817 163.262 270.689 162.391 270.689 161.316C270.689 160.24 269.817 159.369 268.741 159.369C267.666 159.369 266.794 160.24 266.794 161.316C266.794 162.391 267.666 163.262 268.741 163.262Z" fill="#159A8E"/>
<path d="M268.741 129.512C269.817 129.512 270.689 128.641 270.689 127.566C270.689 126.49 269.817 125.619 268.741 125.619C267.666 125.619 266.794 126.49 266.794 127.566C266.794 128.641 267.666 129.512 268.741 129.512Z" fill="#159A8E"/>
<path d="M285.616 146.388C286.692 146.388 287.563 145.516 287.563 144.441C287.563 143.365 286.692 142.493 285.616 142.493C284.541 142.493 283.669 143.365 283.669 144.441C283.669 145.516 284.541 146.388 285.616 146.388Z" fill="#159A8E"/>
<path d="M251.866 146.388C252.942 146.388 253.813 145.516 253.813 144.441C253.813 143.365 252.942 142.493 251.866 142.493C250.791 142.493 249.919 143.365 249.919 144.441C249.919 145.516 250.791 146.388 251.866 146.388Z" fill="#159A8E"/>
<path d="M279.295 131.129C279.023 131.401 278.838 131.748 278.764 132.126C278.689 132.503 278.728 132.894 278.876 133.25C279.023 133.605 279.273 133.909 279.593 134.123C279.913 134.336 280.289 134.45 280.674 134.45C281.059 134.45 281.435 134.336 281.755 134.123C282.075 133.909 282.325 133.605 282.472 133.25C282.62 132.894 282.659 132.503 282.584 132.126C282.509 131.748 282.325 131.401 282.053 131.129C281.872 130.947 281.657 130.803 281.421 130.705C281.184 130.607 280.93 130.556 280.674 130.556C280.418 130.556 280.164 130.607 279.927 130.705C279.69 130.803 279.476 130.947 279.295 131.129ZM255.429 154.994C255.158 155.267 254.973 155.613 254.899 155.991C254.824 156.368 254.863 156.76 255.011 157.115C255.158 157.47 255.408 157.774 255.728 157.988C256.048 158.201 256.424 158.316 256.809 158.316C257.194 158.316 257.57 158.201 257.89 157.988C258.21 157.774 258.459 157.47 258.607 157.115C258.754 156.76 258.793 156.368 258.719 155.991C258.644 155.613 258.46 155.267 258.188 154.994C257.815 154.641 257.322 154.444 256.809 154.444C256.295 154.444 255.802 154.641 255.429 154.994ZM255.429 131.129C255.248 131.31 255.104 131.525 255.006 131.761C254.907 131.998 254.857 132.252 254.857 132.508C254.857 132.764 254.907 133.018 255.006 133.255C255.104 133.491 255.248 133.706 255.429 133.887C255.795 134.253 256.291 134.458 256.809 134.458C257.326 134.458 257.822 134.253 258.188 133.887C258.554 133.522 258.759 133.025 258.759 132.508C258.759 131.991 258.554 131.495 258.188 131.129C257.815 130.776 257.322 130.579 256.809 130.579C256.295 130.579 255.802 130.776 255.429 131.129ZM279.295 154.994C279.113 155.175 278.969 155.39 278.871 155.626C278.773 155.863 278.722 156.117 278.722 156.373C278.722 156.63 278.773 156.883 278.871 157.12C278.969 157.357 279.113 157.571 279.295 157.752C279.567 158.024 279.914 158.209 280.292 158.283C280.669 158.358 281.06 158.319 281.416 158.172C281.771 158.024 282.075 157.774 282.289 157.454C282.502 157.134 282.616 156.758 282.616 156.373C282.616 155.988 282.502 155.612 282.289 155.292C282.075 154.972 281.771 154.723 281.416 154.575C281.06 154.427 280.669 154.388 280.292 154.463C279.914 154.538 279.567 154.722 279.295 154.994Z" fill="#159A8E"/>
<path d="M269.202 140.735L269.105 140.657C269.069 140.632 269.029 140.612 268.988 140.598L268.871 140.546C268.776 140.527 268.677 140.529 268.583 140.553C268.488 140.577 268.4 140.621 268.326 140.684C268.251 140.746 268.191 140.824 268.151 140.913C268.11 141.001 268.09 141.098 268.092 141.195C268.089 141.239 268.089 141.282 268.092 141.325C268.099 141.366 268.113 141.405 268.131 141.442C268.145 141.483 268.165 141.523 268.19 141.559C268.214 141.593 268.24 141.625 268.267 141.656C268.329 141.715 268.402 141.762 268.482 141.793C268.563 141.831 268.652 141.849 268.741 141.844H268.871L268.988 141.805C269.029 141.791 269.069 141.772 269.105 141.747L269.202 141.669C269.324 141.541 269.391 141.372 269.39 141.195C269.392 141.11 269.375 141.026 269.338 140.949C269.309 140.869 269.262 140.796 269.202 140.735ZM271.798 145.927L271.701 145.849L271.584 145.791C271.545 145.771 271.504 145.758 271.461 145.752C271.377 145.739 271.291 145.739 271.207 145.752C271.167 145.759 271.128 145.772 271.091 145.791L270.974 145.849L270.877 145.927C270.819 145.99 270.773 146.062 270.74 146.141C270.707 146.219 270.689 146.303 270.688 146.388C270.688 146.473 270.704 146.558 270.737 146.637C270.769 146.716 270.816 146.788 270.877 146.849C271.001 146.967 271.166 147.034 271.337 147.037H271.461C271.504 147.031 271.545 147.018 271.584 146.998L271.701 146.939L271.798 146.861C271.86 146.799 271.909 146.725 271.941 146.644C271.973 146.563 271.989 146.475 271.986 146.388C271.985 146.303 271.968 146.219 271.934 146.141C271.902 146.062 271.856 145.99 271.798 145.927ZM264.146 146.141C264.132 146.1 264.112 146.06 264.088 146.024L264.01 145.927C263.918 145.837 263.803 145.776 263.677 145.752C263.551 145.727 263.421 145.741 263.302 145.791C263.223 145.821 263.15 145.868 263.088 145.927L263.01 146.024C262.986 146.06 262.966 146.1 262.952 146.141C262.933 146.178 262.92 146.217 262.913 146.258C262.91 146.301 262.91 146.344 262.913 146.388C262.914 146.473 262.932 146.556 262.965 146.634C262.998 146.713 263.044 146.785 263.101 146.849C263.163 146.908 263.236 146.954 263.315 146.985C263.393 147.019 263.477 147.037 263.562 147.037C263.647 147.037 263.731 147.019 263.809 146.985C263.887 146.952 263.96 146.906 264.023 146.849C264.136 146.722 264.199 146.558 264.198 146.388C264.201 146.344 264.201 146.301 264.198 146.258C264.187 146.216 264.169 146.177 264.146 146.141ZM261.2 145.038C261.279 145.007 261.352 144.96 261.414 144.901C261.532 144.777 261.599 144.612 261.602 144.441C261.601 144.356 261.583 144.272 261.55 144.194C261.521 144.113 261.474 144.04 261.414 143.98C261.353 143.919 261.28 143.873 261.2 143.843C261.042 143.778 260.864 143.778 260.706 143.843C260.627 143.876 260.555 143.922 260.492 143.98C260.433 144.042 260.387 144.114 260.356 144.194C260.322 144.272 260.305 144.356 260.304 144.441C260.306 144.612 260.373 144.777 260.492 144.901C260.555 144.959 260.627 145.005 260.706 145.038C260.784 145.072 260.868 145.09 260.953 145.09C261.038 145.09 261.122 145.072 261.2 145.038ZM262.063 148.523C261.971 148.433 261.856 148.372 261.729 148.348C261.604 148.323 261.473 148.337 261.355 148.387C261.275 148.416 261.201 148.462 261.141 148.523C261.08 148.583 261.034 148.657 261.005 148.737C260.971 148.815 260.954 148.899 260.953 148.984C260.953 149.156 261.021 149.321 261.143 149.443C261.265 149.565 261.43 149.633 261.602 149.633C261.774 149.633 261.939 149.565 262.061 149.443C262.183 149.321 262.251 149.156 262.251 148.984C262.25 148.899 262.232 148.815 262.199 148.737C262.166 148.659 262.12 148.586 262.063 148.523ZM270.559 150.931C270.518 150.938 270.479 150.951 270.442 150.97L270.325 151.028L270.228 151.106C270.168 151.168 270.122 151.241 270.091 151.32C270.056 151.402 270.039 151.491 270.039 151.58C270.039 151.665 270.055 151.75 270.087 151.829C270.12 151.908 270.167 151.98 270.228 152.041C270.308 152.117 270.407 152.171 270.514 152.199C270.622 152.226 270.734 152.225 270.841 152.197C270.949 152.168 271.047 152.112 271.126 152.035C271.206 151.958 271.264 151.861 271.296 151.755C271.328 151.649 271.331 151.536 271.307 151.428C271.283 151.32 271.232 151.22 271.158 151.137C271.084 151.054 270.99 150.992 270.885 150.956C270.78 150.92 270.668 150.911 270.559 150.931ZM276.99 144.629C276.93 144.568 276.859 144.52 276.779 144.487C276.7 144.454 276.615 144.437 276.53 144.437C276.444 144.437 276.359 144.454 276.28 144.487C276.201 144.52 276.129 144.568 276.069 144.629C276.009 144.689 275.961 144.761 275.929 144.841C275.897 144.92 275.88 145.004 275.881 145.089C275.883 145.261 275.95 145.426 276.069 145.55C276.129 145.611 276.202 145.658 276.28 145.691C276.359 145.723 276.444 145.739 276.53 145.739C276.702 145.739 276.867 145.67 276.989 145.549C277.11 145.427 277.179 145.262 277.179 145.089C277.179 145.004 277.163 144.92 277.13 144.841C277.098 144.761 277.051 144.689 276.99 144.629ZM274.394 137.49L274.297 137.411C274.261 137.387 274.222 137.367 274.18 137.353L274.063 137.301C273.958 137.279 273.849 137.284 273.746 137.314C273.643 137.345 273.549 137.4 273.473 137.476C273.377 137.566 273.31 137.683 273.282 137.812C273.254 137.941 273.265 138.075 273.316 138.197C273.366 138.319 273.451 138.423 273.562 138.494C273.672 138.566 273.802 138.603 273.934 138.599H274.063L274.18 138.56C274.222 138.546 274.261 138.526 274.297 138.502L274.394 138.424C274.456 138.362 274.505 138.288 274.537 138.206C274.569 138.125 274.585 138.038 274.582 137.95C274.582 137.865 274.564 137.782 274.531 137.703C274.498 137.625 274.452 137.552 274.394 137.49ZM265.035 136.84C264.976 136.902 264.93 136.975 264.899 137.055C264.866 137.133 264.848 137.216 264.847 137.301C264.846 137.387 264.863 137.471 264.895 137.55C264.928 137.629 264.975 137.701 265.035 137.762C265.098 137.819 265.171 137.865 265.25 137.898C265.327 137.933 265.411 137.95 265.496 137.95C265.581 137.95 265.665 137.933 265.743 137.898C265.821 137.865 265.894 137.819 265.957 137.762C266.079 137.64 266.148 137.474 266.148 137.301C266.148 137.128 266.079 136.962 265.957 136.84C265.835 136.718 265.669 136.649 265.496 136.649C265.323 136.649 265.158 136.718 265.035 136.84Z" fill="#2BAB9F"/>
<path d="M96.1578 211.883C102.018 211.883 106.769 207.086 106.769 201.169C106.769 195.252 102.018 190.454 96.1578 190.454C90.2971 190.454 85.5463 195.252 85.5463 201.169C85.5463 207.086 90.2971 211.883 96.1578 211.883Z" fill="#159A8E"/>
<path d="M97.0804 36.54C86.4394 36.54 76.2341 40.8084 68.7097 48.4058C61.1852 56.0033 56.9581 66.3076 56.9581 77.0519C56.9581 99.4261 97.0804 184.119 97.0804 184.119C97.0804 184.119 137.203 99.4261 137.203 77.0519C137.203 66.3076 132.976 56.0033 125.451 48.4058C117.927 40.8084 107.722 36.54 97.0804 36.54ZM97.0804 96.3434C93.3017 96.3434 89.6076 95.2121 86.4658 93.0921C83.3237 90.9724 80.8751 87.9596 79.4288 84.4345C77.9828 80.9094 77.6046 77.0305 78.3416 73.2883C79.0789 69.5464 80.8984 66.1088 83.5707 63.411C86.2427 60.7129 89.6469 58.8757 93.353 58.1312C97.0594 57.3869 100.901 57.769 104.392 59.2291C107.883 60.6892 110.867 63.1617 112.966 66.3344C115.066 69.5067 116.186 73.2367 116.186 77.0519C116.186 82.1684 114.174 87.0753 110.591 90.6932C107.007 94.3109 102.148 96.3434 97.0804 96.3434Z" fill="#159A8E"/>
<path d="M137.251 77.0519C137.251 99.4261 97.1285 184.119 97.1285 184.119V96.3434C102.196 96.3434 107.055 94.3109 110.638 90.6932C114.222 87.0753 116.234 82.1684 116.234 77.0519C116.234 73.2367 115.114 69.5067 113.014 66.3344C110.915 63.1617 107.931 60.6892 104.44 59.2291C102.111 58.2548 99.6256 57.7608 97.1285 57.7605V36.54C107.77 36.54 117.975 40.8084 125.499 48.4058C133.024 56.0033 137.251 66.3076 137.251 77.0519Z" fill="#2BAB9F"/>
<path d="M245.734 126.762H244.476V91.9549C244.476 86.6118 242.374 81.4878 238.632 77.7097C234.891 73.9319 229.816 71.8093 224.525 71.8093H151.49C146.199 71.8093 141.124 73.9319 137.382 77.7097C133.641 81.4878 131.538 86.6118 131.538 91.9545V282.908C131.538 288.252 133.641 293.376 137.382 297.154C141.124 300.931 146.199 303.054 151.49 303.054H224.524C229.816 303.054 234.891 300.931 238.632 297.154C242.374 293.376 244.476 288.252 244.476 282.909V151.538H245.734V126.762Z" fill="#3F3D56"/>
<path d="M240.23 92.0951V282.768C240.23 286.399 238.93 289.909 236.568 292.647C234.207 295.386 230.944 297.17 227.382 297.67C226.701 297.766 226.016 297.814 225.33 297.813H151.942C151.255 297.814 150.57 297.766 149.89 297.67C146.328 297.17 143.066 295.385 140.705 292.647C138.344 289.908 137.044 286.399 137.045 282.768V92.0951C137.045 88.1049 138.615 84.2784 141.409 81.4569C144.203 78.6354 147.993 77.05 151.945 77.05H160.848C160.408 78.1354 160.241 79.3133 160.359 80.4795C160.477 81.6457 160.877 82.7647 161.525 83.7377C162.173 84.7107 163.048 85.5078 164.073 86.0589C165.098 86.6099 166.241 86.8975 167.402 86.8969H209.243C210.404 86.8975 211.547 86.6096 212.572 86.0585C213.597 85.5075 214.472 84.7104 215.119 83.7371C215.766 82.7641 216.167 81.6451 216.284 80.4789C216.402 79.3126 216.234 78.1351 215.795 77.05H225.33C229.282 77.05 233.071 78.6354 235.866 81.4569C238.66 84.2784 240.23 88.1049 240.23 92.0951Z" fill="white"/>
<path d="M240.23 234.44V282.768C240.23 286.4 238.93 289.909 236.568 292.648C234.207 295.387 230.944 297.171 227.382 297.67H149.89C146.328 297.17 143.066 295.385 140.705 292.647C138.344 289.908 137.044 286.399 137.045 282.768V234.44H240.23Z" fill="#159A8E"/>
<path d="M220.469 203.303C220.518 203.244 220.517 203.161 220.467 203.119C220.416 203.077 220.336 203.09 220.287 203.15C220.238 203.209 220.239 203.292 220.289 203.334C220.339 203.377 220.419 203.363 220.469 203.303Z" fill="#F2F2F2"/>
<path d="M161.414 172.851C161.002 172.851 160.607 173.017 160.315 173.311C160.024 173.605 159.86 174.003 159.86 174.419V200.683C159.86 201.099 160.024 201.497 160.315 201.792C160.607 202.086 161.002 202.251 161.414 202.252H266.272C266.684 202.251 267.079 202.086 267.37 201.792C267.661 201.497 267.825 201.099 267.826 200.683V174.419C267.825 174.003 267.661 173.605 267.37 173.311C267.079 173.017 266.684 172.851 266.272 172.851H161.414Z" fill="#E6E6E6"/>
<path d="M161.608 200.487H266.078V174.615H161.608V200.487Z" fill="white"/>
<path d="M175.006 195.786C179.511 195.786 183.162 192.099 183.162 187.551C183.162 183.003 179.511 179.317 175.006 179.317C170.502 179.317 166.851 183.003 166.851 187.551C166.851 192.099 170.502 195.786 175.006 195.786Z" fill="#2BAB9F"/>
<path d="M193.842 182.061C193.482 182.062 193.137 182.207 192.882 182.464C192.628 182.721 192.485 183.07 192.485 183.434C192.485 183.797 192.628 184.146 192.882 184.403C193.137 184.661 193.482 184.806 193.842 184.806H257.922C258.283 184.806 258.628 184.662 258.883 184.404C259.138 184.147 259.281 183.798 259.281 183.434C259.281 183.07 259.138 182.721 258.883 182.463C258.628 182.206 258.283 182.061 257.922 182.061H193.842Z" fill="#E6E6E6"/>
<path d="M193.842 190.296C193.482 190.297 193.137 190.442 192.882 190.699C192.628 190.956 192.485 191.305 192.485 191.669C192.485 192.032 192.628 192.381 192.882 192.638C193.137 192.896 193.482 193.041 193.842 193.041H257.922C258.283 193.041 258.628 192.896 258.883 192.639C259.138 192.382 259.281 192.033 259.281 191.669C259.281 191.304 259.138 190.955 258.883 190.698C258.628 190.441 258.283 190.296 257.922 190.296H193.842Z" fill="#E6E6E6"/>
<path d="M149.891 102.577C149.587 102.578 149.296 102.7 149.081 102.917C148.866 103.134 148.745 103.428 148.745 103.735V123.117C148.745 123.423 148.866 123.718 149.081 123.935C149.296 124.152 149.587 124.274 149.891 124.274H227.273C227.577 124.274 227.868 124.152 228.083 123.935C228.298 123.718 228.419 123.423 228.419 123.117V103.735C228.419 103.428 228.298 103.134 228.083 102.917C227.868 102.7 227.577 102.578 227.273 102.577H149.891Z" fill="white"/>
<path d="M149.891 102.577C149.587 102.578 149.296 102.7 149.081 102.917C148.866 103.134 148.745 103.428 148.745 103.735V123.117C148.745 123.423 148.866 123.718 149.081 123.935C149.296 124.152 149.587 124.274 149.891 124.274H227.273C227.577 124.274 227.868 124.152 228.083 123.935C228.298 123.718 228.419 123.423 228.419 123.117V103.735C228.419 103.428 228.298 103.134 228.083 102.917C227.868 102.7 227.577 102.578 227.273 102.577H149.891Z" fill="#E6E6E6"/>
<path d="M150.034 122.972H227.13V103.88H150.034V122.972Z" fill="white"/>
<path d="M159.922 119.503C163.246 119.503 165.941 116.782 165.941 113.426C165.941 110.069 163.246 107.349 159.922 107.349C156.598 107.349 153.903 110.069 153.903 113.426C153.903 116.782 156.598 119.503 159.922 119.503Z" fill="#2BAB9F"/>
<path d="M173.822 109.374C173.556 109.374 173.301 109.481 173.113 109.671C172.925 109.861 172.819 110.118 172.819 110.387C172.819 110.656 172.925 110.913 173.113 111.103C173.301 111.293 173.556 111.4 173.822 111.4H221.111C221.377 111.4 221.632 111.293 221.82 111.103C222.009 110.913 222.114 110.656 222.114 110.387C222.114 110.118 222.009 109.861 221.82 109.671C221.632 109.481 221.377 109.374 221.111 109.374H173.822Z" fill="#E6E6E6"/>
<path d="M173.822 115.451C173.557 115.452 173.302 115.559 173.114 115.748C172.927 115.939 172.821 116.196 172.821 116.464C172.821 116.732 172.927 116.99 173.114 117.18C173.302 117.37 173.557 117.476 173.822 117.477H221.111C221.243 117.477 221.374 117.451 221.496 117.4C221.617 117.35 221.728 117.275 221.822 117.181C221.915 117.087 221.989 116.975 222.039 116.852C222.09 116.729 222.116 116.597 222.116 116.464C222.116 116.331 222.09 116.199 222.039 116.076C221.989 115.953 221.915 115.841 221.822 115.747C221.728 115.653 221.617 115.579 221.496 115.528C221.374 115.477 221.243 115.451 221.111 115.451H173.822Z" fill="#E6E6E6"/>
<path d="M149.891 137.211C149.587 137.212 149.296 137.334 149.081 137.551C148.866 137.768 148.745 138.062 148.745 138.369V157.75C148.745 158.057 148.866 158.352 149.081 158.568C149.296 158.785 149.587 158.908 149.891 158.908H227.273C227.577 158.908 227.868 158.785 228.083 158.568C228.298 158.352 228.419 158.057 228.419 157.75V138.369C228.419 138.062 228.298 137.768 228.083 137.551C227.868 137.334 227.577 137.212 227.273 137.211H149.891Z" fill="white"/>
<path d="M149.891 137.211C149.587 137.212 149.296 137.334 149.081 137.551C148.866 137.768 148.745 138.062 148.745 138.369V157.75C148.745 158.057 148.866 158.352 149.081 158.568C149.296 158.785 149.587 158.908 149.891 158.908H227.273C227.577 158.908 227.868 158.785 228.083 158.568C228.298 158.352 228.419 158.057 228.419 157.75V138.369C228.419 138.062 228.298 137.768 228.083 137.551C227.868 137.334 227.577 137.212 227.273 137.211H149.891Z" fill="#E6E6E6"/>
<path d="M150.034 157.605H227.13V138.513H150.034V157.605Z" fill="white"/>
<path d="M159.922 154.136C163.246 154.136 165.941 151.416 165.941 148.059C165.941 144.703 163.246 141.982 159.922 141.982C156.598 141.982 153.903 144.703 153.903 148.059C153.903 151.416 156.598 154.136 159.922 154.136Z" fill="#2BAB9F"/>
<path d="M173.822 144.008C173.556 144.008 173.301 144.115 173.113 144.305C172.925 144.495 172.819 144.752 172.819 145.021C172.819 145.29 172.925 145.547 173.113 145.737C173.301 145.927 173.556 146.034 173.822 146.034H221.111C221.377 146.034 221.632 145.927 221.82 145.737C222.009 145.547 222.114 145.29 222.114 145.021C222.114 144.752 222.009 144.495 221.82 144.305C221.632 144.115 221.377 144.008 221.111 144.008H173.822Z" fill="#E6E6E6"/>
<path d="M173.822 150.085C173.557 150.086 173.302 150.192 173.114 150.382C172.927 150.572 172.821 150.83 172.821 151.098C172.821 151.366 172.927 151.624 173.114 151.813C173.302 152.003 173.557 152.11 173.822 152.111H221.111C221.377 152.111 221.633 152.004 221.82 151.814C222.009 151.624 222.114 151.366 222.114 151.098C222.114 150.829 222.009 150.572 221.82 150.382C221.633 150.192 221.377 150.085 221.111 150.085H173.822Z" fill="#E6E6E6"/>
<path d="M114.091 206.686V266.172L115.583 304.573H127.887L127.142 267.677L131.989 232.288L140.192 262.03L145.412 303.82L160.327 303.067L152.497 260.148L150.259 206.686H114.091Z" fill="#3A3A3A"/>
<path d="M117.447 302.69V306.455C117.447 306.455 108.871 314.739 115.956 314.739C123.04 314.739 123.413 312.856 123.413 312.856C123.413 312.856 126.023 312.856 126.023 312.103V303.067L117.447 302.69Z" fill="#2F2E41"/>
<path d="M156.971 302.69V306.455C156.971 306.455 165.547 314.739 158.462 314.739C151.378 314.739 151.005 312.856 151.005 312.856C151.005 312.856 148.395 312.856 148.395 312.103V303.067L156.971 302.69Z" fill="#2F2E41"/>
<path d="M129.379 156.237C134.321 156.237 138.327 152.192 138.327 147.201C138.327 142.211 134.321 138.166 129.379 138.166C124.436 138.166 120.43 142.211 120.43 147.201C120.43 152.192 124.436 156.237 129.379 156.237Z" fill="#FFC9A3"/>
<path d="M122.294 150.213L122.667 163.767L134.599 163.39V152.849L122.294 150.213Z" fill="#FFC9A3"/>
<path d="M127.887 162.261L122.294 158.12L120.057 208.945L146.531 208.192L140.192 163.767L134.599 158.355L127.887 162.261Z" fill="#FC8019"/>
<path d="M120.43 161.131L122.467 156.486L123.04 164.896C123.04 164.896 127.887 180.709 127.514 194.639C127.142 208.569 129.379 241.323 126.396 241.699C123.413 242.076 110.735 242.829 110.735 240.194C110.735 237.558 109.99 167.532 109.99 167.532L120.43 161.131Z" fill="#3A3A3A"/>
<path d="M134.599 156.99L139.073 161.884L150.259 166.026C150.259 166.026 150.259 214.216 152.497 225.511C154.734 236.805 158.835 237.935 153.615 238.311C148.395 238.688 148.768 236.805 148.768 236.805C148.768 236.805 152.497 217.981 147.649 214.216C142.802 210.451 133.48 188.615 134.226 176.567C134.972 164.52 133.853 156.99 134.599 156.99Z" fill="#3A3A3A"/>
<path d="M107.007 226.264L107.752 229.652C107.752 229.652 108.125 243.959 113.346 242.076C118.566 240.194 112.973 228.523 112.973 228.523V226.264H107.007Z" fill="#FFC9A3"/>
<path d="M153.429 217.793L149.141 223.252L147.649 218.358L148.954 212.898L153.429 217.793Z" fill="#FFC9A3"/>
<path d="M145.412 165.649L148.954 165.542C149.577 165.49 150.199 165.66 150.711 166.024C151.222 166.388 151.59 166.921 151.751 167.532C152.496 169.79 155.106 192.756 155.106 192.756C155.106 192.756 157.344 196.521 156.598 202.168L153.988 223.252L146.531 214.969L147.649 196.145L145.412 165.649Z" fill="#3A3A3A"/>
<path d="M111.854 167.532L110.864 166.996C110.864 166.996 105.515 169.038 105.888 170.544C106.261 172.049 102.905 224.758 104.024 226.64C105.142 228.523 114.091 227.016 114.091 227.016L111.854 167.532Z" fill="#3A3A3A"/>
<path d="M137.877 141.59C137.877 141.59 140.862 137.503 135.771 136.336C135.771 136.336 131.501 132.821 127.287 135.49C127.287 135.49 124.128 134.198 122.84 136.478C122.84 136.478 122.547 135.2 124.069 134.601C124.069 134.601 120.909 133.31 120.323 137.341C120.323 137.341 118.333 141.164 119.209 145C120.086 148.837 120.496 149.309 120.496 149.309C120.496 149.309 119.294 141.36 124.97 141.79C130.646 142.22 137.438 139.672 137.261 144.176C137.085 148.68 137.845 150.028 137.845 150.028C137.845 150.028 142.996 144.203 137.877 141.59Z" fill="#2F2E41"/>
<path d="M260.874 63.2518C260.749 63.2518 260.629 63.3015 260.54 63.3899C260.452 63.4787 260.402 63.5986 260.402 63.7238V67.028C260.402 67.1532 260.452 67.2731 260.54 67.3619C260.629 67.4503 260.749 67.5 260.874 67.5C260.999 67.5 261.119 67.4503 261.208 67.3619C261.296 67.2731 261.346 67.1532 261.346 67.028V63.7238C261.346 63.5986 261.296 63.4787 261.208 63.3899C261.119 63.3015 260.999 63.2518 260.874 63.2518ZM260.874 43.8986C260.749 43.8986 260.629 43.9483 260.54 44.0368C260.452 44.1255 260.402 44.2454 260.402 44.3706V47.6748C260.402 47.8001 260.452 47.92 260.54 48.0087C260.629 48.0972 260.749 48.1469 260.874 48.1469C260.999 48.1469 261.119 48.0972 261.208 48.0087C261.296 47.92 261.346 47.8001 261.346 47.6748V44.3706C261.346 44.2454 261.296 44.1255 261.208 44.0368C261.119 43.9483 260.999 43.8986 260.874 43.8986ZM272.203 55.2273H268.899C268.773 55.2273 268.653 55.277 268.565 55.3654C268.476 55.4542 268.427 55.5741 268.427 55.6993C268.427 55.8246 268.476 55.9445 268.565 56.0332C268.653 56.1216 268.773 56.1713 268.899 56.1713H272.203C272.328 56.1713 272.448 56.1216 272.537 56.0332C272.625 55.9445 272.675 55.8246 272.675 55.6993C272.675 55.5741 272.625 55.4542 272.537 55.3654C272.448 55.277 272.328 55.2273 272.203 55.2273ZM253.322 55.6993C253.322 55.5741 253.272 55.4542 253.184 55.3654C253.095 55.277 252.975 55.2273 252.85 55.2273H249.545C249.42 55.2273 249.3 55.277 249.212 55.3654C249.123 55.4542 249.073 55.5741 249.073 55.6993C249.073 55.8246 249.123 55.9445 249.212 56.0332C249.3 56.1216 249.42 56.1713 249.545 56.1713H252.85C252.975 56.1713 253.095 56.1216 253.184 56.0332C253.272 55.9445 253.322 55.8246 253.322 55.6993ZM266.538 50.507C266.6 50.5073 266.662 50.4954 266.72 50.4721C266.777 50.4485 266.83 50.4139 266.874 50.3701L269.234 48.01C269.322 47.9212 269.373 47.8004 269.373 47.6748C269.373 47.5493 269.322 47.4284 269.234 47.3397C269.145 47.251 269.024 47.2009 268.899 47.2009C268.773 47.2009 268.652 47.251 268.563 47.3397L266.227 49.6762C266.183 49.72 266.148 49.7722 266.124 49.8298C266.1 49.8874 266.087 49.9491 266.087 50.0114C266.087 50.0737 266.1 50.1354 266.124 50.193C266.148 50.2505 266.183 50.3028 266.227 50.3465C266.306 50.4381 266.418 50.4954 266.538 50.507ZM254.865 61.038L252.529 63.3745C252.484 63.4182 252.449 63.4705 252.425 63.5281C252.402 63.5857 252.389 63.6473 252.389 63.7096C252.389 63.7719 252.402 63.8336 252.425 63.8912C252.449 63.9488 252.484 64.001 252.529 64.0448C252.572 64.0891 252.625 64.1241 252.682 64.148C252.74 64.1719 252.801 64.1845 252.864 64.1845C252.926 64.1845 252.988 64.1719 253.045 64.148C253.103 64.1241 253.155 64.0891 253.199 64.0448L255.559 61.6846C255.603 61.6406 255.638 61.5883 255.662 61.5308C255.686 61.4735 255.698 61.4118 255.698 61.3495C255.698 61.2872 255.686 61.2255 255.662 61.1682C255.638 61.1106 255.603 61.0584 255.559 61.0144C255.515 60.9703 255.463 60.9354 255.405 60.9118C255.348 60.8878 255.286 60.8756 255.224 60.8756C255.162 60.8756 255.1 60.8878 255.043 60.9118C254.985 60.9354 254.933 60.9703 254.889 61.0144L254.865 61.038ZM266.883 61.038C266.839 60.9939 266.787 60.959 266.729 60.9354C266.672 60.9115 266.61 60.8992 266.548 60.8992C266.486 60.8992 266.424 60.9115 266.367 60.9354C266.309 60.959 266.257 60.9939 266.213 61.038C266.169 61.082 266.134 61.1342 266.11 61.1918C266.086 61.2491 266.074 61.3108 266.074 61.3731C266.074 61.4354 266.086 61.4971 266.11 61.5544C266.134 61.6119 266.169 61.6642 266.213 61.7082L268.549 64.0684C268.593 64.1127 268.645 64.1477 268.703 64.1716C268.76 64.1955 268.822 64.2081 268.884 64.2081C268.947 64.2081 269.008 64.1955 269.066 64.1716C269.124 64.1477 269.176 64.1127 269.22 64.0684C269.264 64.0246 269.299 63.9724 269.323 63.9148C269.347 63.8572 269.359 63.7955 269.359 63.7332C269.359 63.6709 269.347 63.6093 269.323 63.5517C269.299 63.4941 269.264 63.4418 269.22 63.3981L266.883 61.038ZM253.199 47.3539C253.11 47.2651 252.989 47.2151 252.864 47.2151C252.738 47.2151 252.617 47.2651 252.529 47.3539C252.44 47.4426 252.39 47.5634 252.39 47.689C252.39 47.8146 252.44 47.9354 252.529 48.0241L254.865 50.3843C254.911 50.4268 254.966 50.4592 255.025 50.4803C255.084 50.5013 255.147 50.5105 255.21 50.507C255.272 50.5073 255.333 50.4954 255.391 50.4721C255.449 50.4485 255.501 50.4139 255.545 50.3701C255.589 50.3264 255.624 50.2741 255.648 50.2166C255.672 50.159 255.685 50.0973 255.685 50.035C255.685 49.9727 255.672 49.911 255.648 49.8534C255.624 49.7958 255.589 49.7436 255.545 49.6998L253.199 47.3539Z" fill="#2BAB9F"/>
<path d="M260.874 64.1958C265.567 64.1958 269.371 60.3919 269.371 55.6993C269.371 51.0067 265.567 47.2028 260.874 47.2028C256.182 47.2028 252.378 51.0067 252.378 55.6993C252.378 60.3919 256.182 64.1958 260.874 64.1958Z" fill="#1AB4A6"/>
<path d="M264.65 55.6993C265.432 55.6993 266.066 55.0652 266.066 54.2832C266.066 53.5012 265.432 52.8671 264.65 52.8671C263.868 52.8671 263.234 53.5012 263.234 54.2832C263.234 55.0652 263.868 55.6993 264.65 55.6993Z" fill="#159A8E"/>
<path d="M265.122 59.9475C265.904 59.9475 266.538 59.3134 266.538 58.5314C266.538 57.7494 265.904 57.1154 265.122 57.1154C264.34 57.1154 263.706 57.7494 263.706 58.5314C263.706 59.3134 264.34 59.9475 265.122 59.9475Z" fill="#159A8E"/>
<path d="M258.986 62.3077C259.768 62.3077 260.402 61.6736 260.402 60.8916C260.402 60.1096 259.768 59.4755 258.986 59.4755C258.204 59.4755 257.57 60.1096 257.57 60.8916C257.57 61.6736 258.204 62.3077 258.986 62.3077Z" fill="#159A8E"/>
<path d="M259.93 58.0595C260.712 58.0595 261.346 57.4254 261.346 56.6434C261.346 55.8614 260.712 55.2273 259.93 55.2273C259.148 55.2273 258.514 55.8614 258.514 56.6434C258.514 57.4254 259.148 58.0595 259.93 58.0595Z" fill="#159A8E"/>
<path d="M256.626 54.2832C257.408 54.2832 258.042 53.6491 258.042 52.8671C258.042 52.0851 257.408 51.451 256.626 51.451C255.844 51.451 255.21 52.0851 255.21 52.8671C255.21 53.6491 255.844 54.2832 256.626 54.2832Z" fill="#159A8E"/>
<path d="M260.874 51.4511C261.656 51.4511 262.29 50.817 262.29 50.035C262.29 49.253 261.656 48.6189 260.874 48.6189C260.092 48.6189 259.458 49.253 259.458 50.035C259.458 50.817 260.092 51.4511 260.874 51.4511Z" fill="#159A8E"/>
<path d="M260.874 69.3881C261.656 69.3881 262.29 68.754 262.29 67.972C262.29 67.19 261.656 66.5559 260.874 66.5559C260.092 66.5559 259.458 67.19 259.458 67.972C259.458 68.754 260.092 69.3881 260.874 69.3881Z" fill="#159A8E"/>
<path d="M260.874 44.8427C261.656 44.8427 262.29 44.2086 262.29 43.4266C262.29 42.6446 261.656 42.0105 260.874 42.0105C260.092 42.0105 259.458 42.6446 259.458 43.4266C259.458 44.2086 260.092 44.8427 260.874 44.8427Z" fill="#159A8E"/>
<path d="M273.147 57.1154C273.929 57.1154 274.563 56.4813 274.563 55.6993C274.563 54.9173 273.929 54.2832 273.147 54.2832C272.365 54.2832 271.731 54.9173 271.731 55.6993C271.731 56.4813 272.365 57.1154 273.147 57.1154Z" fill="#159A8E"/>
<path d="M248.601 57.1154C249.383 57.1154 250.017 56.4813 250.017 55.6993C250.017 54.9173 249.383 54.2832 248.601 54.2832C247.819 54.2832 247.185 54.9173 247.185 55.6993C247.185 56.4813 247.819 57.1154 248.601 57.1154Z" fill="#159A8E"/>
<path d="M268.549 46.018C268.352 46.2163 268.217 46.4687 268.163 46.7431C268.109 47.0178 268.137 47.3023 268.245 47.5606C268.352 47.819 268.533 48.0399 268.766 48.1953C268.999 48.3508 269.272 48.4335 269.553 48.4335C269.832 48.4335 270.106 48.3508 270.339 48.1953C270.571 48.0399 270.753 47.819 270.86 47.5606C270.968 47.3023 270.996 47.0178 270.942 46.7431C270.887 46.4687 270.753 46.2163 270.555 46.018C270.424 45.8859 270.268 45.7814 270.095 45.7096C269.923 45.6382 269.739 45.6014 269.553 45.6014C269.366 45.6014 269.182 45.6382 269.009 45.7096C268.837 45.7814 268.681 45.8859 268.549 46.018ZM251.193 63.3745C250.995 63.5727 250.861 63.8251 250.807 64.0995C250.753 64.3742 250.781 64.6587 250.888 64.9171C250.996 65.1754 251.177 65.3963 251.41 65.5518C251.643 65.7073 251.916 65.79 252.196 65.79C252.476 65.79 252.749 65.7073 252.982 65.5518C253.215 65.3963 253.396 65.1754 253.504 64.9171C253.611 64.6587 253.64 64.3742 253.585 64.0995C253.531 63.8251 253.397 63.5727 253.199 63.3745C252.928 63.1177 252.569 62.9748 252.196 62.9748C251.823 62.9748 251.464 63.1177 251.193 63.3745ZM251.193 46.018C251.061 46.1496 250.956 46.306 250.885 46.4781C250.813 46.6502 250.776 46.8346 250.776 47.0209C250.776 47.2075 250.813 47.3919 250.885 47.5641C250.956 47.7362 251.061 47.8926 251.193 48.0241C251.459 48.2901 251.82 48.4395 252.196 48.4395C252.572 48.4395 252.933 48.2901 253.199 48.0241C253.465 47.7582 253.614 47.3973 253.614 47.0209C253.614 46.6449 253.465 46.2839 253.199 46.018C252.928 45.7612 252.569 45.6184 252.196 45.6184C251.823 45.6184 251.464 45.7612 251.193 46.018ZM268.549 63.3745C268.417 63.506 268.313 63.6624 268.241 63.8346C268.17 64.0067 268.133 64.1911 268.133 64.3774C268.133 64.564 268.17 64.7484 268.241 64.9205C268.313 65.0927 268.417 65.2491 268.549 65.3806C268.748 65.5782 269 65.7126 269.274 65.7667C269.549 65.8209 269.834 65.7925 270.092 65.6852C270.351 65.5779 270.571 65.3967 270.727 65.1638C270.882 64.9309 270.965 64.6575 270.965 64.3774C270.965 64.0976 270.882 63.8242 270.727 63.5913C270.571 63.3584 270.351 63.1772 270.092 63.0696C269.834 62.9623 269.549 62.9339 269.274 62.9884C269 63.0425 268.748 63.1769 268.549 63.3745Z" fill="#159A8E"/>
<path d="M261.209 53.004L261.138 52.9474C261.112 52.9294 261.084 52.9153 261.054 52.9049L260.969 52.8671C260.899 52.853 260.828 52.8545 260.759 52.8719C260.69 52.8892 260.626 52.9216 260.572 52.9669C260.518 53.0122 260.474 53.0692 260.445 53.1337C260.415 53.1982 260.401 53.2684 260.402 53.3392C260.4 53.3706 260.4 53.4021 260.402 53.4336C260.407 53.4632 260.417 53.4918 260.43 53.5185C260.441 53.5487 260.455 53.5771 260.473 53.6035C260.49 53.6284 260.509 53.652 260.53 53.6743C260.575 53.7174 260.627 53.7511 260.685 53.7734C260.744 53.8014 260.809 53.8143 260.874 53.8112H260.969L261.054 53.7829C261.084 53.7725 261.112 53.7583 261.138 53.7404L261.209 53.6837C261.298 53.5909 261.347 53.4676 261.346 53.3392C261.348 53.2772 261.335 53.2158 261.308 53.1598C261.287 53.1016 261.253 53.0484 261.209 53.004ZM263.097 56.7802L263.027 56.7236L262.942 56.6811C262.914 56.6666 262.883 56.6572 262.852 56.6528C262.791 56.6434 262.729 56.6434 262.668 56.6528C262.638 56.6578 262.61 56.6676 262.583 56.6811L262.498 56.7236L262.427 56.7802C262.386 56.8262 262.352 56.8787 262.328 56.936C262.304 56.9927 262.291 57.0537 262.29 57.1154C262.29 57.1774 262.302 57.2391 262.325 57.2966C262.349 57.3542 262.383 57.4065 262.427 57.4505C262.517 57.5368 262.637 57.5858 262.762 57.5874H262.852C262.883 57.583 262.914 57.5736 262.942 57.5591L263.027 57.5166L263.097 57.46C263.142 57.4147 263.178 57.3608 263.201 57.3017C263.225 57.2425 263.236 57.179 263.234 57.1154C263.234 57.0537 263.221 56.9927 263.197 56.936C263.173 56.8787 263.139 56.8262 263.097 56.7802ZM257.532 56.936C257.522 56.9058 257.508 56.8775 257.49 56.8511L257.433 56.7802C257.367 56.7148 257.282 56.6704 257.191 56.6528C257.099 56.6352 257.004 56.6449 256.919 56.6811C256.861 56.7035 256.808 56.7371 256.763 56.7802L256.706 56.8511C256.688 56.8775 256.674 56.9058 256.664 56.936C256.65 56.9628 256.64 56.9914 256.635 57.021C256.633 57.0524 256.633 57.0839 256.635 57.1154C256.636 57.1771 256.649 57.2381 256.673 57.2948C256.697 57.352 256.731 57.4046 256.772 57.4505C256.817 57.4936 256.87 57.5273 256.928 57.5497C256.985 57.5745 257.046 57.5874 257.107 57.5874C257.169 57.5874 257.23 57.5745 257.287 57.5497C257.344 57.5257 257.397 57.4924 257.442 57.4505C257.525 57.3586 257.571 57.2391 257.57 57.1154C257.572 57.0839 257.572 57.0524 257.57 57.021C257.562 56.9908 257.549 56.9621 257.532 56.936ZM255.389 56.1336C255.447 56.1112 255.5 56.0776 255.545 56.0344C255.631 55.9441 255.68 55.8242 255.682 55.6993C255.681 55.6376 255.668 55.5766 255.644 55.5199C255.623 55.4614 255.589 55.4082 255.545 55.3642C255.501 55.3201 255.448 55.2861 255.389 55.265C255.274 55.2178 255.145 55.2178 255.03 55.265C254.973 55.289 254.921 55.3226 254.875 55.3642C254.832 55.4092 254.798 55.462 254.776 55.5199C254.751 55.5766 254.738 55.6376 254.738 55.6993C254.74 55.8242 254.788 55.9441 254.875 56.0344C254.921 56.0763 254.973 56.1097 255.03 56.1336C255.087 56.1584 255.148 56.1713 255.21 56.1713C255.271 56.1713 255.333 56.1584 255.389 56.1336ZM256.017 58.6684C255.951 58.6029 255.866 58.5585 255.775 58.5409C255.683 58.5233 255.588 58.533 255.502 58.5692C255.444 58.5903 255.391 58.6243 255.347 58.6684C255.303 58.7124 255.269 58.7656 255.248 58.8241C255.223 58.8808 255.21 58.9418 255.21 59.0035C255.21 59.1287 255.26 59.2486 255.348 59.3374C255.437 59.4258 255.557 59.4755 255.682 59.4755C255.807 59.4755 255.927 59.4258 256.016 59.3374C256.104 59.2486 256.154 59.1287 256.154 59.0035C256.153 58.9418 256.14 58.8808 256.116 58.8241C256.092 58.7669 256.059 58.7143 256.017 58.6684ZM262.196 60.4196C262.166 60.4246 262.138 60.4344 262.111 60.4479L262.026 60.4904L261.955 60.547C261.912 60.592 261.878 60.6449 261.856 60.7028C261.83 60.7626 261.818 60.8268 261.818 60.8916C261.818 60.9536 261.83 61.0153 261.853 61.0729C261.877 61.1305 261.911 61.1827 261.955 61.2268C262.014 61.2821 262.085 61.3218 262.164 61.3416C262.242 61.3614 262.324 61.3608 262.402 61.34C262.48 61.3193 262.551 61.2787 262.609 61.2227C262.667 61.1663 262.709 61.0962 262.732 61.0191C262.755 60.9416 262.758 60.8598 262.741 60.7812C262.723 60.7025 262.685 60.6295 262.632 60.5694C262.578 60.5093 262.51 60.464 262.433 60.4378C262.357 60.4114 262.275 60.4051 262.196 60.4196ZM266.874 55.8362C266.83 55.7918 266.778 55.7569 266.72 55.733C266.662 55.7091 266.601 55.6965 266.538 55.6965C266.476 55.6965 266.414 55.7091 266.357 55.733C266.299 55.7569 266.247 55.7918 266.203 55.8362C266.16 55.8802 266.125 55.9325 266.101 55.9901C266.078 56.0477 266.066 56.1093 266.066 56.1713C266.068 56.2963 266.117 56.4162 266.203 56.5065C266.247 56.5502 266.3 56.5848 266.357 56.6084C266.415 56.6317 266.476 56.6437 266.538 56.6434C266.664 56.6434 266.784 56.5936 266.872 56.5052C266.961 56.4165 267.011 56.2966 267.011 56.1713C267.011 56.1093 266.999 56.0477 266.976 55.9901C266.952 55.9325 266.917 55.8802 266.874 55.8362ZM264.986 50.6439L264.915 50.5872C264.888 50.5693 264.86 50.5551 264.83 50.5448L264.745 50.507C264.668 50.4909 264.589 50.4944 264.514 50.5164C264.439 50.5388 264.371 50.5794 264.315 50.6344C264.245 50.6999 264.197 50.7852 264.176 50.8786C264.156 50.9721 264.165 51.0697 264.201 51.1584C264.237 51.2471 264.3 51.3223 264.38 51.3749C264.46 51.4271 264.555 51.4536 264.65 51.4511H264.745L264.83 51.4227C264.86 51.4123 264.888 51.3982 264.915 51.3802L264.986 51.3236C265.031 51.2783 265.066 51.2245 265.089 51.1653C265.113 51.1062 265.124 51.0426 265.122 50.979C265.122 50.9173 265.109 50.8563 265.085 50.7997C265.061 50.7424 265.027 50.6898 264.986 50.6439ZM258.179 50.1719C258.136 50.2169 258.102 50.2697 258.08 50.3276C258.055 50.3843 258.043 50.4453 258.042 50.507C258.042 50.569 258.054 50.6307 258.077 50.6883C258.101 50.7458 258.135 50.7981 258.179 50.8421C258.225 50.884 258.277 50.9173 258.335 50.9413C258.391 50.9661 258.452 50.979 258.514 50.979C258.576 50.979 258.637 50.9661 258.693 50.9413C258.751 50.9173 258.803 50.884 258.849 50.8421C258.938 50.7534 258.988 50.6326 258.988 50.507C258.988 50.3814 258.938 50.2606 258.849 50.1719C258.76 50.0831 258.64 50.0331 258.514 50.0331C258.388 50.0331 258.268 50.0831 258.179 50.1719Z" fill="#2BAB9F"/>
<path d="M289.51 95.0349C289.385 95.0349 289.265 95.0847 289.177 95.1731C289.088 95.2618 289.038 95.3817 289.038 95.507V98.8112C289.038 98.9364 289.088 99.0563 289.177 99.145C289.265 99.2335 289.385 99.2832 289.51 99.2832C289.636 99.2832 289.756 99.2335 289.844 99.145C289.933 99.0563 289.983 98.9364 289.983 98.8112V95.507C289.983 95.3817 289.933 95.2618 289.844 95.1731C289.756 95.0847 289.636 95.0349 289.51 95.0349ZM289.51 75.6818C289.385 75.6818 289.265 75.7315 289.177 75.82C289.088 75.9087 289.038 76.0286 289.038 76.1539V79.458C289.038 79.5833 289.088 79.7032 289.177 79.7919C289.265 79.8804 289.385 79.9301 289.51 79.9301C289.636 79.9301 289.756 79.8804 289.844 79.7919C289.933 79.7032 289.983 79.5833 289.983 79.458V76.1539C289.983 76.0286 289.933 75.9087 289.844 75.82C289.756 75.7315 289.636 75.6818 289.51 75.6818ZM300.839 87.0105H297.535C297.41 87.0105 297.29 87.0602 297.201 87.1486C297.113 87.2374 297.063 87.3573 297.063 87.4825C297.063 87.6078 297.113 87.7276 297.201 87.8164C297.29 87.9048 297.41 87.9545 297.535 87.9545H300.839C300.964 87.9545 301.084 87.9048 301.173 87.8164C301.261 87.7276 301.311 87.6078 301.311 87.4825C301.311 87.3573 301.261 87.2374 301.173 87.1486C301.084 87.0602 300.964 87.0105 300.839 87.0105ZM281.958 87.4825C281.958 87.3573 281.908 87.2374 281.82 87.1486C281.731 87.0602 281.611 87.0105 281.486 87.0105H278.182C278.057 87.0105 277.937 87.0602 277.848 87.1486C277.76 87.2374 277.71 87.3573 277.71 87.4825C277.71 87.6078 277.76 87.7276 277.848 87.8164C277.937 87.9048 278.057 87.9545 278.182 87.9545H281.486C281.611 87.9545 281.731 87.9048 281.82 87.8164C281.908 87.7276 281.958 87.6078 281.958 87.4825ZM295.175 82.2902C295.237 82.2905 295.298 82.2786 295.356 82.2553C295.414 82.2317 295.466 82.1971 295.51 82.1533L297.87 79.7932C297.959 79.7044 298.009 79.5836 298.009 79.458C298.009 79.3325 297.959 79.2116 297.87 79.1229C297.781 79.0342 297.661 78.9841 297.535 78.9841C297.409 78.9841 297.289 79.0342 297.2 79.1229L294.863 81.4594C294.819 81.5032 294.784 81.5554 294.76 81.613C294.736 81.6706 294.724 81.7323 294.724 81.7946C294.724 81.8569 294.736 81.9186 294.76 81.9762C294.784 82.0337 294.819 82.086 294.863 82.1297C294.943 82.2213 295.054 82.2786 295.175 82.2902ZM283.502 92.8211L281.165 95.1577C281.121 95.2014 281.086 95.2536 281.062 95.3112C281.038 95.3688 281.025 95.4305 281.025 95.4928C281.025 95.5551 281.038 95.6168 281.062 95.6744C281.086 95.732 281.121 95.7842 281.165 95.8279C281.209 95.8723 281.261 95.9072 281.319 95.9312C281.376 95.9551 281.438 95.9677 281.5 95.9677C281.562 95.9677 281.624 95.9551 281.682 95.9312C281.739 95.9072 281.792 95.8723 281.835 95.8279L284.195 93.4678C284.239 93.4238 284.274 93.3715 284.298 93.3139C284.322 93.2567 284.334 93.195 284.334 93.1327C284.334 93.0704 284.322 93.0087 284.298 92.9514C284.274 92.8938 284.239 92.8416 284.195 92.7975C284.151 92.7535 284.099 92.7185 284.042 92.6949C283.984 92.671 283.923 92.6588 283.86 92.6588C283.798 92.6588 283.736 92.671 283.679 92.6949C283.621 92.7185 283.569 92.7535 283.525 92.7975L283.502 92.8211ZM295.519 92.8211C295.475 92.7771 295.423 92.7422 295.366 92.7185C295.308 92.6946 295.247 92.6824 295.184 92.6824C295.122 92.6824 295.06 92.6946 295.003 92.7185C294.945 92.7422 294.893 92.7771 294.849 92.8211C294.805 92.8652 294.77 92.9174 294.747 92.975C294.723 93.0323 294.71 93.094 294.71 93.1563C294.71 93.2186 294.723 93.2803 294.747 93.3375C294.77 93.3951 294.805 93.4474 294.849 93.4914L297.186 95.8516C297.229 95.8959 297.282 95.9309 297.339 95.9548C297.397 95.9787 297.458 95.9913 297.521 95.9913C297.583 95.9913 297.645 95.9787 297.702 95.9548C297.76 95.9309 297.812 95.8959 297.856 95.8516C297.9 95.8078 297.935 95.7556 297.959 95.698C297.983 95.6404 297.996 95.5787 297.996 95.5164C297.996 95.4541 297.983 95.3924 297.959 95.3348C297.935 95.2773 297.9 95.225 297.856 95.1813L295.519 92.8211ZM281.835 79.1371C281.747 79.0483 281.626 78.9983 281.5 78.9983C281.375 78.9983 281.254 79.0483 281.165 79.1371C281.076 79.2258 281.026 79.3466 281.026 79.4722C281.026 79.5978 281.076 79.7186 281.165 79.8073L283.502 82.1675C283.548 82.21 283.602 82.2424 283.661 82.2635C283.721 82.2845 283.784 82.2937 283.846 82.2902C283.908 82.2905 283.97 82.2786 284.027 82.2553C284.085 82.2317 284.137 82.1971 284.181 82.1533C284.226 82.1096 284.261 82.0573 284.285 81.9998C284.308 81.9422 284.321 81.8805 284.321 81.8182C284.321 81.7559 284.308 81.6942 284.285 81.6366C284.261 81.579 284.226 81.5268 284.181 81.483L281.835 79.1371Z" fill="#2BAB9F"/>
<path d="M289.511 95.979C294.203 95.979 298.007 92.1751 298.007 87.4825C298.007 82.7899 294.203 78.986 289.511 78.986C284.818 78.986 281.014 82.7899 281.014 87.4825C281.014 92.1751 284.818 95.979 289.511 95.979Z" fill="#1AB4A6"/>
<path d="M293.287 87.4825C294.069 87.4825 294.703 86.8484 294.703 86.0664C294.703 85.2844 294.069 84.6503 293.287 84.6503C292.505 84.6503 291.871 85.2844 291.871 86.0664C291.871 86.8484 292.505 87.4825 293.287 87.4825Z" fill="#159A8E"/>
<path d="M293.759 91.7308C294.541 91.7308 295.175 91.0967 295.175 90.3147C295.175 89.5327 294.541 88.8986 293.759 88.8986C292.977 88.8986 292.343 89.5327 292.343 90.3147C292.343 91.0967 292.977 91.7308 293.759 91.7308Z" fill="#159A8E"/>
<path d="M287.622 94.0909C288.404 94.0909 289.038 93.4568 289.038 92.6748C289.038 91.8928 288.404 91.2587 287.622 91.2587C286.84 91.2587 286.206 91.8928 286.206 92.6748C286.206 93.4568 286.84 94.0909 287.622 94.0909Z" fill="#159A8E"/>
<path d="M288.566 89.8427C289.348 89.8427 289.983 89.2086 289.983 88.4266C289.983 87.6446 289.348 87.0105 288.566 87.0105C287.784 87.0105 287.15 87.6446 287.15 88.4266C287.15 89.2086 287.784 89.8427 288.566 89.8427Z" fill="#159A8E"/>
<path d="M285.262 86.0664C286.044 86.0664 286.678 85.4323 286.678 84.6503C286.678 83.8683 286.044 83.2343 285.262 83.2343C284.48 83.2343 283.846 83.8683 283.846 84.6503C283.846 85.4323 284.48 86.0664 285.262 86.0664Z" fill="#159A8E"/>
<path d="M289.51 83.2343C290.292 83.2343 290.927 82.6002 290.927 81.8182C290.927 81.0362 290.292 80.4021 289.51 80.4021C288.728 80.4021 288.094 81.0362 288.094 81.8182C288.094 82.6002 288.728 83.2343 289.51 83.2343Z" fill="#159A8E"/>
<path d="M289.51 101.171C290.292 101.171 290.927 100.537 290.927 99.7553C290.927 98.9733 290.292 98.3392 289.51 98.3392C288.728 98.3392 288.094 98.9733 288.094 99.7553C288.094 100.537 288.728 101.171 289.51 101.171Z" fill="#159A8E"/>
<path d="M289.51 76.6259C290.292 76.6259 290.927 75.9918 290.927 75.2098C290.927 74.4278 290.292 73.7937 289.51 73.7937C288.728 73.7937 288.094 74.4278 288.094 75.2098C288.094 75.9918 288.728 76.6259 289.51 76.6259Z" fill="#159A8E"/>
<path d="M301.783 88.8986C302.565 88.8986 303.199 88.2645 303.199 87.4825C303.199 86.7005 302.565 86.0664 301.783 86.0664C301.001 86.0664 300.367 86.7005 300.367 87.4825C300.367 88.2645 301.001 88.8986 301.783 88.8986Z" fill="#159A8E"/>
<path d="M277.238 88.8986C278.02 88.8986 278.654 88.2645 278.654 87.4825C278.654 86.7005 278.02 86.0664 277.238 86.0664C276.456 86.0664 275.822 86.7005 275.822 87.4825C275.822 88.2645 276.456 88.8986 277.238 88.8986Z" fill="#159A8E"/>
<path d="M297.186 77.8012C296.988 77.9995 296.854 78.2519 296.8 78.5263C296.745 78.801 296.774 79.0855 296.881 79.3438C296.988 79.6022 297.17 79.8231 297.402 79.9785C297.635 80.134 297.909 80.2167 298.189 80.2167C298.469 80.2167 298.742 80.134 298.975 79.9785C299.208 79.8231 299.389 79.6022 299.497 79.3438C299.604 79.0855 299.632 78.801 299.578 78.5263C299.524 78.2519 299.389 77.9995 299.192 77.8012C299.06 77.6691 298.904 77.5646 298.732 77.4928C298.56 77.4214 298.375 77.3846 298.189 77.3846C298.002 77.3846 297.818 77.4214 297.646 77.4928C297.474 77.5646 297.317 77.6691 297.186 77.8012ZM279.829 95.1577C279.632 95.3559 279.497 95.6083 279.443 95.8827C279.389 96.1574 279.417 96.4419 279.525 96.7003C279.632 96.9586 279.813 97.1795 280.046 97.335C280.279 97.4905 280.552 97.5732 280.832 97.5732C281.112 97.5732 281.386 97.4905 281.619 97.335C281.851 97.1795 282.033 96.9586 282.14 96.7003C282.248 96.4419 282.276 96.1574 282.221 95.8827C282.167 95.6083 282.033 95.3559 281.835 95.1577C281.564 94.9009 281.205 94.758 280.832 94.758C280.459 94.758 280.1 94.9009 279.829 95.1577ZM279.829 77.8012C279.697 77.9328 279.593 78.0892 279.521 78.2613C279.449 78.4334 279.413 78.6178 279.413 78.8041C279.413 78.9907 279.449 79.1751 279.521 79.3473C279.593 79.5194 279.697 79.6758 279.829 79.8073C280.095 80.0733 280.456 80.2227 280.832 80.2227C281.208 80.2227 281.569 80.0733 281.835 79.8073C282.101 79.5414 282.251 79.1805 282.251 78.8041C282.251 78.4281 282.101 78.0671 281.835 77.8012C281.564 77.5444 281.205 77.4016 280.832 77.4016C280.459 77.4016 280.1 77.5444 279.829 77.8012ZM297.186 95.1577C297.054 95.2892 296.949 95.4456 296.878 95.6178C296.806 95.7899 296.769 95.9743 296.769 96.1606C296.769 96.3472 296.806 96.5316 296.878 96.7037C296.949 96.8759 297.054 97.0323 297.186 97.1638C297.384 97.3614 297.636 97.4958 297.911 97.5499C298.185 97.6041 298.47 97.5757 298.728 97.4684C298.987 97.3611 299.208 97.1799 299.363 96.947C299.518 96.7141 299.602 96.4407 299.602 96.1606C299.602 95.8808 299.518 95.6074 299.363 95.3745C299.208 95.1416 298.987 94.9604 298.728 94.8528C298.47 94.7455 298.185 94.7171 297.911 94.7716C297.636 94.8257 297.384 94.9601 297.186 95.1577Z" fill="#159A8E"/>
<path d="M289.846 84.7872L289.775 84.7306C289.748 84.7127 289.72 84.6985 289.69 84.6881L289.605 84.6503C289.536 84.6362 289.464 84.6378 289.395 84.6551C289.326 84.6724 289.263 84.7048 289.208 84.7501C289.154 84.7954 289.11 84.8524 289.081 84.9169C289.052 84.9814 289.037 85.0516 289.038 85.1224C289.036 85.1538 289.036 85.1853 289.038 85.2168C289.044 85.2464 289.053 85.275 289.067 85.3018C289.077 85.332 289.091 85.3603 289.109 85.3867C289.127 85.4116 289.145 85.4352 289.166 85.4575C289.211 85.5006 289.264 85.5343 289.322 85.5566C289.381 85.5847 289.445 85.5976 289.51 85.5944H289.605L289.69 85.5661C289.72 85.5557 289.748 85.5415 289.775 85.5236L289.846 85.467C289.934 85.3741 289.983 85.2508 289.983 85.1224C289.984 85.0604 289.971 84.999 289.945 84.943C289.923 84.8848 289.889 84.8316 289.846 84.7872ZM291.734 88.5635L291.663 88.5068L291.578 88.4643C291.55 88.4499 291.519 88.4404 291.488 88.436C291.427 88.4266 291.365 88.4266 291.304 88.436C291.275 88.4411 291.246 88.4508 291.219 88.4643L291.134 88.5068L291.063 88.5635C291.022 88.6094 290.988 88.662 290.964 88.7192C290.94 88.7759 290.927 88.8369 290.927 88.8986C290.926 88.9606 290.938 89.0223 290.962 89.0799C290.985 89.1375 291.02 89.1897 291.063 89.2337C291.154 89.32 291.274 89.3691 291.399 89.3706H291.488C291.519 89.3662 291.55 89.3568 291.578 89.3423L291.663 89.2998L291.734 89.2432C291.779 89.1979 291.814 89.1441 291.838 89.0849C291.861 89.0257 291.872 88.9622 291.871 88.8986C291.87 88.8369 291.857 88.7759 291.833 88.7192C291.809 88.662 291.775 88.6094 291.734 88.5635ZM286.169 88.7192C286.158 88.689 286.144 88.6607 286.126 88.6343L286.069 88.5635C286.003 88.498 285.919 88.4536 285.827 88.436C285.736 88.4184 285.641 88.4282 285.555 88.4643C285.497 88.4867 285.444 88.5204 285.399 88.5635L285.342 88.6343C285.325 88.6607 285.31 88.689 285.3 88.7192C285.286 88.746 285.277 88.7746 285.272 88.8042C285.269 88.8357 285.269 88.8671 285.272 88.8986C285.272 88.9603 285.285 89.0213 285.309 89.078C285.333 89.1353 285.367 89.1878 285.409 89.2337C285.454 89.2769 285.506 89.3105 285.564 89.3329C285.621 89.3577 285.682 89.3706 285.744 89.3706C285.805 89.3706 285.866 89.3577 285.923 89.3329C285.98 89.309 286.033 89.2756 286.079 89.2337C286.162 89.1419 286.207 89.0223 286.206 88.8986C286.208 88.8671 286.208 88.8357 286.206 88.8042C286.198 88.774 286.186 88.7454 286.169 88.7192ZM284.026 87.9168C284.083 87.8944 284.136 87.8608 284.181 87.8177C284.268 87.7273 284.316 87.6075 284.318 87.4825C284.318 87.4208 284.305 87.3598 284.28 87.3031C284.259 87.2446 284.225 87.1914 284.181 87.1474C284.137 87.1033 284.084 87.0693 284.026 87.0483C283.911 87.001 283.782 87.001 283.667 87.0483C283.609 87.0722 283.557 87.1058 283.511 87.1474C283.468 87.1924 283.434 87.2452 283.412 87.3031C283.388 87.3598 283.375 87.4208 283.374 87.4825C283.376 87.6075 283.425 87.7273 283.511 87.8177C283.557 87.8595 283.609 87.8929 283.667 87.9168C283.723 87.9416 283.784 87.9545 283.846 87.9545C283.908 87.9545 283.969 87.9416 284.026 87.9168ZM284.653 90.4516C284.587 90.3861 284.503 90.3418 284.411 90.3241C284.319 90.3065 284.225 90.3163 284.139 90.3525C284.08 90.3735 284.027 90.4075 283.983 90.4516C283.939 90.4956 283.905 90.5488 283.884 90.6073C283.86 90.664 283.847 90.725 283.846 90.7867C283.846 90.912 283.896 91.0319 283.984 91.1206C284.073 91.209 284.193 91.2588 284.318 91.2588C284.443 91.2588 284.563 91.209 284.652 91.1206C284.74 91.0319 284.79 90.912 284.79 90.7867C284.79 90.725 284.777 90.664 284.752 90.6073C284.729 90.5501 284.695 90.4975 284.653 90.4516ZM290.832 92.2028C290.803 92.2078 290.774 92.2176 290.747 92.2311L290.662 92.2736L290.591 92.3303C290.548 92.3753 290.515 92.4281 290.492 92.486C290.467 92.5458 290.454 92.61 290.455 92.6748C290.454 92.7368 290.466 92.7985 290.489 92.8561C290.513 92.9137 290.548 92.9659 290.591 93.01C290.65 93.0654 290.722 93.105 290.8 93.1248C290.878 93.1447 290.96 93.144 291.038 93.1233C291.116 93.1025 291.187 93.0619 291.245 93.0059C291.303 92.9496 291.345 92.8794 291.368 92.8023C291.391 92.7249 291.394 92.643 291.377 92.5644C291.359 92.4857 291.322 92.4127 291.268 92.3526C291.214 92.2925 291.146 92.2472 291.069 92.2211C290.993 92.1946 290.911 92.1883 290.832 92.2028ZM295.51 87.6194C295.466 87.575 295.414 87.5401 295.356 87.5162C295.299 87.4923 295.237 87.4797 295.175 87.4797C295.113 87.4797 295.051 87.4923 294.993 87.5162C294.936 87.5401 294.883 87.575 294.84 87.6194C294.796 87.6635 294.761 87.7157 294.738 87.7733C294.714 87.8309 294.703 87.8926 294.703 87.9545C294.705 88.0795 294.753 88.1994 294.84 88.2897C294.884 88.3334 294.936 88.368 294.994 88.3917C295.051 88.4149 295.113 88.4269 295.175 88.4266C295.3 88.4266 295.42 88.3769 295.509 88.2884C295.597 88.1997 295.647 88.0798 295.647 87.9545C295.647 87.8926 295.635 87.8309 295.612 87.7733C295.588 87.7157 295.554 87.6635 295.51 87.6194ZM293.622 82.4271L293.551 82.3705C293.525 82.3525 293.496 82.3384 293.466 82.328L293.381 82.2902C293.305 82.2742 293.225 82.2776 293.15 82.2996C293.075 82.322 293.007 82.3626 292.952 82.4177C292.882 82.4831 292.833 82.5684 292.813 82.6618C292.792 82.7553 292.801 82.8529 292.837 82.9416C292.874 83.0303 292.936 83.1056 293.016 83.1581C293.097 83.2103 293.191 83.2368 293.287 83.2343H293.381L293.466 83.2059C293.496 83.1956 293.525 83.1814 293.551 83.1635L293.622 83.1068C293.667 83.0615 293.702 83.0077 293.726 82.9485C293.749 82.8894 293.76 82.8258 293.759 82.7622C293.758 82.7006 293.745 82.6395 293.721 82.5829C293.697 82.5256 293.663 82.473 293.622 82.4271ZM286.815 81.9551C286.772 82.0001 286.738 82.0529 286.716 82.1108C286.692 82.1675 286.679 82.2285 286.678 82.2902C286.678 82.3522 286.69 82.4139 286.713 82.4715C286.737 82.529 286.771 82.5813 286.815 82.6253C286.861 82.6672 286.914 82.7006 286.971 82.7245C287.028 82.7493 287.089 82.7622 287.15 82.7622C287.212 82.7622 287.273 82.7493 287.33 82.7245C287.387 82.7006 287.44 82.6672 287.485 82.6253C287.574 82.5366 287.624 82.4158 287.624 82.2902C287.624 82.1646 287.574 82.0438 287.485 81.9551C287.397 81.8663 287.276 81.8163 287.15 81.8163C287.025 81.8163 286.904 81.8663 286.815 81.9551Z" fill="#2BAB9F"/>
</svg>
