<svg width="798" height="798" viewBox="0 0 798 798" fill="none" xmlns="http://www.w3.org/2000/svg">
<path d="M366.213 176.412V63.623L299.894 101.219L300.766 214.009L561.681 366.143V480.681L628 441.336V328.547L366.213 176.412Z" fill="url(#paint0_linear)"/>
<path d="M431.66 138.816V63.623V61L628 176.412V251.605L431.66 138.816Z" fill="url(#paint1_linear)"/>
<path d="M233.574 253.354V139.69L169 177.287V290.95L431.66 442.211V555L496.234 517.404V404.614L233.574 253.354Z" fill="url(#paint2_linear)"/>
<path d="M169.873 443.085V367.892L363.595 480.681V555L169.873 443.085Z" fill="url(#paint3_linear)"/>
<path d="M416.664 235.524C437.494 240.853 458.821 228.772 464.307 208.538C469.79 188.308 457.356 167.586 436.53 162.258C415.7 156.93 394.37 169.013 388.886 189.243C383.401 209.478 395.835 230.197 416.664 235.524Z" fill="#333333"/>
<path d="M445.687 266.404L493.713 286.245L504.669 291.087C509.944 294.701 511.891 301.593 508.948 307.397C505.871 313.469 498.502 316.143 492.125 313.754L433.914 293.491C431.125 306.699 427.581 319.48 425.058 328.003L449.57 357.139L450.493 358.237C453.079 361.308 454.382 365.003 454.465 368.685L456.065 438.416C456.276 447.58 448.795 455.175 439.36 455.38C430.392 455.574 422.876 448.955 421.977 440.433L415.59 378.304L390.672 352.617L383.964 382.284L383.631 383.756C382.252 389.856 377.689 394.57 372.094 396.628L310.016 418.935C301.164 422.115 291.333 417.724 288.058 409.123C284.958 400.984 288.905 391.966 296.836 388.33L346.323 365.808L351.46 331.133C351.701 329.503 362.264 271.852 362.264 271.852L346.544 274.408L341.564 309.916C340.637 316.522 334.372 321.15 327.57 320.249C321.446 319.438 316.976 314.419 316.823 308.606L315.486 259.736C315.307 253.166 319.728 247.515 325.904 245.699L328.174 245.036L373.723 231.653C393.375 226.474 418.369 234.91 438.316 261.361C440.535 264.303 445.687 266.404 445.687 266.404Z" fill="#333333"/>
<path d="M141.938 651.672C142.375 654.828 143.234 657.188 144.516 658.75C146.859 661.594 150.875 663.016 156.562 663.016C159.969 663.016 162.734 662.641 164.859 661.891C168.891 660.453 170.906 657.781 170.906 653.875C170.906 651.594 169.906 649.828 167.906 648.578C165.906 647.359 162.766 646.281 158.484 645.344L151.172 643.703C143.984 642.078 139.016 640.312 136.266 638.406C131.609 635.219 129.281 630.234 129.281 623.453C129.281 617.266 131.531 612.125 136.031 608.031C140.531 603.938 147.141 601.891 155.859 601.891C163.141 601.891 169.344 603.828 174.469 607.703C179.625 611.547 182.328 617.141 182.578 624.484H168.703C168.453 620.328 166.641 617.375 163.266 615.625C161.016 614.469 158.219 613.891 154.875 613.891C151.156 613.891 148.188 614.641 145.969 616.141C143.75 617.641 142.641 619.734 142.641 622.422C142.641 624.891 143.734 626.734 145.922 627.953C147.328 628.766 150.328 629.719 154.922 630.812L166.828 633.672C172.047 634.922 175.984 636.594 178.641 638.688C182.766 641.938 184.828 646.641 184.828 652.797C184.828 659.109 182.406 664.359 177.562 668.547C172.75 672.703 165.938 674.781 157.125 674.781C148.125 674.781 141.047 672.734 135.891 668.641C130.734 664.516 128.156 658.859 128.156 651.672H141.938ZM214.406 646.891H231.938L223.312 619.703L214.406 646.891ZM215.297 603.906H231.609L256.078 673H240.422L235.969 658.797H210.516L205.734 673H190.641L215.297 603.906ZM264.891 604H313.875V616.141H279.234V632.031H309.562V644.031H279.234V673H264.891V604ZM374.672 616.141H338.109V630.812H371.672V642.812H338.109V660.578H376.359V673H324V603.906H374.672V616.141ZM444.891 662.688C450.609 662.688 455.141 660.578 458.484 656.359C461.859 652.141 463.547 646.141 463.547 638.359C463.547 630.609 461.859 624.625 458.484 620.406C455.141 616.156 450.609 614.031 444.891 614.031C439.172 614.031 434.609 616.141 431.203 620.359C427.797 624.578 426.094 630.578 426.094 638.359C426.094 646.141 427.797 652.141 431.203 656.359C434.609 660.578 439.172 662.688 444.891 662.688ZM477.984 638.359C477.984 650.766 474.5 660.266 467.531 666.859C462.312 672.234 454.766 674.922 444.891 674.922C435.016 674.922 427.469 672.234 422.25 666.859C415.25 660.266 411.75 650.766 411.75 638.359C411.75 625.703 415.25 616.203 422.25 609.859C427.469 604.484 435.016 601.797 444.891 601.797C454.766 601.797 462.312 604.484 467.531 609.859C474.5 616.203 477.984 625.703 477.984 638.359ZM489.047 603.906H503.719V646.375C503.719 651.125 504.281 654.594 505.406 656.781C507.156 660.656 510.969 662.594 516.844 662.594C522.688 662.594 526.484 660.656 528.234 656.781C529.359 654.594 529.922 651.125 529.922 646.375V603.906H544.594V646.375C544.594 653.719 543.453 659.438 541.172 663.531C536.922 671.031 528.812 674.781 516.844 674.781C504.875 674.781 496.75 671.031 492.469 663.531C490.188 659.438 489.047 653.719 489.047 646.375V603.906ZM608.625 603.906V616.141H587.953V673H573.422V616.141H552.656V603.906H608.625ZM627.562 651.672C628 654.828 628.859 657.188 630.141 658.75C632.484 661.594 636.5 663.016 642.188 663.016C645.594 663.016 648.359 662.641 650.484 661.891C654.516 660.453 656.531 657.781 656.531 653.875C656.531 651.594 655.531 649.828 653.531 648.578C651.531 647.359 648.391 646.281 644.109 645.344L636.797 643.703C629.609 642.078 624.641 640.312 621.891 638.406C617.234 635.219 614.906 630.234 614.906 623.453C614.906 617.266 617.156 612.125 621.656 608.031C626.156 603.938 632.766 601.891 641.484 601.891C648.766 601.891 654.969 603.828 660.094 607.703C665.25 611.547 667.953 617.141 668.203 624.484H654.328C654.078 620.328 652.266 617.375 648.891 615.625C646.641 614.469 643.844 613.891 640.5 613.891C636.781 613.891 633.812 614.641 631.594 616.141C629.375 617.641 628.266 619.734 628.266 622.422C628.266 624.891 629.359 626.734 631.547 627.953C632.953 628.766 635.953 629.719 640.547 630.812L652.453 633.672C657.672 634.922 661.609 636.594 664.266 638.688C668.391 641.938 670.453 646.641 670.453 652.797C670.453 659.109 668.031 664.359 663.188 668.547C658.375 672.703 651.562 674.781 642.75 674.781C633.75 674.781 626.672 672.734 621.516 668.641C616.359 664.516 613.781 658.859 613.781 651.672H627.562Z" fill="black"/>
<path d="M197.555 732.223C197.555 731.324 197.316 730.684 196.84 730.301C196.371 729.918 195.711 729.727 194.859 729.727H191.496V734.812H194.859C195.711 734.812 196.371 734.605 196.84 734.191C197.316 733.777 197.555 733.121 197.555 732.223ZM201.129 732.199C201.129 734.238 200.613 735.68 199.582 736.523C198.551 737.367 197.078 737.789 195.164 737.789H191.496V744H187.91V726.727H195.434C197.168 726.727 198.551 727.172 199.582 728.062C200.613 728.953 201.129 730.332 201.129 732.199ZM225.877 741.422C227.306 741.422 228.439 740.895 229.275 739.84C230.119 738.785 230.541 737.285 230.541 735.34C230.541 733.402 230.119 731.906 229.275 730.852C228.439 729.789 227.306 729.258 225.877 729.258C224.447 729.258 223.306 729.785 222.455 730.84C221.603 731.895 221.177 733.395 221.177 735.34C221.177 737.285 221.603 738.785 222.455 739.84C223.306 740.895 224.447 741.422 225.877 741.422ZM234.15 735.34C234.15 738.441 233.279 740.816 231.537 742.465C230.232 743.809 228.345 744.48 225.877 744.48C223.408 744.48 221.521 743.809 220.216 742.465C218.466 740.816 217.591 738.441 217.591 735.34C217.591 732.176 218.466 729.801 220.216 728.215C221.521 726.871 223.408 726.199 225.877 726.199C228.345 726.199 230.232 726.871 231.537 728.215C233.279 729.801 234.15 732.176 234.15 735.34ZM253.671 726.727L255.956 736.617L256.448 739.371L256.952 736.676L258.898 726.727H262.706L264.757 736.617L265.284 739.371L265.812 736.723L268.12 726.727H271.788L266.925 744H263.48L261.394 733.898L260.784 730.559L260.175 733.898L258.089 744H254.737L249.839 726.727H253.671ZM301.153 729.785H292.012V733.453H300.403V736.453H292.012V740.895H301.575V744H288.485V726.727H301.153V729.785ZM322.397 729.727V734.367H326.487C327.299 734.367 327.909 734.273 328.315 734.086C329.034 733.758 329.393 733.109 329.393 732.141C329.393 731.094 329.045 730.391 328.35 730.031C327.959 729.828 327.373 729.727 326.592 729.727H322.397ZM327.342 726.727C328.553 726.75 329.483 726.898 330.131 727.172C330.788 727.445 331.342 727.848 331.795 728.379C332.17 728.816 332.467 729.301 332.686 729.832C332.905 730.363 333.014 730.969 333.014 731.648C333.014 732.469 332.807 733.277 332.393 734.074C331.979 734.863 331.295 735.422 330.342 735.75C331.139 736.07 331.702 736.527 332.03 737.121C332.366 737.707 332.534 738.605 332.534 739.816V740.977C332.534 741.766 332.565 742.301 332.627 742.582C332.721 743.027 332.94 743.355 333.284 743.566V744H329.311C329.202 743.617 329.123 743.309 329.077 743.074C328.983 742.59 328.932 742.094 328.924 741.586L328.901 739.98C328.885 738.879 328.682 738.145 328.291 737.777C327.909 737.41 327.186 737.227 326.123 737.227H322.397V744H318.87V726.727H327.342ZM363.305 729.785H354.164V733.453H362.555V736.453H354.164V740.895H363.727V744H350.637V726.727H363.305V729.785ZM384.443 729.727V741H387.771C389.474 741 390.662 740.16 391.334 738.48C391.701 737.559 391.884 736.461 391.884 735.188C391.884 733.43 391.607 732.082 391.052 731.145C390.505 730.199 389.412 729.727 387.771 729.727H384.443ZM388.38 726.727C389.451 726.742 390.341 726.867 391.052 727.102C392.263 727.5 393.244 728.23 393.994 729.293C394.595 730.152 395.005 731.082 395.224 732.082C395.443 733.082 395.552 734.035 395.552 734.941C395.552 737.238 395.091 739.184 394.17 740.777C392.92 742.926 390.99 744 388.38 744H380.939V726.727H388.38ZM437.266 729.727V733.535H441.509C442.266 733.535 442.88 733.395 443.348 733.113C443.825 732.824 444.063 732.316 444.063 731.59C444.063 730.785 443.751 730.254 443.126 729.996C442.587 729.816 441.899 729.727 441.063 729.727H437.266ZM437.266 736.395V741H441.509C442.266 741 442.856 740.898 443.278 740.695C444.044 740.32 444.427 739.602 444.427 738.539C444.427 737.641 444.055 737.023 443.313 736.688C442.899 736.5 442.317 736.402 441.567 736.395H437.266ZM442.212 726.727C444.329 726.758 445.829 727.371 446.712 728.566C447.243 729.301 447.509 730.18 447.509 731.203C447.509 732.258 447.243 733.105 446.712 733.746C446.415 734.105 445.977 734.434 445.399 734.73C446.282 735.051 446.946 735.559 447.391 736.254C447.845 736.949 448.071 737.793 448.071 738.785C448.071 739.809 447.813 740.727 447.298 741.539C446.97 742.078 446.559 742.531 446.067 742.898C445.512 743.32 444.856 743.609 444.098 743.766C443.348 743.922 442.532 744 441.649 744H433.821V726.727H442.212ZM475.362 726.727H479.452L473.674 737.508V744H470.065V737.508L464.088 726.727H468.342L471.928 734.25L475.362 726.727ZM516.408 732.281V730.008C517.462 729.961 518.201 729.891 518.623 729.797C519.295 729.648 519.841 729.352 520.263 728.906C520.552 728.602 520.771 728.195 520.92 727.688C521.005 727.383 521.048 727.156 521.048 727.008H523.826V744H520.404V732.281H516.408ZM546.605 739.066C546.605 739.902 546.82 740.551 547.249 741.012C547.687 741.473 548.288 741.703 549.054 741.703C549.82 741.703 550.417 741.473 550.847 741.012C551.284 740.551 551.503 739.902 551.503 739.066C551.503 738.199 551.28 737.543 550.835 737.098C550.398 736.645 549.804 736.418 549.054 736.418C548.304 736.418 547.706 736.645 547.261 737.098C546.823 737.543 546.605 738.199 546.605 739.066ZM543.136 739.289C543.136 738.336 543.351 737.473 543.78 736.699C544.218 735.926 544.855 735.344 545.691 734.953C544.87 734.406 544.335 733.816 544.085 733.184C543.843 732.543 543.722 731.945 543.722 731.391C543.722 730.156 544.187 729.105 545.116 728.238C546.046 727.363 547.359 726.926 549.054 726.926C550.749 726.926 552.062 727.363 552.991 728.238C553.921 729.105 554.386 730.156 554.386 731.391C554.386 731.945 554.261 732.543 554.011 733.184C553.769 733.816 553.237 734.367 552.417 734.836C553.253 735.305 553.882 735.926 554.304 736.699C554.726 737.473 554.937 738.336 554.937 739.289C554.937 740.719 554.405 741.938 553.343 742.945C552.288 743.945 550.812 744.445 548.913 744.445C547.015 744.445 545.577 743.945 544.601 742.945C543.624 741.938 543.136 740.719 543.136 739.289ZM546.909 731.766C546.909 732.383 547.097 732.887 547.472 733.277C547.855 733.668 548.382 733.863 549.054 733.863C549.734 733.863 550.257 733.668 550.624 733.277C550.999 732.887 551.187 732.383 551.187 731.766C551.187 731.094 550.999 730.57 550.624 730.195C550.257 729.812 549.734 729.621 549.054 729.621C548.382 729.621 547.855 729.812 547.472 730.195C547.097 730.57 546.909 731.094 546.909 731.766ZM570.977 732.984C570.977 731.164 571.501 729.691 572.548 728.566C573.602 727.434 574.97 726.867 576.649 726.867C579.235 726.867 581.009 728.012 581.97 730.301C582.516 731.598 582.79 733.305 582.79 735.422C582.79 737.477 582.528 739.191 582.005 740.566C581.005 743.184 579.169 744.492 576.497 744.492C575.223 744.492 574.079 744.117 573.063 743.367C572.048 742.609 571.466 741.508 571.317 740.062H574.645C574.723 740.562 574.934 740.969 575.278 741.281C575.622 741.594 576.079 741.75 576.649 741.75C577.751 741.75 578.524 741.141 578.97 739.922C579.212 739.25 579.364 738.27 579.427 736.98C579.122 737.363 578.798 737.656 578.454 737.859C577.829 738.234 577.059 738.422 576.145 738.422C574.794 738.422 573.595 737.957 572.548 737.027C571.501 736.09 570.977 734.742 570.977 732.984ZM576.872 735.703C577.333 735.703 577.766 735.57 578.173 735.305C578.93 734.82 579.309 733.98 579.309 732.785C579.309 731.824 579.083 731.062 578.63 730.5C578.184 729.938 577.571 729.656 576.79 729.656C576.22 729.656 575.731 729.816 575.325 730.137C574.684 730.637 574.364 731.484 574.364 732.68C574.364 733.688 574.567 734.445 574.973 734.953C575.387 735.453 576.02 735.703 576.872 735.703ZM599.686 732.281V730.008C600.741 729.961 601.479 729.891 601.901 729.797C602.573 729.648 603.12 729.352 603.541 728.906C603.83 728.602 604.049 728.195 604.198 727.688C604.284 727.383 604.327 727.156 604.327 727.008H607.104V744H603.682V732.281H599.686Z" fill="black"/>
<defs>
<linearGradient id="paint0_linear" x1="127.114" y1="151.931" x2="672.226" y2="490.215" gradientUnits="userSpaceOnUse">
<stop stop-color="#1CC6B6"/>
<stop offset="1" stop-color="#159A8E"/>
</linearGradient>
<linearGradient id="paint1_linear" x1="127.114" y1="151.931" x2="672.226" y2="490.215" gradientUnits="userSpaceOnUse">
<stop stop-color="#1CC6B6"/>
<stop offset="1" stop-color="#159A8E"/>
</linearGradient>
<linearGradient id="paint2_linear" x1="127.114" y1="151.931" x2="672.226" y2="490.215" gradientUnits="userSpaceOnUse">
<stop stop-color="#1CC6B6"/>
<stop offset="1" stop-color="#159A8E"/>
</linearGradient>
<linearGradient id="paint3_linear" x1="127.114" y1="151.931" x2="672.226" y2="490.215" gradientUnits="userSpaceOnUse">
<stop stop-color="#1CC6B6"/>
<stop offset="1" stop-color="#159A8E"/>
</linearGradient>
</defs>
</svg>
