<svg width="830" height="248" viewBox="0 0 830 248" fill="none" xmlns="http://www.w3.org/2000/svg">
<path d="M98.8213 57.8319V1.31436L65.5894 20.1535L66.0266 76.6711L196.768 152.904V210.298L230 190.582V134.065L98.8213 57.8319Z" fill="url(#paint0_linear)"/>
<path d="M131.616 38.9927V1.31436V0L230 57.8319V95.5103L131.616 38.9927Z" fill="url(#paint1_linear)"/>
<path d="M32.3574 96.3865V39.4309L0 58.27V115.226L131.616 191.021V247.538L163.973 228.699V172.181L32.3574 96.3865Z" fill="url(#paint2_linear)"/>
<path d="M0.437262 191.459V153.78L97.5095 210.298V247.538L0.437262 191.459Z" fill="url(#paint3_linear)"/>
<path d="M124.102 87.4523C134.539 90.1223 145.226 84.0688 147.975 73.9298C150.723 63.7924 144.492 53.4091 134.056 50.7394C123.618 48.0694 112.93 54.1243 110.182 64.2613C107.434 74.4007 113.664 84.783 124.102 87.4523Z" fill="#333333"/>
<path d="M138.645 102.926L162.71 112.868L168.2 115.294C170.843 117.105 171.819 120.558 170.344 123.467C168.802 126.509 165.11 127.85 161.914 126.652L132.746 116.499C131.348 123.117 129.572 129.521 128.308 133.792L140.59 148.392L141.053 148.942C142.349 150.481 143.002 152.333 143.044 154.178L143.845 189.119C143.951 193.711 140.202 197.517 135.474 197.62C130.98 197.717 127.214 194.4 126.764 190.13L123.564 158.997L111.078 146.126L107.716 160.992L107.549 161.73C106.858 164.786 104.572 167.148 101.768 168.179L70.6616 179.357C66.2256 180.951 61.2996 178.75 59.6585 174.44C58.1051 170.362 60.0832 165.844 64.057 164.021L88.8548 152.736L91.4286 135.36C91.5495 134.544 96.8426 105.656 96.8426 105.656L88.9654 106.937L86.4701 124.729C86.0054 128.039 82.8658 130.358 79.4574 129.907C76.3889 129.5 74.1491 126.986 74.0724 124.073L73.4023 99.5844C73.3125 96.2923 75.5282 93.4608 78.6229 92.5505L79.7605 92.2184L102.584 85.5122C112.432 82.9171 124.956 87.1445 134.951 100.399C136.063 101.873 138.645 102.926 138.645 102.926Z" fill="#333333"/>
<path d="M297.938 119.21C298.375 122.366 299.234 124.726 300.516 126.288C302.859 129.132 306.875 130.554 312.562 130.554C315.969 130.554 318.734 130.179 320.859 129.429C324.891 127.991 326.906 125.319 326.906 121.413C326.906 119.132 325.906 117.366 323.906 116.116C321.906 114.897 318.766 113.819 314.484 112.882L307.172 111.241C299.984 109.616 295.016 107.851 292.266 105.944C287.609 102.757 285.281 97.7725 285.281 90.9912C285.281 84.8037 287.531 79.6631 292.031 75.5693C296.531 71.4756 303.141 69.4287 311.859 69.4287C319.141 69.4287 325.344 71.3662 330.469 75.2412C335.625 79.085 338.328 84.6787 338.578 92.0225H324.703C324.453 87.8662 322.641 84.9131 319.266 83.1631C317.016 82.0068 314.219 81.4287 310.875 81.4287C307.156 81.4287 304.188 82.1787 301.969 83.6787C299.75 85.1787 298.641 87.2725 298.641 89.96C298.641 92.4287 299.734 94.2725 301.922 95.4912C303.328 96.3037 306.328 97.2568 310.922 98.3506L322.828 101.21C328.047 102.46 331.984 104.132 334.641 106.226C338.766 109.476 340.828 114.179 340.828 120.335C340.828 126.647 338.406 131.897 333.562 136.085C328.75 140.241 321.938 142.319 313.125 142.319C304.125 142.319 297.047 140.272 291.891 136.179C286.734 132.054 284.156 126.397 284.156 119.21H297.938ZM370.406 114.429H387.938L379.312 87.2412L370.406 114.429ZM371.297 71.4443H387.609L412.078 140.538H396.422L391.969 126.335H366.516L361.734 140.538H346.641L371.297 71.4443ZM420.891 71.5381H469.875V83.6787H435.234V99.5693H465.562V111.569H435.234V140.538H420.891V71.5381ZM530.672 83.6787H494.109V98.3506H527.672V110.351H494.109V128.116H532.359V140.538H480V71.4443H530.672V83.6787ZM600.891 130.226C606.609 130.226 611.141 128.116 614.484 123.897C617.859 119.679 619.547 113.679 619.547 105.897C619.547 98.1475 617.859 92.1631 614.484 87.9443C611.141 83.6943 606.609 81.5693 600.891 81.5693C595.172 81.5693 590.609 83.6787 587.203 87.8975C583.797 92.1162 582.094 98.1162 582.094 105.897C582.094 113.679 583.797 119.679 587.203 123.897C590.609 128.116 595.172 130.226 600.891 130.226ZM633.984 105.897C633.984 118.304 630.5 127.804 623.531 134.397C618.312 139.772 610.766 142.46 600.891 142.46C591.016 142.46 583.469 139.772 578.25 134.397C571.25 127.804 567.75 118.304 567.75 105.897C567.75 93.2412 571.25 83.7412 578.25 77.3975C583.469 72.0225 591.016 69.335 600.891 69.335C610.766 69.335 618.312 72.0225 623.531 77.3975C630.5 83.7412 633.984 93.2412 633.984 105.897ZM645.047 71.4443H659.719V113.913C659.719 118.663 660.281 122.132 661.406 124.319C663.156 128.194 666.969 130.132 672.844 130.132C678.688 130.132 682.484 128.194 684.234 124.319C685.359 122.132 685.922 118.663 685.922 113.913V71.4443H700.594V113.913C700.594 121.257 699.453 126.976 697.172 131.069C692.922 138.569 684.812 142.319 672.844 142.319C660.875 142.319 652.75 138.569 648.469 131.069C646.188 126.976 645.047 121.257 645.047 113.913V71.4443ZM764.625 71.4443V83.6787H743.953V140.538H729.422V83.6787H708.656V71.4443H764.625ZM783.562 119.21C784 122.366 784.859 124.726 786.141 126.288C788.484 129.132 792.5 130.554 798.188 130.554C801.594 130.554 804.359 130.179 806.484 129.429C810.516 127.991 812.531 125.319 812.531 121.413C812.531 119.132 811.531 117.366 809.531 116.116C807.531 114.897 804.391 113.819 800.109 112.882L792.797 111.241C785.609 109.616 780.641 107.851 777.891 105.944C773.234 102.757 770.906 97.7725 770.906 90.9912C770.906 84.8037 773.156 79.6631 777.656 75.5693C782.156 71.4756 788.766 69.4287 797.484 69.4287C804.766 69.4287 810.969 71.3662 816.094 75.2412C821.25 79.085 823.953 84.6787 824.203 92.0225H810.328C810.078 87.8662 808.266 84.9131 804.891 83.1631C802.641 82.0068 799.844 81.4287 796.5 81.4287C792.781 81.4287 789.812 82.1787 787.594 83.6787C785.375 85.1787 784.266 87.2725 784.266 89.96C784.266 92.4287 785.359 94.2725 787.547 95.4912C788.953 96.3037 791.953 97.2568 796.547 98.3506L808.453 101.21C813.672 102.46 817.609 104.132 820.266 106.226C824.391 109.476 826.453 114.179 826.453 120.335C826.453 126.647 824.031 131.897 819.188 136.085C814.375 140.241 807.562 142.319 798.75 142.319C789.75 142.319 782.672 140.272 777.516 136.179C772.359 132.054 769.781 126.397 769.781 119.21H783.562Z" fill="black"/>
<path d="M353.555 187.761C353.555 186.862 353.316 186.222 352.84 185.839C352.371 185.456 351.711 185.265 350.859 185.265H347.496V190.351H350.859C351.711 190.351 352.371 190.144 352.84 189.729C353.316 189.315 353.555 188.659 353.555 187.761ZM357.129 187.737C357.129 189.776 356.613 191.218 355.582 192.062C354.551 192.905 353.078 193.327 351.164 193.327H347.496V199.538H343.91V182.265H351.434C353.168 182.265 354.551 182.71 355.582 183.601C356.613 184.491 357.129 185.87 357.129 187.737ZM381.877 196.96C383.306 196.96 384.439 196.433 385.275 195.378C386.119 194.323 386.541 192.823 386.541 190.878C386.541 188.94 386.119 187.444 385.275 186.39C384.439 185.327 383.306 184.796 381.877 184.796C380.447 184.796 379.306 185.323 378.455 186.378C377.603 187.433 377.177 188.933 377.177 190.878C377.177 192.823 377.603 194.323 378.455 195.378C379.306 196.433 380.447 196.96 381.877 196.96ZM390.15 190.878C390.15 193.979 389.279 196.354 387.537 198.003C386.232 199.347 384.345 200.019 381.877 200.019C379.408 200.019 377.521 199.347 376.216 198.003C374.466 196.354 373.591 193.979 373.591 190.878C373.591 187.714 374.466 185.339 376.216 183.753C377.521 182.409 379.408 181.737 381.877 181.737C384.345 181.737 386.232 182.409 387.537 183.753C389.279 185.339 390.15 187.714 390.15 190.878ZM409.671 182.265L411.956 192.155L412.448 194.909L412.952 192.214L414.898 182.265H418.706L420.757 192.155L421.284 194.909L421.812 192.261L424.12 182.265H427.788L422.925 199.538H419.48L417.394 189.437L416.784 186.097L416.175 189.437L414.089 199.538H410.737L405.839 182.265H409.671ZM457.153 185.323H448.012V188.991H456.403V191.991H448.012V196.433H457.575V199.538H444.485V182.265H457.153V185.323ZM478.397 185.265V189.905H482.487C483.299 189.905 483.909 189.812 484.315 189.624C485.034 189.296 485.393 188.647 485.393 187.679C485.393 186.632 485.045 185.929 484.35 185.569C483.959 185.366 483.373 185.265 482.592 185.265H478.397ZM483.342 182.265C484.553 182.288 485.483 182.437 486.131 182.71C486.788 182.983 487.342 183.386 487.795 183.917C488.17 184.354 488.467 184.839 488.686 185.37C488.905 185.901 489.014 186.507 489.014 187.187C489.014 188.007 488.807 188.815 488.393 189.612C487.979 190.401 487.295 190.96 486.342 191.288C487.139 191.608 487.702 192.065 488.03 192.659C488.366 193.245 488.534 194.144 488.534 195.354V196.515C488.534 197.304 488.565 197.839 488.627 198.12C488.721 198.565 488.94 198.894 489.284 199.104V199.538H485.311C485.202 199.155 485.123 198.847 485.077 198.612C484.983 198.128 484.932 197.632 484.924 197.124L484.901 195.519C484.885 194.417 484.682 193.683 484.291 193.315C483.909 192.948 483.186 192.765 482.123 192.765H478.397V199.538H474.87V182.265H483.342ZM519.305 185.323H510.164V188.991H518.555V191.991H510.164V196.433H519.727V199.538H506.637V182.265H519.305V185.323ZM540.443 185.265V196.538H543.771C545.474 196.538 546.662 195.698 547.334 194.019C547.701 193.097 547.884 191.999 547.884 190.726C547.884 188.968 547.607 187.62 547.052 186.683C546.505 185.737 545.412 185.265 543.771 185.265H540.443ZM544.38 182.265C545.451 182.28 546.341 182.405 547.052 182.64C548.263 183.038 549.244 183.769 549.994 184.831C550.595 185.69 551.005 186.62 551.224 187.62C551.443 188.62 551.552 189.573 551.552 190.479C551.552 192.776 551.091 194.722 550.17 196.315C548.92 198.464 546.99 199.538 544.38 199.538H536.939V182.265H544.38ZM593.266 185.265V189.073H597.509C598.266 189.073 598.88 188.933 599.348 188.651C599.825 188.362 600.063 187.854 600.063 187.128C600.063 186.323 599.751 185.792 599.126 185.534C598.587 185.354 597.899 185.265 597.063 185.265H593.266ZM593.266 191.933V196.538H597.509C598.266 196.538 598.856 196.437 599.278 196.233C600.044 195.858 600.427 195.14 600.427 194.077C600.427 193.179 600.055 192.562 599.313 192.226C598.899 192.038 598.317 191.94 597.567 191.933H593.266ZM598.212 182.265C600.329 182.296 601.829 182.909 602.712 184.104C603.243 184.839 603.509 185.718 603.509 186.741C603.509 187.796 603.243 188.644 602.712 189.284C602.415 189.644 601.977 189.972 601.399 190.269C602.282 190.589 602.946 191.097 603.391 191.792C603.845 192.487 604.071 193.331 604.071 194.323C604.071 195.347 603.813 196.265 603.298 197.077C602.97 197.616 602.559 198.069 602.067 198.437C601.512 198.858 600.856 199.147 600.098 199.304C599.348 199.46 598.532 199.538 597.649 199.538H589.821V182.265H598.212ZM631.362 182.265H635.452L629.674 193.046V199.538H626.065V193.046L620.088 182.265H624.342L627.928 189.788L631.362 182.265ZM672.408 187.819V185.546C673.462 185.499 674.201 185.429 674.623 185.335C675.295 185.187 675.841 184.89 676.263 184.444C676.552 184.14 676.771 183.733 676.92 183.226C677.005 182.921 677.048 182.694 677.048 182.546H679.826V199.538H676.404V187.819H672.408ZM702.605 194.604C702.605 195.44 702.82 196.089 703.249 196.55C703.687 197.011 704.288 197.241 705.054 197.241C705.82 197.241 706.417 197.011 706.847 196.55C707.284 196.089 707.503 195.44 707.503 194.604C707.503 193.737 707.28 193.081 706.835 192.636C706.398 192.183 705.804 191.956 705.054 191.956C704.304 191.956 703.706 192.183 703.261 192.636C702.823 193.081 702.605 193.737 702.605 194.604ZM699.136 194.827C699.136 193.874 699.351 193.011 699.78 192.237C700.218 191.464 700.855 190.882 701.691 190.491C700.87 189.944 700.335 189.354 700.085 188.722C699.843 188.081 699.722 187.483 699.722 186.929C699.722 185.694 700.187 184.644 701.116 183.776C702.046 182.901 703.359 182.464 705.054 182.464C706.749 182.464 708.062 182.901 708.991 183.776C709.921 184.644 710.386 185.694 710.386 186.929C710.386 187.483 710.261 188.081 710.011 188.722C709.769 189.354 709.237 189.905 708.417 190.374C709.253 190.843 709.882 191.464 710.304 192.237C710.726 193.011 710.937 193.874 710.937 194.827C710.937 196.257 710.405 197.476 709.343 198.483C708.288 199.483 706.812 199.983 704.913 199.983C703.015 199.983 701.577 199.483 700.601 198.483C699.624 197.476 699.136 196.257 699.136 194.827ZM702.909 187.304C702.909 187.921 703.097 188.425 703.472 188.815C703.855 189.206 704.382 189.401 705.054 189.401C705.734 189.401 706.257 189.206 706.624 188.815C706.999 188.425 707.187 187.921 707.187 187.304C707.187 186.632 706.999 186.108 706.624 185.733C706.257 185.351 705.734 185.159 705.054 185.159C704.382 185.159 703.855 185.351 703.472 185.733C703.097 186.108 702.909 186.632 702.909 187.304ZM726.977 188.522C726.977 186.702 727.501 185.229 728.548 184.104C729.602 182.972 730.97 182.405 732.649 182.405C735.235 182.405 737.009 183.55 737.97 185.839C738.516 187.136 738.79 188.843 738.79 190.96C738.79 193.015 738.528 194.729 738.005 196.104C737.005 198.722 735.169 200.03 732.497 200.03C731.223 200.03 730.079 199.655 729.063 198.905C728.048 198.147 727.466 197.046 727.317 195.601H730.645C730.723 196.101 730.934 196.507 731.278 196.819C731.622 197.132 732.079 197.288 732.649 197.288C733.751 197.288 734.524 196.679 734.97 195.46C735.212 194.788 735.364 193.808 735.427 192.519C735.122 192.901 734.798 193.194 734.454 193.397C733.829 193.772 733.059 193.96 732.145 193.96C730.794 193.96 729.595 193.495 728.548 192.565C727.501 191.628 726.977 190.28 726.977 188.522ZM732.872 191.241C733.333 191.241 733.766 191.108 734.173 190.843C734.93 190.358 735.309 189.519 735.309 188.323C735.309 187.362 735.083 186.601 734.63 186.038C734.184 185.476 733.571 185.194 732.79 185.194C732.22 185.194 731.731 185.354 731.325 185.675C730.684 186.175 730.364 187.022 730.364 188.218C730.364 189.226 730.567 189.983 730.973 190.491C731.387 190.991 732.02 191.241 732.872 191.241ZM755.686 187.819V185.546C756.741 185.499 757.479 185.429 757.901 185.335C758.573 185.187 759.12 184.89 759.541 184.444C759.83 184.14 760.049 183.733 760.198 183.226C760.284 182.921 760.327 182.694 760.327 182.546H763.104V199.538H759.682V187.819H755.686Z" fill="black"/>
<defs>
<linearGradient id="paint0_linear" x1="-20.9886" y1="45.5645" x2="252.161" y2="215.075" gradientUnits="userSpaceOnUse">
<stop stop-color="#1CC6B6"/>
<stop offset="1" stop-color="#159A8E"/>
</linearGradient>
<linearGradient id="paint1_linear" x1="-20.9886" y1="45.5645" x2="252.161" y2="215.075" gradientUnits="userSpaceOnUse">
<stop stop-color="#1CC6B6"/>
<stop offset="1" stop-color="#159A8E"/>
</linearGradient>
<linearGradient id="paint2_linear" x1="-20.9886" y1="45.5645" x2="252.161" y2="215.075" gradientUnits="userSpaceOnUse">
<stop stop-color="#1CC6B6"/>
<stop offset="1" stop-color="#159A8E"/>
</linearGradient>
<linearGradient id="paint3_linear" x1="-20.9886" y1="45.5645" x2="252.161" y2="215.075" gradientUnits="userSpaceOnUse">
<stop stop-color="#1CC6B6"/>
<stop offset="1" stop-color="#159A8E"/>
</linearGradient>
</defs>
</svg>
