<svg width="360" height="360" viewBox="0 0 360 360" fill="none" xmlns="http://www.w3.org/2000/svg">
<path d="M238.188 157.902C230.55 157.907 222.965 156.634 215.747 154.135C206.072 150.789 198.145 146.175 192.188 140.42C180.92 129.534 171.681 127.893 165.917 128.433C159.677 129.018 156.044 132.214 156.008 132.246L155.76 131.969C155.797 131.937 159.504 128.669 165.858 128.066C169.584 127.712 173.481 128.328 177.44 129.896C182.377 131.852 187.426 135.302 192.447 140.153C198.364 145.87 206.245 150.456 215.869 153.783C233.537 159.891 253.449 158.413 270.499 149.726C276.145 146.849 281.725 144.886 287.083 143.89C293.841 142.634 300.25 142.926 306.133 144.756C319.06 148.778 327.89 148.565 333.022 147.678C338.557 146.721 341.072 144.806 341.094 144.787L341.324 145.08C341.22 145.161 338.712 147.072 333.085 148.044C327.915 148.938 319.019 149.155 306.022 145.111C292.862 141.017 279.532 145.541 270.668 150.057C262.241 154.373 253.038 156.969 243.597 157.694C241.787 157.832 239.984 157.901 238.188 157.902Z" fill="#3F3D56"/>
<path d="M237.437 162.515C239.518 162.515 241.205 160.828 241.205 158.747C241.205 156.666 239.518 154.98 237.437 154.98C235.356 154.98 233.67 156.666 233.67 158.747C233.67 160.828 235.356 162.515 237.437 162.515Z" fill="#1CC6B6"/>
<path d="M295.804 147.458C297.885 147.458 299.571 145.771 299.571 143.691C299.571 141.61 297.885 139.924 295.804 139.924C293.723 139.924 292.037 141.61 292.037 143.691C292.037 145.771 293.723 147.458 295.804 147.458Z" fill="#159A8E"/>
<path d="M174.423 132.774C176.504 132.774 178.19 131.087 178.19 129.006C178.19 126.925 176.504 125.239 174.423 125.239C172.342 125.239 170.655 126.925 170.655 129.006C170.655 131.087 172.342 132.774 174.423 132.774Z" fill="#159A8E"/>
<path d="M264.454 215.295V251.695H270.177V218.5H293.071V251.695H298.794V178.894H293.071C291.174 178.894 288.263 188.772 288.263 198.697C288.263 206.178 289.137 212.589 290.379 215.295H264.454ZM293.071 215.295H293.015C293.034 215.254 293.052 215.211 293.071 215.168V215.295Z" fill="#3F3D56"/>
<path d="M285.663 160.877C280.965 160.877 277.157 165.104 277.157 170.317V176.942H279.194L280.374 174.487L280.079 176.942H293.173L294.246 174.71L293.977 176.942H295.452V171.74C295.452 165.741 291.069 160.877 285.663 160.877Z" fill="#2F2E41"/>
<path d="M275.917 204.155L270.694 206.375L252.544 221.129C251.877 221.949 251.468 222.949 251.369 224.002C251.239 225.699 245.754 234.578 247.713 235.753C249.672 236.928 256.723 240.454 257.114 238.103C257.506 235.753 259.595 225.699 259.595 225.699L277.092 210.031L275.917 204.155Z" fill="#2F2E41"/>
<path d="M255.417 236.145L253.197 242.673C253.197 242.673 255.547 245.154 254.372 247.243V254.424H252.544L252.022 250.638C252.022 250.638 249.939 254.377 248.888 254.424C246.683 254.525 242.318 255.309 242.187 254.134C242.057 252.959 245.493 251.813 245.493 251.813L249.149 241.759L250.716 235.622L255.417 236.145Z" fill="#2F2E41"/>
<path d="M289.496 202.458C289.496 202.458 290.671 213.948 287.276 216.037C283.881 218.126 268.866 224.785 268.866 224.785C268.866 224.785 275.264 230.791 273.958 232.227C272.652 233.664 266.776 237.581 265.993 236.798C265.21 236.014 256.461 226.613 257.506 223.61C258.55 220.607 273.044 210.814 273.044 210.814L274.741 204.677L275.264 199.716L280.748 196.19L289.496 202.458Z" fill="#2F2E41"/>
<path d="M283.514 175.706C286.52 175.706 288.957 173.269 288.957 170.262C288.957 167.256 286.52 164.819 283.514 164.819C280.507 164.819 278.07 167.256 278.07 170.262C278.07 173.269 280.507 175.706 283.514 175.706Z" fill="#CC9B77"/>
<path d="M287.733 172.492C287.733 172.492 287.472 177.453 291.52 179.02C295.568 180.587 281.466 190.772 281.466 190.772V179.412C281.466 179.412 283.294 177.453 281.466 174.45L287.733 172.492Z" fill="#CC9B77"/>
<path d="M296.416 195.798L295.372 200.891L292.238 218.387C292.238 218.387 294.849 225.829 291.324 225.699C287.798 225.568 289.496 217.604 289.496 217.604L291.324 203.11V197.496L296.416 195.798Z" fill="#CC9B77"/>
<path d="M273.958 193.318L272.782 197.888L267.429 210.814C267.429 210.814 263.773 216.951 266.776 216.82C269.779 216.69 269.779 210.814 269.779 210.814L275.916 200.368V194.493L273.958 193.318Z" fill="#CC9B77"/>
<path d="M273.044 231.444L277.353 235.492C277.353 235.492 280.356 234.839 281.531 238.364C282.706 241.89 283.49 244.109 283.49 244.109L281.923 245.023L279.964 242.281C279.964 242.281 278.789 247.243 277.614 247.635C276.438 248.026 270.563 250.638 271.085 247.635L273.958 243.457C273.958 243.457 274.35 238.756 273.174 238.364C271.999 237.973 268.866 234.055 268.866 234.055L273.044 231.444Z" fill="#2F2E41"/>
<path d="M289.703 206.505C289.703 206.505 277.429 202.066 276.646 202.457C276.062 202.715 275.441 202.876 274.807 202.935L274.818 201.152C274.818 201.152 278.865 199.716 281.085 200.629C283.305 201.544 290.095 205.591 290.095 205.591L289.703 206.505Z" fill="#3F3D56"/>
<path d="M282.249 188.16C282.249 188.16 285.775 184.112 286.819 181.632C287.48 180.128 288.693 178.935 290.208 178.299C290.208 178.299 298.048 180.065 297.918 183.198C297.787 186.332 292.956 191.163 292.956 191.163C292.956 191.163 293.609 208.529 290.083 208.268C289.323 207.36 288.786 206.287 288.516 205.134C288.125 203.306 275.982 201.348 275.982 201.348C275.982 201.348 274.937 203.176 274.807 202.392C274.676 201.609 275.851 182.415 275.851 182.415L282.078 178.299L282.249 188.16Z" fill="#CFCCE0"/>
<path d="M296.912 181.937L296.999 181.986C297.279 182.143 297.511 182.371 297.673 182.647C297.834 182.923 297.919 183.237 297.919 183.557L297.918 193.247C297.919 193.511 297.977 193.771 298.089 194.009C298.2 194.248 298.362 194.459 298.564 194.629C299.067 195.057 299.533 195.673 298.571 195.994C297.004 196.517 290.867 199.128 290.736 198.214C290.606 197.3 290.345 196.255 290.736 196.255C291.043 196.255 292.87 186.893 294.338 182.889C294.428 182.644 294.57 182.421 294.754 182.237C294.938 182.052 295.16 181.909 295.405 181.819C295.65 181.728 295.912 181.692 296.172 181.712C296.432 181.733 296.684 181.809 296.912 181.937Z" fill="#CFCCE0"/>
<path d="M277.614 181.958L275.786 182.48L273.697 191.49C273.697 191.49 271.216 192.012 271.999 192.926C272.783 193.84 276.047 196.19 276.047 196.19L277.614 181.958Z" fill="#CFCCE0"/>
<path d="M288.082 163.478C287.672 162.928 287.142 162.48 286.531 162.169C285.921 161.857 285.247 161.69 284.562 161.682H284.394C281.175 161.682 278.564 164.595 278.564 168.19H279.643L279.817 166.863L280.073 168.19H286.472L287.008 167.067L286.874 168.19H288.133C288.72 171.107 287.876 174.024 285.601 176.942H287.745L288.818 174.697L288.55 176.942H292.637L293.442 171.78C293.442 167.915 291.196 164.637 288.082 163.478Z" fill="#2F2E41"/>
<path d="M178.723 223.705C180.097 220.714 181.063 213.625 181.063 205.353C181.063 194.379 177.844 183.458 175.747 183.458H169.419V263.951H175.747V227.248H201.06V263.951H207.388V223.705H178.723ZM175.747 223.565C175.768 223.612 175.788 223.66 175.809 223.705H175.747V223.565Z" fill="#3F3D56"/>
<path d="M205.1 209.02C205.1 209.02 212.721 212.18 210.304 214.039C207.888 215.898 202.869 211.808 203.055 211.251C203.241 210.693 202.311 209.392 202.311 209.392L205.1 209.02Z" fill="#FFC9A3"/>
<path d="M198.408 184.112L200.824 186.343L201.382 192.849L203.241 199.726C203.241 199.726 206.401 206.232 205.843 207.533C205.286 208.834 206.401 209.206 206.401 209.206L202.126 210.879C202.126 210.879 197.478 205.674 197.478 204.559C197.478 203.444 198.408 184.112 198.408 184.112Z" fill="#575A88"/>
<path d="M198.408 184.112L200.824 186.343L201.382 192.849L203.241 199.726C203.241 199.726 206.401 206.232 205.843 207.533C205.286 208.834 206.401 209.206 206.401 209.206L202.126 210.879C202.126 210.879 197.478 205.674 197.478 204.559C197.478 203.444 198.408 184.112 198.408 184.112Z" fill="#107A71"/>
<path d="M221.271 251.029C221.271 251.029 220.342 255.304 220.156 255.676C219.97 256.048 223.688 257.349 223.688 257.349L228.149 254.189C228.149 254.189 226.29 250.1 226.29 249.356L221.271 251.029Z" fill="#575A88"/>
<path d="M196.921 209.392L198.222 210.879C198.222 210.879 225.175 214.225 225.732 219.429C226.29 224.634 230.194 249.17 227.963 249.914C225.732 250.657 219.97 253.445 219.97 251.958C219.97 250.471 216.252 230.025 216.996 226.307C216.996 226.307 184.838 222.218 184.095 217.571C183.351 212.924 184.838 210.879 184.838 210.879L196.921 209.392Z" fill="#2F2E41"/>
<path opacity="0.1" d="M196.921 209.392L198.222 210.879C198.222 210.879 225.175 214.225 225.732 219.429C226.29 224.634 230.194 249.17 227.963 249.914C225.732 250.657 219.97 253.445 219.97 251.958C219.97 250.471 216.252 230.025 216.996 226.307C216.996 226.307 184.838 222.218 184.095 217.571C183.351 212.924 184.838 210.879 184.838 210.879L196.921 209.392Z" fill="black"/>
<path d="M220.9 255.304C220.9 255.304 220.156 253.631 219.784 254.189C219.412 254.747 218.111 261.252 219.413 261.252C220.714 261.252 232.61 264.226 234.283 263.855C235.956 263.483 239.116 264.041 238.744 262.182C238.373 260.323 236.514 260.137 236.514 260.137C236.514 260.137 229.636 256.048 229.264 254.003C228.892 251.958 226.848 253.074 226.848 253.074V254.375C226.848 254.375 222.944 257.349 220.9 255.304Z" fill="#2F2E41"/>
<path d="M185.582 169.985C185.582 169.985 186.883 176.305 184.095 176.863C181.307 177.421 187.627 181.138 187.627 181.138L191.716 183.369L194.69 180.395C194.69 180.395 191.995 174.911 194.04 170.822C196.084 166.733 185.582 169.985 185.582 169.985Z" fill="#9F616A"/>
<path d="M194.69 180.395L191.716 183.369L187.627 181.138C187.627 181.138 181.307 177.421 184.095 176.863C185.889 176.504 185.989 173.761 185.835 171.85C185.784 171.224 185.7 170.602 185.582 169.985C185.582 169.985 196.084 166.733 194.04 170.822C193.729 171.453 193.514 172.128 193.4 172.822C192.774 176.497 194.69 180.395 194.69 180.395Z" fill="#FFC9A3"/>
<path d="M205.1 256.419V260.695H212.163L212.721 259.022L211.977 254.561L205.1 256.419Z" fill="#575A88"/>
<path d="M175.916 213.11C175.916 213.11 175.916 224.076 180.377 224.448C184.838 224.82 200.824 226.864 200.824 226.864C200.824 226.864 201.754 245.081 203.427 251.029C205.1 256.977 203.612 257.349 205.1 257.721C206.587 258.092 212.907 256.791 212.721 255.49C212.535 254.189 211.791 221.288 211.791 221.288C211.791 221.288 213.464 214.225 191.158 210.879L175.916 213.11Z" fill="#2F2E41"/>
<path d="M205.657 259.394C205.657 259.394 204.542 256.977 204.356 257.721C204.17 258.464 201.94 264.97 204.17 265.528C206.4 266.085 213.464 269.059 218.111 268.873C222.758 268.687 223.316 268.502 223.316 268.502C223.316 268.502 224.617 266.643 222.944 265.528C221.271 264.412 214.394 257.907 214.022 257.163C213.65 256.419 210.862 255.862 210.862 257.163C210.862 258.464 206.958 261.066 205.657 259.394Z" fill="#2F2E41"/>
<path opacity="0.1" d="M194.04 170.822C193.729 171.453 193.514 172.128 193.4 172.822C192.475 173.382 191.856 173.238 190.694 173.238C188.971 173.238 188.275 171.036 187.162 169.893C187.075 168.831 185.582 169.985 185.582 169.985C185.582 169.985 196.084 166.733 194.04 170.822Z" fill="black"/>
<path d="M190.229 173.146C193.617 173.146 196.363 170.399 196.363 167.011C196.363 163.624 193.617 160.877 190.229 160.877C186.841 160.877 184.095 163.624 184.095 167.011C184.095 170.399 186.841 173.146 190.229 173.146Z" fill="#FFC9A3"/>
<path d="M200.824 186.343C200.824 186.343 199.895 193.035 199.338 195.451C198.78 197.867 198.036 209.02 197.664 210.507C197.293 211.994 195.062 212.366 190.601 211.808C190.321 211.773 190.039 211.752 189.757 211.745C187.01 211.658 183.866 212.686 180.957 213.492C179.284 213.957 177.688 214.348 176.288 214.411C174.169 214.507 173.548 212.158 173.62 209.615C173.689 207.249 174.36 204.711 174.987 203.815C176.115 202.202 175.005 187.716 175.422 182.939V182.938C175.485 182.209 175.583 181.707 175.73 181.51C176.846 180.023 184.095 176.305 184.907 176.456C185.718 176.606 192.646 180.952 192.646 180.952C194.319 180.952 194.265 179.138 194.265 179.138C194.265 179.138 195.434 181.324 197.664 181.882C199.895 182.439 200.824 186.343 200.824 186.343Z" fill="#159A8E"/>
<path d="M188.399 210.441C188.399 210.441 200.372 210.822 198.275 212.244C196.177 213.667 186.883 214.968 186.697 213.11C186.511 211.251 188.399 210.441 188.399 210.441Z" fill="#FFC9A3"/>
<path opacity="0.1" d="M189.757 211.745C189.796 212.459 187.876 214.067 187.255 215.154C186.911 215.756 184.249 214.963 180.957 213.492C178.431 212.358 175.98 211.063 173.62 209.615C173.689 207.249 174.36 204.712 174.987 203.815C176.115 202.202 175.005 187.716 175.422 182.939V182.938C175.521 182.887 175.624 182.845 175.73 182.811H177.961C185.582 186.343 176.846 201.585 176.846 201.585C176.846 201.585 188.37 211.065 189.485 211.436C189.558 211.451 189.625 211.488 189.674 211.544C189.723 211.6 189.752 211.671 189.757 211.745Z" fill="black"/>
<path d="M177.961 181.696H175.73C175.73 181.696 173.685 182.253 172.012 185.971C170.34 189.689 164.205 201.213 169.596 205.674C174.986 210.136 186.511 215.34 187.255 214.039C187.998 212.738 190.601 210.693 189.485 210.321C188.37 209.95 176.845 200.47 176.845 200.47C176.845 200.47 185.582 185.228 177.961 181.696Z" fill="#107A71"/>
<path d="M189.285 164.157C189.285 164.157 189.554 160.431 192.875 161.95C196.196 163.47 195.98 159.281 194.976 158.541C193.972 157.801 194.004 157.618 190.334 158.113C186.663 158.608 179.537 159.447 181.842 166.827C184.146 174.208 186.232 172.309 186.232 172.309C186.232 172.309 184.401 165.668 186.257 166.933L188.113 168.198L189.092 167.991L189.285 164.157Z" fill="#2F2E41"/>
<path d="M326.313 217.816C326.313 214.461 301.381 211.741 270.626 211.741C239.871 211.741 214.938 214.461 214.938 217.816C214.938 219.116 218.685 220.321 225.063 221.309V262.871H228.101V221.737C238.316 223.054 253.574 223.89 270.626 223.89C287.819 223.89 303.189 223.04 313.404 221.705V262.871H316.441V221.269C322.666 220.289 326.313 219.099 326.313 217.816Z" fill="#3F3D56"/>
<path d="M277.603 217.943C283.865 217.943 288.942 216.694 288.942 215.154C288.942 213.614 283.865 212.366 277.603 212.366C271.341 212.366 266.264 213.614 266.264 215.154C266.264 216.694 271.341 217.943 277.603 217.943Z" fill="#F2F2F2"/>
<path d="M277.603 217.44C282.736 217.44 286.897 216.416 286.897 215.154C286.897 213.892 282.736 212.869 277.603 212.869C272.47 212.869 268.309 213.892 268.309 215.154C268.309 216.416 272.47 217.44 277.603 217.44Z" fill="#CFCCE0"/>
<path d="M235.407 220.173C241.669 220.173 246.746 218.925 246.746 217.385C246.746 215.845 241.669 214.596 235.407 214.596C229.145 214.596 224.068 215.845 224.068 217.385C224.068 218.925 229.145 220.173 235.407 220.173Z" fill="#F2F2F2"/>
<path d="M235.407 219.67C240.54 219.67 244.701 218.647 244.701 217.385C244.701 216.122 240.54 215.099 235.407 215.099C230.274 215.099 226.113 216.122 226.113 217.385C226.113 218.647 230.274 219.67 235.407 219.67Z" fill="#CFCCE0"/>
<path d="M277.339 214.957C280.324 214.957 282.744 214.575 282.744 214.104C282.744 213.632 280.324 213.25 277.339 213.25C274.353 213.25 271.933 213.632 271.933 214.104C271.933 214.575 274.353 214.957 277.339 214.957Z" fill="#9F616A"/>
<path d="M274.458 213.784C275.401 213.784 276.165 213.37 276.165 212.859C276.165 212.348 275.401 211.935 274.458 211.935C273.515 211.935 272.751 212.348 272.751 212.859C272.751 213.37 273.515 213.784 274.458 213.784Z" fill="#159A8E"/>
<path d="M273.818 213.784C274.761 213.784 275.525 213.37 275.525 212.859C275.525 212.348 274.761 211.935 273.818 211.935C272.875 211.935 272.111 212.348 272.111 212.859C272.111 213.37 272.875 213.784 273.818 213.784Z" fill="#159A8E"/>
<path d="M281.286 213.997C282.229 213.997 282.993 213.583 282.993 213.072C282.993 212.562 282.229 212.148 281.286 212.148C280.343 212.148 279.579 212.562 279.579 213.072C279.579 213.583 280.343 213.997 281.286 213.997Z" fill="#159A8E"/>
<path d="M277.374 213.784C278.317 213.784 279.082 213.37 279.082 212.859C279.082 212.348 278.317 211.935 277.374 211.935C276.432 211.935 275.668 212.348 275.668 212.859C275.668 213.37 276.432 213.784 277.374 213.784Z" fill="#159A8E"/>
<path d="M280.29 213.784C281.233 213.784 281.997 213.37 281.997 212.859C281.997 212.348 281.233 211.935 280.29 211.935C279.348 211.935 278.583 212.348 278.583 212.859C278.583 213.37 279.348 213.784 280.29 213.784Z" fill="#159A8E"/>
<path d="M282.496 212.29C279.41 213.337 275.949 213.337 272.111 212.29V212.146C272.11 211.058 272.528 210.011 273.278 209.222C274.028 208.433 275.052 207.962 276.139 207.907C277.054 207.861 277.971 207.862 278.885 207.911C279.863 207.968 280.782 208.397 281.454 209.11C282.125 209.824 282.498 210.767 282.496 211.747V212.29Z" fill="#3F3D56"/>
<path d="M280.981 216.21C278.701 216.44 276.404 216.44 274.123 216.21C273.583 216.157 273.081 215.904 272.716 215.502C272.35 215.1 272.148 214.576 272.147 214.033H282.958C282.957 214.576 282.754 215.1 282.389 215.502C282.023 215.904 281.522 216.157 280.981 216.21Z" fill="#3F3D56"/>
<path d="M275.881 209.232C275.633 209.335 275.367 209.388 275.098 209.388C274.83 209.388 274.564 209.335 274.316 209.232C274.564 209.129 274.83 209.075 275.098 209.075C275.367 209.075 275.633 209.129 275.881 209.232Z" fill="#CFCCE0"/>
<path d="M277.445 209.872C277.197 209.975 276.932 210.029 276.663 210.029C276.394 210.029 276.129 209.975 275.881 209.872C276.129 209.769 276.394 209.715 276.663 209.715C276.932 209.715 277.197 209.769 277.445 209.872Z" fill="#CFCCE0"/>
<path d="M277.588 208.734C277.34 208.837 277.074 208.89 276.805 208.89C276.537 208.89 276.271 208.837 276.023 208.734C276.271 208.631 276.537 208.578 276.805 208.578C277.074 208.578 277.34 208.631 277.588 208.734Z" fill="#CFCCE0"/>
<path d="M280.504 208.734C280.256 208.837 279.99 208.89 279.722 208.89C279.453 208.89 279.187 208.837 278.939 208.734C279.187 208.631 279.453 208.578 279.722 208.578C279.99 208.578 280.256 208.631 280.504 208.734Z" fill="#CFCCE0"/>
<path d="M279.721 209.374C279.474 209.478 279.208 209.531 278.939 209.531C278.671 209.531 278.405 209.478 278.157 209.374C278.405 209.271 278.671 209.218 278.939 209.218C279.208 209.218 279.474 209.271 279.721 209.374Z" fill="#CFCCE0"/>
<path d="M235.329 217.188C238.315 217.188 240.735 216.806 240.735 216.335C240.735 215.863 238.315 215.481 235.329 215.481C232.344 215.481 229.924 215.863 229.924 216.335C229.924 216.806 232.344 217.188 235.329 217.188Z" fill="#9F616A"/>
<path d="M232.449 216.014C233.392 216.014 234.156 215.6 234.156 215.09C234.156 214.579 233.392 214.165 232.449 214.165C231.506 214.165 230.742 214.579 230.742 215.09C230.742 215.6 231.506 216.014 232.449 216.014Z" fill="#159A8E"/>
<path d="M231.809 216.014C232.751 216.014 233.516 215.6 233.516 215.09C233.516 214.579 232.751 214.165 231.809 214.165C230.866 214.165 230.102 214.579 230.102 215.09C230.102 215.6 230.866 216.014 231.809 216.014Z" fill="#159A8E"/>
<path d="M239.277 216.228C240.219 216.228 240.984 215.814 240.984 215.303C240.984 214.793 240.219 214.378 239.277 214.378C238.334 214.378 237.57 214.793 237.57 215.303C237.57 215.814 238.334 216.228 239.277 216.228Z" fill="#159A8E"/>
<path d="M235.365 216.014C236.308 216.014 237.072 215.6 237.072 215.09C237.072 214.579 236.308 214.165 235.365 214.165C234.422 214.165 233.658 214.579 233.658 215.09C233.658 215.6 234.422 216.014 235.365 216.014Z" fill="#159A8E"/>
<path d="M238.281 216.014C239.224 216.014 239.988 215.6 239.988 215.09C239.988 214.579 239.224 214.165 238.281 214.165C237.338 214.165 236.574 214.579 236.574 215.09C236.574 215.6 237.338 216.014 238.281 216.014Z" fill="#159A8E"/>
<path d="M240.486 214.521C237.401 215.568 233.94 215.568 230.102 214.521V214.377C230.101 213.288 230.519 212.241 231.269 211.452C232.018 210.663 233.043 210.192 234.13 210.138C235.044 210.092 235.961 210.093 236.876 210.141C237.854 210.198 238.773 210.627 239.444 211.341C240.116 212.054 240.489 212.998 240.486 213.977V214.521Z" fill="#FFD597"/>
<path d="M238.971 218.44C236.691 218.67 234.394 218.67 232.114 218.44C231.573 218.387 231.072 218.135 230.706 217.733C230.341 217.331 230.138 216.807 230.137 216.263H240.948C240.947 216.807 240.745 217.331 240.379 217.733C240.014 218.135 239.512 218.387 238.971 218.44Z" fill="#FFD597"/>
<path d="M233.871 211.462C233.623 211.566 233.357 211.619 233.089 211.619C232.82 211.619 232.554 211.566 232.306 211.462C232.554 211.359 232.82 211.306 233.089 211.306C233.357 211.306 233.623 211.359 233.871 211.462Z" fill="#B05807"/>
<path d="M235.436 212.103C235.188 212.206 234.922 212.259 234.654 212.259C234.385 212.259 234.119 212.206 233.871 212.103C234.119 211.999 234.385 211.946 234.654 211.946C234.922 211.946 235.188 211.999 235.436 212.103Z" fill="#B05807"/>
<path d="M235.578 210.964C235.33 211.068 235.064 211.121 234.796 211.121C234.527 211.121 234.261 211.068 234.013 210.964C234.261 210.861 234.527 210.808 234.796 210.808C235.064 210.808 235.33 210.861 235.578 210.964Z" fill="#B05807"/>
<path d="M238.494 210.964C238.246 211.068 237.981 211.121 237.712 211.121C237.443 211.121 237.177 211.068 236.929 210.964C237.177 210.861 237.443 210.808 237.712 210.808C237.981 210.808 238.246 210.861 238.494 210.964Z" fill="#B05807"/>
<path d="M237.712 211.605C237.464 211.708 237.198 211.761 236.93 211.761C236.661 211.761 236.395 211.708 236.147 211.605C236.395 211.501 236.661 211.448 236.93 211.448C237.198 211.448 237.464 211.501 237.712 211.605Z" fill="#B05807"/>
<path d="M287.357 214.399L287.383 214.974L287.417 215.721C287.417 215.721 283.987 215.915 283.296 216.645C283.28 216.661 283.265 216.678 283.252 216.696L281.878 216.395L281.874 215.718C281.874 215.718 281.894 215.708 281.93 215.688C281.939 215.683 281.949 215.678 281.96 215.672C283.641 214.849 285.485 214.414 287.357 214.399Z" fill="#159A8E"/>
<path opacity="0.1" d="M287.358 214.399L287.384 214.974C285.862 215.022 282.984 215.928 282.984 215.928L281.93 215.688C283.619 214.854 285.474 214.413 287.358 214.399Z" fill="black"/>
<path opacity="0.1" d="M281.96 215.672L282.984 215.928L283.296 216.645C283.28 216.661 283.265 216.678 283.252 216.696L281.878 216.395L281.874 215.718C281.874 215.718 281.894 215.708 281.93 215.688C281.939 215.683 281.949 215.678 281.96 215.672Z" fill="white"/>
<path d="M245.905 216.815L245.931 217.391L245.965 218.138C245.965 218.138 242.535 218.331 241.844 219.062C241.828 219.077 241.813 219.094 241.8 219.112L240.426 218.811L240.423 218.135C240.423 218.135 240.442 218.124 240.478 218.104C240.487 218.1 240.497 218.095 240.508 218.089C242.189 217.266 244.033 216.83 245.905 216.815Z" fill="#159A8E"/>
<path opacity="0.1" d="M245.905 216.815L245.932 217.391C244.411 217.438 241.532 218.344 241.532 218.344L240.479 218.104C242.167 217.27 244.022 216.829 245.905 216.815Z" fill="black"/>
<path opacity="0.1" d="M240.508 218.089L241.532 218.344L241.844 219.062C241.828 219.077 241.813 219.094 241.8 219.112L240.426 218.812L240.423 218.135C240.423 218.135 240.442 218.124 240.478 218.104C240.487 218.1 240.497 218.095 240.508 218.089Z" fill="white"/>
<path d="M308.014 197.153C307.721 196.861 307.378 196.624 307.001 196.453V189.231C307.001 189.146 306.968 189.065 306.908 189.005C306.848 188.945 306.767 188.911 306.682 188.911H304.894C304.809 188.911 304.728 188.945 304.668 189.005C304.608 189.065 304.575 189.146 304.575 189.231V196.315C303.928 196.529 303.366 196.941 302.967 197.494C302.568 198.046 302.354 198.709 302.354 199.39V214.883C302.353 215.07 302.39 215.255 302.462 215.427C302.533 215.599 302.638 215.756 302.769 215.888C302.901 216.02 303.058 216.124 303.23 216.195C303.402 216.267 303.587 216.303 303.773 216.303H307.603C307.978 216.303 308.338 216.154 308.603 215.89C308.868 215.625 309.017 215.265 309.017 214.89V199.573C309.017 199.123 308.929 198.678 308.757 198.263C308.585 197.847 308.332 197.47 308.014 197.153Z" fill="#3F3D56"/>
<path d="M309.017 201.661H302.353V210.463H309.017V201.661Z" fill="#159A8E"/>
<path d="M307.145 189.405H307.001V189.231C307.001 189.146 306.968 189.065 306.908 189.005C306.848 188.945 306.767 188.911 306.682 188.911H304.894C304.81 188.911 304.728 188.945 304.668 189.005C304.608 189.065 304.575 189.146 304.575 189.231V189.405H304.431V190.145H304.575V193.929H307.001V190.145H307.145V189.405Z" fill="#159A8E"/>
<path d="M254.664 203.422C254.487 203.045 254.348 202.779 254.3 202.688C251.308 203.426 249.313 202.802 248.998 202.692C248.844 202.982 247.884 204.84 247.495 206.621C247.144 208.227 247.348 209.304 248.101 209.822L248.123 209.838L248.128 209.841C248.958 210.388 249.75 210.873 250.482 211.281C250.581 211.336 250.674 211.387 250.761 211.434L250.77 211.439L250.777 211.447C250.877 211.574 250.971 211.706 251.057 211.843C251.219 212.069 251.317 212.334 251.341 212.611V220.59L251.291 220.591C249.383 220.63 248.202 220.953 248.202 221.23C248.202 221.535 249.618 221.874 251.65 221.874C253.682 221.874 255.098 221.535 255.098 221.23C255.098 220.957 253.937 220.636 252.061 220.592L252.011 220.591L252.058 213.211C252.059 212.711 252.175 212.218 252.398 211.771C252.435 211.695 252.476 211.622 252.518 211.553C252.552 211.498 252.589 211.444 252.626 211.393L252.632 211.383L252.643 211.378C252.736 211.326 252.836 211.271 252.942 211.211L252.954 211.204C253.647 210.813 254.393 210.355 255.172 209.841C255.868 209.382 256.111 208.455 255.892 207.085C255.685 205.779 255.11 204.372 254.664 203.422Z" fill="#CFCCE0"/>
<path d="M254.842 209.674C254.025 210.212 253.351 210.616 252.835 210.907H252.834C252.082 210.856 251.326 210.877 250.577 210.97C250.049 210.675 249.335 210.252 248.458 209.674C248.449 209.668 248.441 209.663 248.433 209.657V209.656C247.628 209.102 247.608 207.929 247.87 206.73C248.536 206.656 249.598 206.688 251.026 207.198C252.716 207.802 254.485 207.461 255.51 207.15C255.678 208.208 255.576 209.19 254.842 209.674Z" fill="#159A8E"/>
<path d="M249.984 206.296C250.112 206.296 250.215 206.192 250.215 206.065C250.215 205.937 250.112 205.833 249.984 205.833C249.856 205.833 249.753 205.937 249.753 206.065C249.753 206.192 249.856 206.296 249.984 206.296Z" fill="#159A8E"/>
<path d="M249.336 208.424C249.464 208.424 249.568 208.321 249.568 208.193C249.568 208.065 249.464 207.962 249.336 207.962C249.209 207.962 249.105 208.065 249.105 208.193C249.105 208.321 249.209 208.424 249.336 208.424Z" fill="white"/>
<path d="M250.54 206.759C250.616 206.759 250.678 206.697 250.678 206.62C250.678 206.543 250.616 206.481 250.54 206.481C250.463 206.481 250.401 206.543 250.401 206.62C250.401 206.697 250.463 206.759 250.54 206.759Z" fill="#159A8E"/>
<path d="M251.095 209.396C251.171 209.396 251.233 209.334 251.233 209.257C251.233 209.18 251.171 209.118 251.095 209.118C251.018 209.118 250.956 209.18 250.956 209.257C250.956 209.334 251.018 209.396 251.095 209.396Z" fill="white"/>
<path d="M250.123 209.535C250.2 209.535 250.262 209.472 250.262 209.396C250.262 209.319 250.2 209.257 250.123 209.257C250.046 209.257 249.984 209.319 249.984 209.396C249.984 209.472 250.046 209.535 250.123 209.535Z" fill="white"/>
<path d="M252.945 204.908C253.022 204.908 253.084 204.846 253.084 204.769C253.084 204.693 253.022 204.63 252.945 204.63C252.869 204.63 252.807 204.693 252.807 204.769C252.807 204.846 252.869 204.908 252.945 204.908Z" fill="#159A8E"/>
<path d="M265.515 195.9C265.339 195.524 265.2 195.257 265.151 195.166C262.16 195.904 260.165 195.28 259.85 195.17C259.696 195.46 258.735 197.318 258.347 199.099C257.996 200.706 258.2 201.782 258.952 202.3L258.974 202.316L258.979 202.319C259.81 202.866 260.602 203.351 261.334 203.759C261.432 203.814 261.525 203.865 261.612 203.912L261.622 203.918L261.628 203.926C261.729 204.052 261.822 204.184 261.909 204.321C262.07 204.547 262.169 204.812 262.193 205.089V213.068L262.142 213.069C260.234 213.108 259.054 213.432 259.054 213.709C259.054 214.013 260.47 214.352 262.501 214.352C264.533 214.352 265.949 214.013 265.949 213.709C265.949 213.436 264.788 213.114 262.913 213.071L262.862 213.069L262.91 205.689C262.911 205.189 263.027 204.696 263.249 204.249C263.287 204.174 263.328 204.1 263.37 204.032C263.404 203.976 263.44 203.922 263.477 203.871L263.484 203.862L263.494 203.856C263.588 203.805 263.688 203.749 263.794 203.689L263.806 203.683C264.498 203.291 265.245 202.833 266.024 202.319C266.72 201.86 266.962 200.933 266.744 199.564C266.536 198.257 265.961 196.85 265.515 195.9Z" fill="#CFCCE0"/>
<path d="M265.694 202.152C264.877 202.69 264.202 203.094 263.686 203.385H263.686C262.933 203.334 262.178 203.355 261.429 203.449C260.9 203.154 260.187 202.73 259.309 202.152C259.301 202.146 259.293 202.141 259.284 202.135V202.134C258.479 201.581 258.459 200.408 258.721 199.208C259.387 199.134 260.45 199.167 261.877 199.677C263.567 200.28 265.336 199.939 266.362 199.629C266.53 200.686 266.427 201.668 265.694 202.152Z" fill="#159A8E"/>
<path d="M260.836 198.774C260.963 198.774 261.067 198.671 261.067 198.543C261.067 198.415 260.963 198.312 260.836 198.312C260.708 198.312 260.604 198.415 260.604 198.543C260.604 198.671 260.708 198.774 260.836 198.774Z" fill="#159A8E"/>
<path d="M260.188 200.903C260.316 200.903 260.419 200.799 260.419 200.671C260.419 200.543 260.316 200.44 260.188 200.44C260.06 200.44 259.957 200.543 259.957 200.671C259.957 200.799 260.06 200.903 260.188 200.903Z" fill="white"/>
<path d="M261.391 199.237C261.468 199.237 261.53 199.175 261.53 199.098C261.53 199.021 261.468 198.959 261.391 198.959C261.314 198.959 261.253 199.021 261.253 199.098C261.253 199.175 261.314 199.237 261.391 199.237Z" fill="#159A8E"/>
<path d="M261.946 201.874C262.023 201.874 262.085 201.812 262.085 201.735C262.085 201.659 262.023 201.596 261.946 201.596C261.87 201.596 261.808 201.659 261.808 201.735C261.808 201.812 261.87 201.874 261.946 201.874Z" fill="white"/>
<path d="M260.975 202.013C261.051 202.013 261.114 201.951 261.114 201.874C261.114 201.798 261.051 201.735 260.975 201.735C260.898 201.735 260.836 201.798 260.836 201.874C260.836 201.951 260.898 202.013 260.975 202.013Z" fill="white"/>
<path d="M263.797 197.386C263.873 197.386 263.936 197.324 263.936 197.248C263.936 197.171 263.873 197.109 263.797 197.109C263.72 197.109 263.658 197.171 263.658 197.248C263.658 197.324 263.72 197.386 263.797 197.386Z" fill="#159A8E"/>
<path d="M75.9978 292.47C67.758 292.471 54.962 285.952 43.2069 275.042C41.9013 273.822 40.6605 272.534 39.4892 271.184C39.403 271.086 39.3451 270.966 39.3221 270.838C39.2992 270.71 39.3118 270.577 39.3583 270.455C39.4033 270.331 39.4817 270.221 39.5846 270.138C39.6875 270.055 39.8112 270.001 39.9424 269.983L45.0837 269.242C45.1872 269.227 45.2823 269.175 45.3512 269.097C45.4204 269.018 45.4591 268.918 45.4607 268.813C45.4623 268.709 45.4267 268.607 45.36 268.526C45.2933 268.446 45.2001 268.392 45.0972 268.373L36.3046 266.83C36.1145 266.797 35.9449 266.69 35.8329 266.533C26.5677 253.6 21.5137 237.52 20.1853 232.9C20.1502 232.779 20.1471 232.651 20.1762 232.528C20.2053 232.405 20.2657 232.292 20.3515 232.2C20.4373 232.107 20.5456 232.039 20.6658 232C20.786 231.962 20.9141 231.955 21.0376 231.981C22.4583 232.277 25.4131 232.935 29.24 234.018C29.3639 234.053 29.4765 234.12 29.5664 234.212C29.6564 234.304 29.7206 234.419 29.7525 234.543L30.0268 235.625C30.0525 235.726 30.1135 235.815 30.1988 235.876C30.2842 235.936 30.3883 235.964 30.4924 235.955C30.5966 235.945 30.694 235.899 30.7672 235.825C30.8404 235.75 30.8845 235.651 30.8917 235.547L30.8995 235.434C30.907 235.324 30.9393 235.217 30.9938 235.121C31.0484 235.025 31.1238 234.943 31.2145 234.88C31.3052 234.818 31.4089 234.776 31.5179 234.759C31.6268 234.741 31.7382 234.749 31.844 234.781C36.0507 236.055 40.1885 237.547 44.24 239.252C44.3448 239.296 44.438 239.364 44.5119 239.451C44.5862 239.537 44.6394 239.639 44.6677 239.749L46.1527 245.606C46.1785 245.707 46.2396 245.796 46.3248 245.857C46.4101 245.917 46.5143 245.945 46.6184 245.936C46.7226 245.927 46.8201 245.88 46.8932 245.805C46.9665 245.731 47.0105 245.632 47.0178 245.528L47.2812 241.702C47.289 241.583 47.3262 241.467 47.3891 241.366C47.4517 241.264 47.5386 241.18 47.6415 241.119C47.7447 241.059 47.8608 241.024 47.9801 241.019C48.0993 241.014 48.2183 241.038 48.3262 241.089C55.0297 244.286 60.5647 247.89 64.778 251.801C80.5953 266.481 88.6252 283.637 82.6779 290.045C81.1507 291.691 78.8454 292.47 75.9978 292.47Z" fill="#159A8E"/>
<path d="M77.9498 292.378C69.7538 292.379 59.2871 278.141 53.759 258.876C53.2719 257.157 52.8754 255.413 52.5704 253.652C52.5475 253.523 52.5601 253.391 52.6066 253.269C52.6532 253.147 52.7325 253.04 52.8354 252.96C52.9383 252.877 53.062 252.823 53.1932 252.805C53.3241 252.787 53.4575 252.806 53.579 252.858L58.3638 254.881C58.4604 254.921 58.568 254.927 58.6678 254.895C58.7675 254.864 58.8525 254.797 58.9079 254.709C58.9636 254.62 58.9853 254.515 58.9702 254.411C58.9548 254.308 58.9028 254.213 58.8242 254.144L52.0953 248.278C51.9496 248.151 51.8596 247.973 51.8448 247.78C50.5983 231.919 54.5835 215.542 55.8347 210.9C55.8674 210.779 55.931 210.667 56.0194 210.577C56.1078 210.487 56.218 210.422 56.3391 210.387C56.4603 210.352 56.5887 210.349 56.7114 210.378C56.8341 210.408 56.9471 210.468 57.0393 210.554C58.1039 211.543 60.295 213.636 63.0082 216.537C63.0963 216.632 63.158 216.747 63.1873 216.873C63.2166 216.998 63.2125 217.129 63.1753 217.253L62.8509 218.32C62.8207 218.421 62.827 218.528 62.8688 218.624C62.9107 218.72 62.9853 218.797 63.079 218.843C63.1731 218.889 63.2804 218.9 63.3818 218.874C63.4831 218.848 63.5715 218.786 63.6316 218.701L63.6968 218.608C63.76 218.517 63.8431 218.443 63.9391 218.389C64.0354 218.335 64.1427 218.303 64.2528 218.297C64.3626 218.29 64.4731 218.308 64.575 218.349C64.6773 218.391 64.7689 218.455 64.8428 218.537C67.7855 221.802 70.5563 225.218 73.1436 228.772C73.21 228.864 73.2547 228.97 73.2736 229.083C73.2925 229.195 73.2852 229.31 73.2522 229.419L71.4965 235.2C71.466 235.3 71.4723 235.408 71.5142 235.504C71.556 235.599 71.6306 235.677 71.7247 235.723C71.8188 235.769 71.9258 235.779 72.0271 235.753C72.1284 235.727 72.2172 235.666 72.2773 235.58L74.4801 232.441C74.5477 232.342 74.6393 232.261 74.7463 232.207C74.8536 232.152 74.9726 232.125 75.0928 232.129C75.2117 232.13 75.3285 232.161 75.4329 232.218C75.5374 232.275 75.6262 232.357 75.6919 232.457C79.7775 238.659 82.6528 244.605 84.2385 250.13C90.1904 270.873 88.1963 289.71 79.7932 292.122C79.1937 292.293 78.5732 292.379 77.9498 292.378Z" fill="#1CC6B6"/>
<path d="M121.755 296.495C178.744 296.495 224.943 294.132 224.943 291.218C224.943 288.304 178.744 285.941 121.755 285.941C64.7654 285.941 18.5664 288.304 18.5664 291.218C18.5664 294.132 64.7654 296.495 121.755 296.495Z" fill="#E6E6E6"/>
<path d="M182.042 128.741H180.87V96.6282C180.87 91.6986 178.911 86.9714 175.426 83.4857C171.94 80.0002 167.213 78.0419 162.283 78.0419H94.2476C89.3184 78.0419 84.5908 80.0002 81.1051 83.4857C77.6196 86.9711 75.6613 91.6986 75.6613 96.6282V272.803C75.6613 277.732 77.6196 282.46 81.1051 285.945C84.5908 289.431 89.318 291.389 94.2476 291.389H162.283C167.213 291.389 171.94 289.431 175.426 285.945C178.911 282.46 180.869 277.732 180.87 272.803V151.6H182.042V128.741Z" fill="#3F3D56"/>
<path d="M176.914 96.7578V272.674C176.914 276.355 175.451 279.885 172.848 282.489C170.245 285.092 166.714 286.554 163.033 286.554H94.6709C90.9894 286.554 87.459 285.092 84.8559 282.489C82.2528 279.885 80.7905 276.355 80.7902 272.674V96.7578C80.7905 93.0763 82.2528 89.5459 84.8559 86.9428C87.459 84.3397 90.9894 82.8774 94.6709 82.8771H102.964C102.557 83.8787 102.401 84.9647 102.512 86.0403C102.623 87.1156 102.996 88.1474 103.6 89.0446C104.202 89.9421 105.017 90.6772 105.971 91.186C106.925 91.6946 107.989 91.9611 109.07 91.962H148.048C149.129 91.9611 150.193 91.6946 151.147 91.186C152.101 90.6772 152.915 89.9421 153.518 89.0446C154.121 88.1474 154.495 87.1156 154.606 86.0403C154.716 84.9647 154.561 83.8787 154.154 82.8771H163.033C166.714 82.8774 170.245 84.3397 172.848 86.9428C175.451 89.5459 176.914 93.0763 176.914 96.7578Z" fill="white"/>
<path d="M166.647 116.948H91.0562C89.7738 116.95 88.5443 117.46 87.6377 118.367C86.7311 119.274 86.2207 120.503 86.2191 121.785V209.73C86.2207 211.012 86.7311 212.241 87.6377 213.148C88.5443 214.055 89.7738 214.565 91.0562 214.567H166.647C167.483 214.567 168.304 214.35 169.03 213.938C169.756 213.526 170.364 212.932 170.792 212.216C170.871 212.09 170.943 211.96 171.006 211.826C171.255 211.31 171.409 210.752 171.461 210.181C171.477 210.032 171.485 209.881 171.484 209.73V121.785C171.483 120.503 170.973 119.273 170.066 118.366C169.159 117.46 167.93 116.95 166.647 116.948Z" fill="#159A8E"/>
<path d="M102.101 187.083C103.136 187.083 103.796 186.469 103.865 185.594H102.937C102.854 186.037 102.535 186.291 102.109 186.291C101.502 186.291 101.111 185.784 101.111 184.942C101.111 184.111 101.511 183.612 102.109 183.612C102.575 183.612 102.862 183.913 102.937 184.31H103.865C103.798 183.416 103.101 182.829 102.095 182.829C100.888 182.829 100.127 183.701 100.127 184.958C100.127 186.206 100.87 187.083 102.101 187.083ZM107.288 185.27C107.288 185.897 106.84 186.208 106.411 186.208C105.945 186.208 105.634 185.879 105.634 185.356V182.883H104.662V185.506C104.662 186.495 105.226 187.056 106.036 187.056C106.653 187.056 107.087 186.731 107.275 186.27H107.318V187.002H108.259V182.883H107.288V185.27ZM112.513 183.972C112.379 183.274 111.822 182.829 110.856 182.829C109.864 182.829 109.188 183.317 109.19 184.079C109.188 184.68 109.558 185.076 110.349 185.24L111.052 185.388C111.43 185.471 111.607 185.624 111.607 185.857C111.607 186.139 111.301 186.351 110.84 186.351C110.394 186.351 110.105 186.157 110.022 185.787L109.075 185.879C109.196 186.635 109.832 187.083 110.843 187.083C111.872 187.083 112.599 186.549 112.602 185.768C112.599 185.181 112.221 184.822 111.443 184.653L110.741 184.503C110.322 184.409 110.156 184.264 110.158 184.025C110.156 183.746 110.464 183.553 110.869 183.553C111.317 183.553 111.553 183.797 111.628 184.068L112.513 183.972ZM115.46 182.883H114.647V181.896H113.676V182.883H113.091V183.634H113.676V185.924C113.671 186.699 114.234 187.08 114.963 187.059C115.24 187.05 115.43 186.997 115.535 186.962L115.371 186.203C115.317 186.217 115.208 186.24 115.087 186.24C114.843 186.24 114.647 186.155 114.647 185.763V183.634H115.46V182.883ZM118.024 187.083C119.231 187.083 119.998 186.233 119.998 184.958C119.998 183.682 119.231 182.829 118.024 182.829C116.817 182.829 116.05 183.682 116.05 184.958C116.05 186.233 116.817 187.083 118.024 187.083ZM118.03 186.305C117.362 186.305 117.035 185.71 117.035 184.956C117.035 184.202 117.362 183.599 118.03 183.599C118.687 183.599 119.014 184.202 119.014 184.956C119.014 185.71 118.687 186.305 118.03 186.305ZM120.822 187.002H121.793V184.497C121.793 183.99 122.131 183.647 122.549 183.647C122.96 183.647 123.241 183.923 123.241 184.347V187.002H124.193V184.433C124.193 183.969 124.47 183.647 124.939 183.647C125.331 183.647 125.642 183.878 125.642 184.387V187.002H126.615V184.237C126.615 183.317 126.084 182.829 125.328 182.829C124.73 182.829 124.274 183.124 124.091 183.583H124.049C123.89 183.116 123.491 182.829 122.936 182.829C122.383 182.829 121.97 183.113 121.798 183.583H121.75V182.883H120.822V187.002ZM129.424 187.083C130.384 187.083 131.044 186.613 131.216 185.897L130.309 185.795C130.177 186.144 129.856 186.326 129.437 186.326C128.81 186.326 128.394 185.913 128.386 185.208H131.256V184.91C131.256 183.465 130.387 182.829 129.373 182.829C128.193 182.829 127.423 183.695 127.423 184.967C127.423 186.259 128.182 187.083 129.424 187.083ZM128.389 184.553C128.418 184.028 128.807 183.585 129.386 183.585C129.944 183.585 130.32 183.993 130.325 184.553H128.389ZM132.077 187.002H133.048V184.581C133.048 184.058 133.442 183.687 133.976 183.687C134.139 183.687 134.343 183.717 134.426 183.744V182.851C134.338 182.834 134.185 182.824 134.078 182.824C133.606 182.824 133.212 183.092 133.061 183.569H133.018V182.883H132.077V187.002ZM138.328 183.972C138.193 183.274 137.636 182.829 136.67 182.829C135.678 182.829 135.002 183.317 135.004 184.079C135.002 184.68 135.372 185.076 136.163 185.24L136.866 185.388C137.244 185.471 137.421 185.624 137.421 185.857C137.421 186.139 137.115 186.351 136.654 186.351C136.209 186.351 135.919 186.157 135.836 185.787L134.889 185.879C135.01 186.635 135.645 187.083 136.657 187.083C137.687 187.083 138.413 186.549 138.416 185.768C138.413 185.181 138.035 184.822 137.257 184.653L136.555 184.503C136.136 184.409 135.97 184.264 135.973 184.025C135.97 183.746 136.278 183.553 136.683 183.553C137.131 183.553 137.367 183.797 137.442 184.068L138.328 183.972ZM141.09 187.002H142.061V184.581C142.061 184.058 142.455 183.687 142.989 183.687C143.152 183.687 143.356 183.717 143.439 183.744V182.851C143.351 182.834 143.198 182.824 143.091 182.824C142.619 182.824 142.224 183.092 142.074 183.569H142.031V182.883H141.09V187.002ZM144.084 187.002H145.055V182.883H144.084V187.002ZM144.572 182.298C144.881 182.298 145.133 182.062 145.133 181.772C145.133 181.48 144.881 181.244 144.572 181.244C144.261 181.244 144.009 181.48 144.009 181.772C144.009 182.062 144.261 182.298 144.572 182.298ZM147.845 188.633C148.958 188.633 149.779 188.123 149.779 187.069V182.883H148.821V183.564H148.768C148.62 183.266 148.312 182.829 147.585 182.829C146.633 182.829 145.885 183.575 145.885 184.929C145.885 186.273 146.633 186.943 147.582 186.943C148.288 186.943 148.617 186.565 148.768 186.262H148.816V187.043C148.816 187.649 148.414 187.898 147.861 187.898C147.277 187.898 147.019 187.622 146.901 187.38L146.027 187.592C146.204 188.169 146.796 188.633 147.845 188.633ZM147.853 186.182C147.212 186.182 146.874 185.683 146.874 184.924C146.874 184.175 147.207 183.626 147.853 183.626C148.478 183.626 148.821 184.143 148.821 184.924C148.821 185.71 148.473 186.182 147.853 186.182ZM151.745 184.588C151.745 183.993 152.115 183.65 152.635 183.65C153.145 183.65 153.445 183.974 153.445 184.53V187.002H154.416V184.379C154.416 183.384 153.853 182.829 152.997 182.829C152.364 182.829 151.962 183.116 151.772 183.583H151.723V181.509H150.774V187.002H151.745V184.588ZM157.463 182.883H156.65V181.896H155.679V182.883H155.095V183.634H155.679V185.924C155.674 186.699 156.237 187.08 156.967 187.059C157.243 187.05 157.433 186.997 157.538 186.962L157.374 186.203C157.321 186.217 157.211 186.24 157.09 186.24C156.846 186.24 156.65 186.155 156.65 185.763V183.634H157.463V182.883ZM122.556 193.714C122.556 193.119 122.916 192.776 123.428 192.776C123.929 192.776 124.23 193.106 124.23 193.655V196.128H125.201V193.505C125.204 192.518 124.64 191.955 123.79 191.955C123.173 191.955 122.749 192.25 122.562 192.709H122.513V192.009H121.586V196.128H122.556V193.714ZM127.985 196.208C129.192 196.208 129.959 195.358 129.959 194.084C129.959 192.808 129.192 191.955 127.985 191.955C126.778 191.955 126.011 192.808 126.011 194.084C126.011 195.358 126.778 196.208 127.985 196.208ZM127.99 195.431C127.322 195.431 126.995 194.835 126.995 194.082C126.995 193.328 127.322 192.725 127.99 192.725C128.647 192.725 128.974 193.328 128.974 194.082C128.974 194.835 128.647 195.431 127.99 195.431ZM131.522 196.128H132.536L133.308 193.344H133.365L134.137 196.128H135.148L136.315 192.009H135.323L134.609 194.889H134.569L133.829 192.009H132.85L132.11 194.905H132.072L131.348 192.009H130.358L131.522 196.128Z" fill="white"/>
<path d="M120.881 171.593H137.197V167.638H127.586V167.481L130.927 164.207C135.632 159.916 136.895 157.77 136.895 155.166C136.895 151.199 133.654 148.394 128.748 148.394C123.943 148.394 120.647 151.266 120.658 155.759H125.251C125.239 153.568 126.625 152.227 128.715 152.227C130.726 152.227 132.224 153.479 132.224 155.49C132.224 157.312 131.106 158.563 129.028 160.564L120.881 168.107V171.593Z" fill="white"/>
<path d="M146.672 127.877C148.291 127.877 149.604 126.565 149.604 124.946C149.604 123.327 148.291 122.014 146.672 122.014C145.053 122.014 143.741 123.327 143.741 124.946C143.741 126.565 145.053 127.877 146.672 127.877Z" fill="#EB5757"/>
<path d="M154.349 122.244H153.398V126.821H154.349V122.244ZM155.112 126.821H156.064V123.388H155.112V126.821ZM155.591 122.945C155.874 122.945 156.107 122.728 156.107 122.463C156.107 122.199 155.874 121.982 155.591 121.982C155.309 121.982 155.076 122.199 155.076 122.463C155.076 122.728 155.309 122.945 155.591 122.945ZM160.027 123.388H159.019L158.309 125.844H158.273L157.56 123.388H156.554L157.754 126.821H158.827L160.027 123.388ZM161.962 126.888C162.812 126.888 163.384 126.474 163.518 125.837L162.637 125.779C162.541 126.041 162.295 126.177 161.978 126.177C161.502 126.177 161.2 125.862 161.2 125.35V125.348H163.538V125.086C163.538 123.92 162.832 123.343 161.925 123.343C160.914 123.343 160.259 124.061 160.259 125.12C160.259 126.208 160.905 126.888 161.962 126.888ZM161.2 124.758C161.22 124.367 161.518 124.054 161.94 124.054C162.353 124.054 162.64 124.349 162.642 124.758H161.2Z" fill="white"/>
</svg>
