<svg width="360" height="360" viewBox="0 0 360 360" fill="none" xmlns="http://www.w3.org/2000/svg">
<path d="M180.44 62.5425L95.5689 114.771C95.5689 114.771 95.5689 222.492 180.44 281.249C265.311 222.492 265.311 114.771 265.311 114.771L180.44 62.5425Z" fill="#159A8E"/>
<path d="M180.947 62.5425L179.496 63.4352V280.23C179.978 280.571 180.46 280.912 180.947 281.249C265.819 222.492 265.818 114.771 265.818 114.771L180.947 62.5425Z" fill="#2BAB9F"/>
<g opacity="0.7">
<path opacity="0.7" d="M159.893 168.378L175.893 183.044L195.727 154.432L203.727 161.098L175.893 196.377L153.227 171.045L159.893 168.378Z" fill="url(#paint0_linear)"/>
</g>
<path d="M163.67 169.259L176.648 181.156L195.035 154.117L201.524 159.525L176.648 191.972L158.262 171.422L163.67 169.259Z" fill="white"/>
<path opacity="0.5" d="M96.6996 74.2519C96.4394 74.1386 96.2298 73.9337 96.1111 73.676C95.9922 73.4183 95.9724 73.1259 96.0551 72.8543C96.0687 72.8128 96.0771 72.7697 96.0803 72.7263C96.0878 72.602 96.0551 72.4783 95.9871 72.3741C95.9189 72.2697 95.8191 72.19 95.7024 72.1469C95.5853 72.1038 95.4575 72.0994 95.3383 72.1347C95.2187 72.1699 95.1136 72.2426 95.0387 72.342C95.0129 72.3773 94.9912 72.4154 94.9745 72.4556C94.8612 72.7159 94.656 72.9255 94.3983 73.0441C94.1406 73.1631 93.8482 73.1829 93.577 73.1001C93.5351 73.0866 93.4923 73.0784 93.4486 73.0749C93.3243 73.0674 93.2009 73.1001 93.0965 73.1681C92.9923 73.2364 92.9127 73.3361 92.8696 73.4532C92.8261 73.5699 92.8221 73.6977 92.857 73.817C92.8922 73.9366 92.9649 74.0417 93.0644 74.1166C93.0996 74.1424 93.138 74.1641 93.1783 74.1807C93.4385 74.294 93.6478 74.4992 93.7667 74.7569C93.8854 75.0147 93.9052 75.307 93.8224 75.5783C93.8092 75.6201 93.8007 75.6629 93.7973 75.7067C93.7897 75.831 93.8224 75.9546 93.8907 76.0588C93.9587 76.1633 94.0584 76.2429 94.1755 76.286C94.2923 76.3291 94.42 76.3332 94.5396 76.2983C94.6592 76.263 94.764 76.1903 94.8392 76.0909C94.865 76.0556 94.8864 76.0176 94.9034 75.977C95.0167 75.717 95.2215 75.5075 95.4792 75.3888C95.737 75.2699 96.0293 75.2501 96.3009 75.3328C96.3424 75.346 96.3855 75.3545 96.429 75.358C96.5533 75.3655 96.6769 75.3328 96.7811 75.2648C96.8856 75.1966 96.9652 75.0968 97.0083 74.9797C97.0514 74.863 97.0558 74.7352 97.0206 74.6156C96.9856 74.4961 96.913 74.3913 96.8132 74.3161C96.778 74.2903 96.7399 74.2689 96.6996 74.2519Z" fill="#4D8AF0"/>
<path opacity="0.5" d="M50.7555 176.525C50.4953 176.411 50.2857 176.206 50.1671 175.949C50.0481 175.691 50.0283 175.399 50.111 175.127C50.1246 175.086 50.1331 175.042 50.1362 174.999C50.1438 174.875 50.111 174.751 50.0431 174.647C49.9748 174.542 49.875 174.463 49.7583 174.42C49.6412 174.377 49.5135 174.372 49.3942 174.407C49.2746 174.443 49.1695 174.515 49.0946 174.615C49.0688 174.65 49.0471 174.688 49.0304 174.728C48.9171 174.989 48.712 175.198 48.4542 175.317C48.1965 175.436 47.9042 175.456 47.6329 175.373C47.591 175.359 47.5482 175.351 47.5045 175.348C47.3802 175.34 47.2568 175.373 47.1524 175.441C47.0482 175.509 46.9686 175.609 46.9255 175.726C46.8821 175.843 46.878 175.97 46.9129 176.09C46.9481 176.209 47.0208 176.314 47.1203 176.389C47.1555 176.415 47.1939 176.437 47.2342 176.453C47.4944 176.567 47.7037 176.772 47.8226 177.03C47.9413 177.287 47.9611 177.58 47.8783 177.851C47.8651 177.893 47.8566 177.936 47.8532 177.979C47.8456 178.104 47.8783 178.227 47.9466 178.331C48.0146 178.436 48.1144 178.516 48.2314 178.559C48.3482 178.602 48.4759 178.606 48.5955 178.571C48.7151 178.536 48.8199 178.463 48.8951 178.364C48.9209 178.328 48.9423 178.29 48.9593 178.25C49.0726 177.99 49.2774 177.78 49.5352 177.662C49.7929 177.543 50.0852 177.523 50.3568 177.606C50.3983 177.619 50.4415 177.627 50.4849 177.631C50.6092 177.638 50.7329 177.606 50.837 177.538C50.9415 177.469 51.0211 177.369 51.0642 177.252C51.1073 177.136 51.1117 177.008 51.0765 176.888C51.0416 176.769 50.9689 176.664 50.8691 176.589C50.8339 176.563 50.7958 176.542 50.7555 176.525Z" fill="#4D8AF0"/>
<path opacity="0.5" d="M280.196 140.979C281.238 140.979 282.084 140.134 282.084 139.091C282.084 138.048 281.238 137.203 280.196 137.203C279.153 137.203 278.307 138.048 278.307 139.091C278.307 140.134 279.153 140.979 280.196 140.979Z" fill="#F55F44"/>
<path opacity="0.5" d="M82.8877 275.979C83.9305 275.979 84.7758 275.134 84.7758 274.091C84.7758 273.048 83.9305 272.203 82.8877 272.203C81.8448 272.203 80.9995 273.048 80.9995 274.091C80.9995 275.134 81.8448 275.979 82.8877 275.979Z" fill="#F55F44"/>
<path opacity="0.5" d="M312.293 213.671C313.336 213.671 314.182 212.826 314.182 211.783C314.182 210.74 313.336 209.895 312.293 209.895C311.251 209.895 310.405 210.74 310.405 211.783C310.405 212.826 311.251 213.671 312.293 213.671Z" fill="#F55F44"/>
<path opacity="0.5" d="M266.315 83.3777C266.055 83.2644 265.845 83.0596 265.727 82.8019C265.608 82.5441 265.588 82.2518 265.671 81.9802C265.684 81.9387 265.693 81.8956 265.696 81.8521C265.703 81.7278 265.671 81.6042 265.603 81.5C265.534 81.3955 265.434 81.3159 265.318 81.2728C265.201 81.2297 265.073 81.2253 264.954 81.2605C264.834 81.2958 264.729 81.3685 264.654 81.4679C264.628 81.5031 264.607 81.5412 264.59 81.5815C264.477 81.8417 264.271 82.0513 264.014 82.17C263.756 82.2889 263.464 82.3087 263.192 82.226C263.151 82.2124 263.108 82.2043 263.064 82.2008C262.94 82.1932 262.816 82.226 262.712 82.2939C262.608 82.3622 262.528 82.462 262.485 82.5791C262.442 82.6958 262.437 82.8236 262.472 82.9428C262.508 83.0624 262.58 83.1675 262.68 83.2424C262.715 83.2682 262.753 83.2899 262.794 83.3066C263.054 83.4199 263.263 83.6251 263.382 83.8828C263.501 84.1405 263.521 84.4329 263.438 84.7041C263.425 84.746 263.416 84.7888 263.413 84.8325C263.405 84.9568 263.438 85.0805 263.506 85.1847C263.574 85.2891 263.674 85.3688 263.791 85.4119C263.908 85.455 264.035 85.4591 264.155 85.4241C264.275 85.3889 264.379 85.3162 264.455 85.2167C264.48 85.1815 264.502 85.1434 264.519 85.1028C264.632 84.8429 264.837 84.6333 265.095 84.5147C265.352 84.3957 265.645 84.3759 265.916 84.4587C265.958 84.4719 266.001 84.4804 266.044 84.4839C266.169 84.4914 266.292 84.4587 266.396 84.3907C266.501 84.3224 266.581 84.2227 266.624 84.1056C266.667 83.9889 266.671 83.8611 266.636 83.7415C266.601 83.6219 266.528 83.5171 266.429 83.4419C266.393 83.4161 266.355 83.3947 266.315 83.3777Z" fill="#4D8AF0"/>
<path opacity="0.5" d="M297.783 281C297.523 280.887 297.314 280.682 297.195 280.424C297.076 280.166 297.056 279.874 297.139 279.603C297.153 279.561 297.161 279.518 297.164 279.474C297.172 279.35 297.139 279.227 297.071 279.122C297.003 279.018 296.903 278.938 296.786 278.895C296.669 278.852 296.541 278.848 296.422 278.883C296.303 278.918 296.198 278.991 296.123 279.09C296.097 279.126 296.075 279.164 296.058 279.204C295.945 279.464 295.74 279.674 295.482 279.792C295.224 279.911 294.932 279.931 294.661 279.848C294.619 279.835 294.576 279.827 294.533 279.823C294.408 279.816 294.285 279.848 294.18 279.916C294.076 279.985 293.997 280.084 293.953 280.201C293.91 280.318 293.906 280.446 293.941 280.565C293.976 280.685 294.049 280.79 294.148 280.865C294.184 280.891 294.222 280.912 294.262 280.929C294.522 281.042 294.732 281.247 294.851 281.505C294.969 281.763 294.989 282.055 294.906 282.327C294.893 282.368 294.885 282.411 294.881 282.455C294.874 282.579 294.906 282.703 294.975 282.807C295.043 282.912 295.142 282.991 295.259 283.034C295.376 283.077 295.504 283.081 295.624 283.047C295.743 283.011 295.848 282.939 295.923 282.839C295.949 282.804 295.97 282.766 295.987 282.725C296.101 282.465 296.305 282.256 296.563 282.137C296.821 282.018 297.113 281.998 297.385 282.081C297.426 282.094 297.469 282.103 297.513 282.106C297.637 282.114 297.761 282.081 297.865 282.013C297.969 281.945 298.049 281.845 298.092 281.728C298.135 281.611 298.14 281.483 298.104 281.364C298.07 281.244 297.997 281.14 297.897 281.064C297.862 281.038 297.824 281.017 297.783 281Z" fill="#4D8AF0"/>
<path opacity="0.5" d="M48.5527 116.734C48.2925 116.621 48.0829 116.416 47.9643 116.159C47.8453 115.901 47.8255 115.608 47.9082 115.337C47.9218 115.295 47.9303 115.252 47.9334 115.209C47.941 115.085 47.9082 114.961 47.8403 114.857C47.772 114.752 47.6722 114.673 47.5555 114.629C47.4384 114.586 47.3107 114.582 47.1914 114.617C47.0718 114.652 46.9667 114.725 46.8918 114.825C46.866 114.86 46.8443 114.898 46.8276 114.938C46.7143 115.198 46.5092 115.408 46.2514 115.527C45.9937 115.646 45.7014 115.665 45.4301 115.583C45.3882 115.569 45.3454 115.561 45.3017 115.557C45.1774 115.55 45.054 115.583 44.9496 115.651C44.8454 115.719 44.7658 115.819 44.7227 115.936C44.6793 116.052 44.6752 116.18 44.7101 116.3C44.7453 116.419 44.818 116.524 44.9175 116.599C44.9527 116.625 44.9911 116.647 45.0314 116.663C45.2916 116.777 45.5009 116.982 45.6199 117.239C45.7385 117.497 45.7583 117.79 45.6756 118.061C45.6623 118.103 45.6538 118.145 45.6504 118.189C45.6428 118.314 45.6756 118.437 45.7438 118.541C45.8118 118.646 45.9116 118.725 46.0286 118.769C46.1454 118.812 46.2731 118.816 46.3927 118.781C46.5123 118.746 46.6171 118.673 46.6923 118.573C46.7181 118.538 46.7395 118.5 46.7565 118.46C46.8698 118.2 47.0746 117.99 47.3324 117.871C47.5901 117.752 47.8824 117.733 48.154 117.815C48.1955 117.829 48.2387 117.837 48.2821 117.841C48.4064 117.848 48.5301 117.815 48.6342 117.747C48.7387 117.679 48.8183 117.579 48.8614 117.462C48.9045 117.346 48.9089 117.218 48.8737 117.098C48.8388 116.979 48.7661 116.874 48.6663 116.799C48.6311 116.773 48.593 116.751 48.5527 116.734Z" fill="#4D8AF0"/>
<path opacity="0.5" d="M69.6709 150.42C70.7137 150.42 71.559 149.574 71.559 148.531C71.559 147.489 70.7137 146.643 69.6709 146.643C68.628 146.643 67.7827 147.489 67.7827 148.531C67.7827 149.574 68.628 150.42 69.6709 150.42Z" fill="#47E6B1"/>
<path opacity="0.5" d="M313.238 165.524C314.28 165.524 315.126 164.679 315.126 163.636C315.126 162.593 314.28 161.748 313.238 161.748C312.195 161.748 311.349 162.593 311.349 163.636C311.349 164.679 312.195 165.524 313.238 165.524Z" fill="#47E6B1"/>
<g opacity="0.5">
<path opacity="0.5" d="M229.216 59.1608H228.272V64.5105H229.216V59.1608Z" fill="#47E6B1"/>
<path opacity="0.5" d="M231.419 62.3077V61.3636H226.07V62.3077H231.419Z" fill="#47E6B1"/>
</g>
<g opacity="0.5">
<path opacity="0.5" d="M232.678 268.741H231.734V274.091H232.678V268.741Z" fill="#47E6B1"/>
<path opacity="0.5" d="M234.881 271.888V270.944H229.531V271.888H234.881Z" fill="#47E6B1"/>
</g>
<g opacity="0.5">
<path opacity="0.5" d="M53.9366 280.07H52.9925V285.419H53.9366V280.07Z" fill="#47E6B1"/>
<path opacity="0.5" d="M56.1394 283.217V282.273H50.7897V283.217H56.1394Z" fill="#47E6B1"/>
</g>
<g opacity="0.5">
<path opacity="0.5" d="M268.867 183.776H267.923V189.126H268.867V183.776Z" fill="#47E6B1"/>
<path opacity="0.5" d="M271.07 186.923V185.979H265.72V186.923H271.07Z" fill="#47E6B1"/>
</g>
<path opacity="0.5" d="M295.051 97.8728L297.078 99.7313L299.951 95.507L300.965 96.3519L297.078 101.421L294.206 98.2107L295.051 97.8728Z" fill="#47E6B1"/>
<path d="M237.168 134.456L230.175 134.727L230.523 143.72L237.517 143.449L237.168 134.456Z" fill="#6C63FF"/>
<path d="M205.618 165.949C205.618 165.949 195.933 161.322 196.088 165.318C196.243 169.315 205.851 171.944 205.851 171.944L205.618 165.949Z" fill="#FFC9A3"/>
<path d="M210.932 199.766C210.932 199.766 206.363 210.95 204.674 219.021C202.986 227.092 200.415 238.199 203.722 246.075C207.029 253.953 216.433 277.103 216.53 279.601C216.627 282.099 215.724 284.636 217.723 284.558C219.721 284.481 230.595 281.057 231.037 279.539C231.478 278.021 227.327 274.179 227.327 274.179L217.075 242.055L227.771 221.127L235.486 252.349L236.997 291.316C236.997 291.316 244.414 289.027 245.49 290.986C245.49 290.986 248.813 286.355 249.235 284.337C249.657 282.319 247.666 243.871 247.666 243.871C247.666 243.871 254.473 200.078 248.978 200.292C243.482 200.505 221.958 187.33 210.932 199.766Z" fill="#0176AF"/>
<path d="M217.645 282.56C217.645 282.56 212.576 293.764 212.096 294.283C211.616 294.802 208.312 299.933 210.81 299.836C213.308 299.739 219.206 297.009 223.547 292.838C227.888 288.667 233.612 281.44 233.093 280.96C232.574 280.48 229.019 279.117 229.019 279.117L217.645 282.56Z" fill="#111111"/>
<path d="M237.899 288.779C237.899 288.779 237.594 293.794 236.672 295.831C235.75 297.868 235.867 300.866 238.365 300.769C240.862 300.672 247.318 299.421 247.318 299.421C247.318 299.421 247.701 296.404 247.182 295.924C246.663 295.444 244.452 290.026 245.393 288.488C246.334 286.951 237.899 288.779 237.899 288.779Z" fill="#111111"/>
<path d="M241.595 126.029C241.595 126.029 246.92 134.328 248.996 136.249C251.072 138.17 245.232 142.399 245.232 142.399L234.779 143.805C234.779 143.805 234.911 134.294 234.373 133.314C233.834 132.334 241.595 126.029 241.595 126.029Z" fill="#FFC9A3"/>
<path d="M232.51 136.888C232.51 136.888 234.663 140.808 236.661 140.73C238.66 140.652 248.996 136.249 249.437 134.731C249.879 133.213 252.861 145.606 252.861 145.606L227.569 190.115L221.4 185.851L224.389 159.718L226.844 145.614L232.51 136.888Z" fill="#FC8019"/>
<path d="M250.37 176.722C249.361 178.833 248.731 181.033 248.818 183.287C248.823 183.387 248.826 183.486 248.835 183.586C249.075 188.21 250.778 193.558 251.389 197.446C251.832 200.236 251.706 202.272 250.074 202.751C246.116 203.905 250.651 204.73 235.338 209.827C220.026 214.923 217.353 210.524 217.315 209.525C217.276 208.526 219.483 200.935 218.964 200.455C218.445 199.975 211.703 206.74 209.666 205.819C207.629 204.897 209.434 199.824 209.434 199.824C209.434 199.824 214.022 189.139 213.926 186.641C213.829 184.143 220.877 172.362 220.877 172.362L225.671 141.156C225.671 141.156 227.514 137.082 229.992 136.486C232.471 135.889 234.527 137.31 234.527 137.31L230.38 146.477L226.004 162.657L226.736 168.633C226.736 168.633 231.825 157.929 235.167 153.796C238.509 149.664 245.634 139.882 245.634 139.882C245.634 139.882 247.298 134.268 246.042 132.591C244.786 130.908 251.281 130.657 254.05 137.554C255.517 141.209 257.9 146.661 259.393 151.736C260.723 156.232 261.351 160.436 260.034 162.839C258.02 166.509 252.953 171.334 250.37 176.722Z" fill="#3A3A3A"/>
<path opacity="0.1" d="M260.034 162.839C258.019 166.509 252.953 171.334 250.37 176.722C249.695 174.292 248.873 171.777 248.873 171.777C248.873 171.777 245.716 154.888 255.053 150.524C256.6 150.374 258.147 150.806 259.393 151.736C260.723 156.232 261.351 160.436 260.034 162.839Z" fill="black"/>
<path d="M222.968 161.774L215.052 164.083L204.061 164.509L202.931 174.059L220.993 175.36C220.993 175.36 225.505 162.677 222.968 161.774Z" fill="#3A3A3A"/>
<path d="M235.876 193.885C235.876 193.885 225.286 195.642 227.703 198.828C230.12 202.015 239.501 198.665 239.501 198.665L235.876 193.885Z" fill="#FFC9A3"/>
<path opacity="0.1" d="M248.835 183.586C249.074 188.21 250.778 193.557 251.389 197.446C248.015 200.639 244.807 203.455 243.598 203.502C241.1 203.599 237.085 203.254 235.605 203.812C234.126 204.37 233.258 194.897 233.258 194.897C233.258 194.897 234.141 191.861 238.08 190.207C240.738 189.088 245.834 186.054 248.835 183.586Z" fill="black"/>
<path d="M254.937 147.526C254.937 147.526 263.391 146.198 262.934 160.224C262.477 174.251 263.825 183.205 260.425 185.839C257.025 188.472 245.98 200.408 243.482 200.505C240.984 200.601 236.968 200.257 235.489 200.815C234.01 201.372 233.142 191.9 233.142 191.9C233.142 191.9 234.025 188.864 237.963 187.21C241.902 185.556 251.181 179.693 251.103 177.695C251.026 175.696 248.756 168.78 248.756 168.78C248.756 168.78 245.6 151.891 254.937 147.526Z" fill="#3A3A3A"/>
<path d="M234.14 138.318C240.215 138.318 245.139 133.393 245.139 127.319C245.139 121.244 240.215 116.32 234.14 116.32C228.066 116.32 223.141 121.244 223.141 127.319C223.141 133.393 228.066 138.318 234.14 138.318Z" fill="#FFC9A3"/>
<path d="M226.734 111.554C226.469 111.783 226.151 111.942 225.809 112.018C225.638 112.049 225.461 112.01 225.318 111.911C225.175 111.812 225.076 111.66 225.045 111.489C224.793 112.01 224.509 112.567 223.995 112.835C223.481 113.102 222.687 112.878 222.613 112.303C222.538 112.739 222.345 113.147 222.055 113.481C221.736 113.785 221.158 113.862 220.879 113.521C221.104 114.75 220.966 116.015 221.036 117.263C221.107 118.511 221.44 119.834 222.383 120.654C223.758 121.851 225.826 121.556 227.634 121.329C227.908 121.272 228.192 121.287 228.458 121.374C229.135 121.663 229.104 122.606 229.114 123.342C229.169 124.633 229.68 125.864 230.556 126.814C231.433 127.764 232.618 128.374 233.901 128.533C234.618 128.644 235.351 128.465 235.937 128.036C236.451 127.601 236.713 126.891 237.302 126.564C238.259 126.032 239.42 126.808 240.12 127.651C240.82 128.493 241.51 129.529 242.594 129.683C244.028 129.887 245.12 128.426 245.656 127.08C246.395 125.194 246.749 123.179 246.698 121.154C246.646 119.129 246.189 117.135 245.354 115.289C242.36 108.762 232.132 107.729 226.734 111.554Z" fill="#2F2E41"/>
<defs>
<linearGradient id="paint0_linear" x1="153.227" y1="175.405" x2="203.727" y2="175.405" gradientUnits="userSpaceOnUse">
<stop stop-color="#808080" stop-opacity="0.25"/>
<stop offset="0.53514" stop-color="#808080" stop-opacity="0.12"/>
<stop offset="1" stop-color="#808080" stop-opacity="0.1"/>
</linearGradient>
</defs>
</svg>
